SplineFontDB: 3.2
FontName: RobotoSemiMono-Thin
FullName: Roboto Semi Mono Thin
FamilyName: Roboto Semi Mono Thin
Weight: Thin
Copyright: Roboto - Copyright 2011 Google Inc. All Rights Reserved. Roboto is a trademark of Google. Roboto Mono - Copyright 2015 The Roboto Mono Project Authors (https://github.com/googlefonts/robotomono). Roboto Mono is a trademark of Google. Roboto Serif - Copyright 2020 The Roboto Serif Project Authors (https://github.com/googlefonts/RobotoSerif). Roboto Serif is a trademark of Google, Inc.
Version: 1.0.0
ItalicAngle: 0
UnderlinePosition: -200
UnderlineWidth: 100
Ascent: 1536
Descent: 512
InvalidEm: 0
sfntRevision: 0x00022312
LayerCount: 2
Layer: 0 1 "Back" 1
Layer: 1 1 "Fore" 0
XUID: [1021 788 -1684003395 10585266]
StyleMap: 0x0040
FSType: 0
OS2Version: 3
OS2_WeightWidthSlopeOnly: 0
OS2_UseTypoMetrics: 0
CreationTime: 1221222574
ModificationTime: 1704833930
PfmFamily: 17
TTFWeight: 250
TTFWidth: 5
LineGap: 0
VLineGap: 0
Panose: 2 0 0 0 0 0 0 0 0 0
OS2TypoAscent: 1536
OS2TypoAOffset: 0
OS2TypoDescent: -512
OS2TypoDOffset: 0
OS2TypoLinegap: 102
OS2WinAscent: 1946
OS2WinAOffset: 0
OS2WinDescent: 512
OS2WinDOffset: 0
HheadAscent: 1900
HheadAOffset: 0
HheadDescent: -500
HheadDOffset: 0
OS2SubXSize: 1434
OS2SubYSize: 1331
OS2SubXOff: 0
OS2SubYOff: 287
OS2SupXSize: 1434
OS2SupYSize: 1331
OS2SupXOff: 0
OS2SupYOff: 977
OS2StrikeYSize: 102
OS2StrikeYPos: 512
OS2CapHeight: 1456
OS2XHeight: 1082
OS2Vendor: 'GOOG'
OS2CodePages: 2000019f.00000000
OS2UnicodeRanges: e00002ff.5000205b.00000020.00000000
Lookup: 1 0 0 "'c2sc' Capitals to Small Capitals lookup 0" { "'c2sc' Capitals to Small Capitals lookup 0 subtable"  } ['c2sc' ('DFLT' <'dflt' > 'cyrl' <'dflt' > 'grek' <'dflt' > 'latn' <'AZE ' 'CRT ' 'FRA ' 'MOL ' 'NAV ' 'ROM ' 'TRK ' 'dflt' > ) ]

StartChar: .notdef
Encoding: 65536 -1 0
Width: 908
GlyphClass: 1
Flags: W
LayerCount: 2
Fore
SplineSet
808 0 m 1,0,-1
 100 0 l 1,1,-1
 100 1456 l 1,2,-1
 808 1456 l 1,3,-1
 808 0 l 1,0,-1
754 84 m 1,4,-1
 754 1371 l 1,5,-1
 480 728 l 1,6,-1
 754 84 l 1,4,-1
154 1359 m 1,7,-1
 154 96 l 1,8,-1
 422 728 l 1,9,-1
 154 1359 l 1,7,-1
194 54 m 1,10,-1
 709 54 l 1,11,-1
 451 660 l 1,12,-1
 194 54 l 1,10,-1
451 796 m 1,13,-1
 709 1402 l 1,14,-1
 194 1402 l 1,15,-1
 451 796 l 1,13,-1
EndSplineSet
EndChar

StartChar: exclam
Encoding: 33 33 5
Width: 1229
GlyphClass: 1
Flags: HW
LayerCount: 2
Fore
SplineSet
619 401 m 1,0,-1
 619 1456 l 1,1,-1
 564 1456 l 1,2,-1
 564 401 l 1,3,-1
 619 401 l 1,0,-1
543 49 m 0,4,5
 543 26 543 26 560 10 c 128,-1,6
 577 -6 577 -6 599 -6 c 256,7,8
 621 -6 621 -6 639 10 c 128,-1,9
 657 26 657 26 657 49 c 256,10,11
 657 72 657 72 639.5 88.5 c 128,-1,12
 622 105 622 105 600 105 c 0,13,14
 577 105 577 105 560 88 c 128,-1,15
 543 71 543 71 543 49 c 0,4,5
EndSplineSet
EndChar

StartChar: quotedbl
Encoding: 34 34 6
Width: 1229
GlyphClass: 1
Flags: HW
LayerCount: 2
Fore
SplineSet
514 1393 m 1,0,-1
 516 1536 l 1,1,-1
 456 1536 l 1,2,-1
 458 1390 l 1,3,-1
 450 1122 l 1,4,-1
 503 1122 l 1,5,-1
 514 1393 l 1,0,-1
763 1393 m 1,6,-1
 765 1536 l 1,7,-1
 706 1536 l 1,8,-1
 708 1390 l 1,9,-1
 699 1122 l 1,10,-1
 752 1122 l 1,11,-1
 763 1393 l 1,6,-1
EndSplineSet
EndChar

StartChar: numbersign
Encoding: 35 35 7
Width: 1229
GlyphClass: 1
Flags: HW
LayerCount: 2
Fore
SplineSet
752 410 m 1,0,-1
 677 0 l 1,1,-1
 733 0 l 1,2,-1
 808 410 l 1,3,-1
 1102 410 l 1,4,-1
 1102 462 l 1,5,-1
 817 462 l 1,6,-1
 913 986 l 1,7,-1
 1177 986 l 1,8,-1
 1177 1040 l 1,9,-1
 923 1040 l 1,10,-1
 999 1456 l 1,11,-1
 943 1456 l 1,12,-1
 867 1040 l 1,13,-1
 502 1040 l 1,14,-1
 578 1456 l 1,15,-1
 522 1456 l 1,16,-1
 447 1040 l 1,17,-1
 137 1040 l 1,18,-1
 137 986 l 1,19,-1
 437 986 l 1,20,-1
 342 462 l 1,21,-1
 61 462 l 1,22,-1
 61 410 l 1,23,-1
 332 410 l 1,24,-1
 258 0 l 1,25,-1
 314 0 l 1,26,-1
 388 410 l 1,27,-1
 752 410 l 1,0,-1
398 462 m 1,28,-1
 492 986 l 1,29,-1
 857 986 l 1,30,-1
 761 462 l 1,31,-1
 398 462 l 1,28,-1
EndSplineSet
EndChar

StartChar: dollar
Encoding: 36 36 8
Width: 1229
GlyphClass: 1
Flags: HW
LayerCount: 2
Fore
SplineSet
1015 344 m 0,0,1
 1014 269 1014 269 982.5 211 c 128,-1,2
 951 153 951 153 900 113 c 256,3,4
 849 73 849 73 785 52.5 c 128,-1,5
 721 32 721 32 657 32 c 0,6,7
 573 31 573 31 499.5 55.5 c 128,-1,8
 426 80 426 80 371 128 c 0,9,10
 316 175 316 175 283.5 246 c 128,-1,11
 251 317 251 317 248 409 c 1,12,-1
 193 409 l 1,13,14
 197 307 197 307 231.5 228 c 128,-1,15
 266 149 266 149 325 95 c 0,16,17
 383 40 383 40 462.5 11 c 128,-1,18
 542 -18 542 -18 636 -21 c 1,19,-1
 636 -208 l 1,20,-1
 692 -208 l 1,21,-1
 692 -19 l 1,22,23
 766 -14 766 -14 834 11.5 c 128,-1,24
 902 37 902 37 954 83 c 256,25,26
 1006 129 1006 129 1037.5 194.5 c 128,-1,27
 1069 260 1069 260 1069 346 c 0,28,29
 1069 439 1069 439 1033 505 c 128,-1,30
 997 571 997 571 939 618 c 256,31,32
 881 665 881 665 809 696.5 c 128,-1,33
 737 728 737 728 664 754 c 0,34,35
 599 777 599 777 533 804 c 128,-1,36
 467 831 467 831 414 872 c 0,37,38
 361 912 361 912 328 970 c 128,-1,39
 295 1028 295 1028 296 1112 c 0,40,41
 297 1189 297 1189 327.5 1247.5 c 128,-1,42
 358 1306 358 1306 408 1345 c 0,43,44
 457 1384 457 1384 520 1404 c 128,-1,45
 583 1424 583 1424 650 1424 c 0,46,47
 730 1424 730 1424 795 1396 c 128,-1,48
 860 1368 860 1368 906 1318 c 256,49,50
 952 1268 952 1268 978 1199 c 128,-1,51
 1004 1130 1004 1130 1006 1047 c 1,52,-1
 1061 1047 l 1,53,54
 1058 1140 1058 1140 1031 1217 c 128,-1,55
 1004 1294 1004 1294 956 1350 c 0,56,57
 907 1406 907 1406 837.5 1438.5 c 128,-1,58
 768 1471 768 1471 680 1476 c 1,59,-1
 680 1663 l 1,60,-1
 624 1663 l 1,61,-1
 624 1476 l 1,62,63
 549 1472 549 1472 480 1446.5 c 128,-1,64
 411 1421 411 1421 358 1375 c 256,65,66
 305 1329 305 1329 273.5 1262.5 c 128,-1,67
 242 1196 242 1196 242 1110 c 0,68,69
 242 1015 242 1015 277.5 949.5 c 128,-1,70
 313 884 313 884 371 838 c 0,71,72
 429 791 429 791 501 759.5 c 128,-1,73
 573 728 573 728 647 702 c 0,74,75
 710 679 710 679 775.5 651 c 128,-1,76
 841 623 841 623 895 582 c 0,77,78
 948 541 948 541 982 483.5 c 128,-1,79
 1016 426 1016 426 1015 344 c 0,0,1
EndSplineSet
Substitution2: "'c2sc' Capitals to Small Capitals lookup 0 subtable" dollar.c2sc
Position2: "'cpsp' Capital Spacing lookup 0 subtable" dx=36 dy=0 dh=72 dv=0
EndChar

StartChar: percent
Encoding: 37 37 9
Width: 1229
GlyphClass: 1
Flags: HW
LayerCount: 2
Fore
SplineSet
44 1176 m 2,0,-1
 44 1099 l 2,1,2
 45 1046 45 1046 60.5 992.5 c 128,-1,3
 76 939 76 939 106 897 c 0,4,5
 136 854 136 854 181 827 c 128,-1,6
 226 800 226 800 286 800 c 0,7,8
 345 800 345 800 389.5 827.5 c 128,-1,9
 434 855 434 855 463 898 c 256,10,11
 492 941 492 941 507 994 c 128,-1,12
 522 1047 522 1047 523 1099 c 2,13,-1
 523 1176 l 2,14,15
 522 1228 522 1228 507 1281.5 c 128,-1,16
 492 1335 492 1335 463 1379 c 0,17,18
 433 1422 433 1422 388.5 1449.5 c 128,-1,19
 344 1477 344 1477 284 1477 c 256,20,21
 224 1477 224 1477 179.5 1449.5 c 128,-1,22
 135 1422 135 1422 105 1379 c 256,23,24
 75 1336 75 1336 60 1282 c 128,-1,25
 45 1228 45 1228 44 1176 c 2,0,-1
99 1099 m 2,26,-1
 99 1176 l 2,27,28
 100 1217 100 1217 110.5 1260.5 c 128,-1,29
 121 1304 121 1304 144 1340 c 0,30,31
 166 1376 166 1376 201 1399 c 128,-1,32
 236 1422 236 1422 284 1422 c 0,33,34
 333 1422 333 1422 367.5 1399 c 128,-1,35
 402 1376 402 1376 425 1341 c 0,36,37
 447 1305 447 1305 457.5 1261.5 c 128,-1,38
 468 1218 468 1218 469 1176 c 2,39,-1
 469 1099 l 2,40,41
 468 1058 468 1058 457.5 1014.5 c 128,-1,42
 447 971 447 971 425 936 c 256,43,44
 403 901 403 901 368.5 878 c 128,-1,45
 334 855 334 855 286 855 c 0,46,47
 237 855 237 855 202 877 c 128,-1,48
 167 899 167 899 145 935 c 0,49,50
 122 970 122 970 111 1013.5 c 128,-1,51
 100 1057 100 1057 99 1099 c 2,26,-1
702 357 m 2,52,-1
 702 279 l 2,53,54
 703 226 703 226 718.5 173 c 128,-1,55
 734 120 734 120 764 77 c 0,56,57
 794 33 794 33 838.5 6 c 128,-1,58
 883 -21 883 -21 943 -21 c 256,59,60
 1003 -21 1003 -21 1047 6.5 c 128,-1,61
 1091 34 1091 34 1121 77 c 256,62,63
 1151 120 1151 120 1166 173.5 c 128,-1,64
 1181 227 1181 227 1182 279 c 2,65,-1
 1182 357 l 2,66,67
 1181 409 1181 409 1165.5 462.5 c 128,-1,68
 1150 516 1150 516 1120 560 c 0,69,70
 1090 603 1090 603 1045.5 630 c 128,-1,71
 1001 657 1001 657 941 657 c 256,72,73
 881 657 881 657 837 629.5 c 128,-1,74
 793 602 793 602 763 559 c 256,75,76
 733 516 733 516 718 462.5 c 128,-1,77
 703 409 703 409 702 357 c 2,52,-1
757 279 m 2,78,-1
 757 357 l 2,79,80
 758 399 758 399 768 443 c 128,-1,81
 778 487 778 487 800 522 c 256,82,83
 822 557 822 557 856.5 579.5 c 128,-1,84
 891 602 891 602 941 602 c 256,85,86
 991 602 991 602 1026 579.5 c 128,-1,87
 1061 557 1061 557 1084 522 c 0,88,89
 1106 487 1106 487 1116 443.5 c 128,-1,90
 1126 400 1126 400 1127 357 c 2,91,-1
 1127 279 l 2,92,93
 1126 237 1126 237 1115.5 193.5 c 128,-1,94
 1105 150 1105 150 1083 115 c 0,95,96
 1061 79 1061 79 1026.5 56.5 c 128,-1,97
 992 34 992 34 943 34 c 256,98,99
 894 34 894 34 859 56.5 c 128,-1,100
 824 79 824 79 802 115 c 0,101,102
 779 150 779 150 768.5 193.5 c 128,-1,103
 758 237 758 237 757 279 c 2,78,-1
316 131 m 1,104,-1
 938 1269 l 1,105,-1
 895 1300 l 1,106,-1
 273 162 l 1,107,-1
 316 131 l 1,104,-1
EndSplineSet
EndChar

StartChar: ampersand
Encoding: 38 38 10
Width: 1229
GlyphClass: 1
Flags: HW
LayerCount: 2
Fore
SplineSet
164 352 m 0,0,1
 164 264 164 264 196 195 c 128,-1,2
 228 126 228 126 284 78 c 0,3,4
 339 30 339 30 413 5 c 128,-1,5
 487 -20 487 -20 571 -20 c 0,6,7
 630 -20 630 -20 684 -5 c 128,-1,8
 738 10 738 10 788 36 c 0,9,10
 837 62 837 62 881 97.5 c 128,-1,11
 925 133 925 133 965 175 c 1,12,-1
 1110 0 l 1,13,-1
 1175 0 l 1,14,-1
 998 216 l 1,15,16
 1061 309 1061 309 1091.5 414 c 128,-1,17
 1122 519 1122 519 1122 632 c 1,18,-1
 1068 632 l 1,19,20
 1064 537 1064 537 1037 441 c 128,-1,21
 1010 345 1010 345 959 263 c 1,22,-1
 521 797 l 1,23,-1
 662 918 l 2,24,25
 694 946 694 946 726 978.5 c 128,-1,26
 758 1011 758 1011 784 1048 c 0,27,28
 809 1085 809 1085 825.5 1126.5 c 128,-1,29
 842 1168 842 1168 842 1213 c 0,30,31
 842 1269 842 1269 823 1317.5 c 128,-1,32
 804 1366 804 1366 770 1402 c 0,33,34
 735 1437 735 1437 687 1457 c 128,-1,35
 639 1477 639 1477 583 1477 c 0,36,37
 517 1477 517 1477 464 1452 c 128,-1,38
 411 1427 411 1427 374 1385 c 256,39,40
 337 1343 337 1343 317 1286.5 c 128,-1,41
 297 1230 297 1230 297 1167 c 0,42,43
 297 1116 297 1116 309.5 1067.5 c 128,-1,44
 322 1019 322 1019 343 974 c 0,45,46
 364 928 364 928 392 885 c 128,-1,47
 420 842 420 842 451 802 c 1,48,-1
 404 762 l 2,49,50
 359 723 359 723 316 677.5 c 128,-1,51
 273 632 273 632 240 581 c 0,52,53
 206 530 206 530 185 472.5 c 128,-1,54
 164 415 164 415 164 352 c 0,0,1
571 34 m 0,55,56
 500 34 500 34 436 55.5 c 128,-1,57
 372 77 372 77 324 118 c 256,58,59
 276 159 276 159 247.5 218 c 128,-1,60
 219 277 219 277 218 352 c 0,61,62
 218 408 218 408 237 460 c 128,-1,63
 256 512 256 512 287 559 c 0,64,65
 318 605 318 605 357 646.5 c 128,-1,66
 396 688 396 688 435 723 c 2,67,-1
 481 763 l 1,68,-1
 929 219 l 1,69,70
 898 178 898 178 860 143.5 c 128,-1,71
 822 109 822 109 777 85 c 0,72,73
 732 60 732 60 680.5 47 c 128,-1,74
 629 34 629 34 571 34 c 0,55,56
352 1169 m 0,75,76
 352 1220 352 1220 368 1266 c 128,-1,77
 384 1312 384 1312 414 1347 c 0,78,79
 443 1382 443 1382 486 1402.5 c 128,-1,80
 529 1423 529 1423 583 1423 c 0,81,82
 627 1423 627 1423 664.5 1406.5 c 128,-1,83
 702 1390 702 1390 729 1362 c 0,84,85
 756 1333 756 1333 771 1295 c 128,-1,86
 786 1257 786 1257 786 1213 c 0,87,88
 786 1174 786 1174 773 1138.5 c 128,-1,89
 760 1103 760 1103 739 1072 c 0,90,91
 718 1040 718 1040 691.5 1012 c 128,-1,92
 665 984 665 984 637 960 c 2,93,-1
 490 835 l 1,94,95
 462 871 462 871 437 910 c 128,-1,96
 412 949 412 949 393 991 c 256,97,98
 374 1033 374 1033 363 1077.5 c 128,-1,99
 352 1122 352 1122 352 1169 c 0,75,76
EndSplineSet
Substitution2: "'smcp' Lowercase to Small Capitals lookup 1 subtable" ampersand.c2sc
Substitution2: "'c2sc' Capitals to Small Capitals lookup 0 subtable" ampersand.c2sc
Position2: "'cpsp' Capital Spacing lookup 0 subtable" dx=36 dy=0 dh=72 dv=0
EndChar

StartChar: quotesingle
Encoding: 39 39 11
Width: 1229
GlyphClass: 1
Flags: HW
LayerCount: 2
Fore
SplineSet
603 1367 m 1,0,-1
 603 1536 l 1,1,-1
 547 1536 l 1,2,-1
 548 1365 l 1,3,-1
 538 1122 l 1,4,-1
 588 1122 l 1,5,-1
 603 1367 l 1,0,-1
EndSplineSet
EndChar

StartChar: parenleft
Encoding: 40 40 12
Width: 1229
GlyphClass: 1
Flags: HW
LayerCount: 2
Fore
SplineSet
406 586 m 2,0,-1
 406 566 l 2,1,2
 406 478 406 478 415 381.5 c 128,-1,3
 424 285 424 285 444 188 c 0,4,5
 463 90 463 90 494.5 -5 c 128,-1,6
 526 -100 526 -100 572 -186 c 256,7,8
 618 -272 618 -272 679.5 -344.5 c 128,-1,9
 741 -417 741 -417 820 -470 c 1,10,-1
 839 -427 l 1,11,12
 767 -377 767 -377 711 -306.5 c 128,-1,13
 655 -236 655 -236 613 -153 c 256,14,15
 571 -70 571 -70 542 22 c 128,-1,16
 513 114 513 114 495 208 c 0,17,18
 477 301 477 301 469 392 c 128,-1,19
 461 483 461 483 460 564 c 2,20,-1
 460 590 l 2,21,22
 460 671 460 671 468.5 762 c 128,-1,23
 477 853 477 853 495 947 c 0,24,25
 513 1040 513 1040 542 1132 c 128,-1,26
 571 1224 571 1224 613 1307 c 256,27,28
 655 1390 655 1390 711 1460 c 128,-1,29
 767 1530 767 1530 839 1580 c 1,30,-1
 820 1623 l 1,31,32
 742 1571 742 1571 681 1498 c 128,-1,33
 620 1425 620 1425 574 1339 c 256,34,35
 528 1253 528 1253 496.5 1157.5 c 128,-1,36
 465 1062 465 1062 445 964 c 256,37,38
 425 866 425 866 415.5 769.5 c 128,-1,39
 406 673 406 673 406 586 c 2,0,-1
EndSplineSet
EndChar

StartChar: parenright
Encoding: 41 41 13
Width: 1229
GlyphClass: 1
Flags: HW
LayerCount: 2
Fore
SplineSet
798 566 m 2,0,-1
 798 586 l 2,1,2
 797 673 797 673 788 769.5 c 128,-1,3
 779 866 779 866 759 964 c 256,4,5
 739 1062 739 1062 707.5 1157.5 c 128,-1,6
 676 1253 676 1253 630 1339 c 256,7,8
 584 1425 584 1425 523 1498 c 128,-1,9
 462 1571 462 1571 384 1623 c 1,10,-1
 365 1580 l 1,11,12
 437 1530 437 1530 493 1460 c 128,-1,13
 549 1390 549 1390 591 1307 c 256,14,15
 633 1224 633 1224 662 1132 c 128,-1,16
 691 1040 691 1040 709 947 c 0,17,18
 727 853 727 853 735 762 c 128,-1,19
 743 671 743 671 744 590 c 2,20,-1
 744 564 l 2,21,22
 743 483 743 483 735 392 c 128,-1,23
 727 301 727 301 709 208 c 0,24,25
 691 114 691 114 662 22 c 128,-1,26
 633 -70 633 -70 591 -153 c 256,27,28
 549 -236 549 -236 493 -306.5 c 128,-1,29
 437 -377 437 -377 365 -427 c 1,30,-1
 384 -470 l 1,31,32
 463 -417 463 -417 524.5 -344.5 c 128,-1,33
 586 -272 586 -272 632 -186 c 256,34,35
 678 -100 678 -100 709.5 -5 c 128,-1,36
 741 90 741 90 761 188 c 0,37,38
 780 285 780 285 789 381.5 c 128,-1,39
 798 478 798 478 798 566 c 2,0,-1
EndSplineSet
EndChar

StartChar: asterisk
Encoding: 42 42 14
Width: 1229
GlyphClass: 1
Flags: HW
LayerCount: 2
Fore
SplineSet
604 1017 m 1,0,-1
 340 693 l 1,1,-1
 387 661 l 1,2,-1
 645 986 l 1,3,-1
 919 664 l 1,4,-1
 969 697 l 1,5,-1
 688 1014 l 1,6,-1
 1080 1151 l 1,7,-1
 1058 1204 l 1,8,-1
 675 1061 l 1,9,-1
 683 1456 l 1,10,-1
 624 1456 l 1,11,-1
 622 1062 l 1,12,-1
 227 1195 l 1,13,-1
 208 1141 l 1,14,-1
 604 1017 l 1,0,-1
EndSplineSet
EndChar

StartChar: plus
Encoding: 43 43 15
Width: 1229
GlyphClass: 1
Flags: HW
LayerCount: 2
Fore
SplineSet
636 702 m 1,0,-1
 636 1206 l 1,1,-1
 581 1206 l 1,2,-1
 581 702 l 1,3,-1
 119 702 l 1,4,-1
 119 649 l 1,5,-1
 581 649 l 1,6,-1
 581 146 l 1,7,-1
 636 146 l 1,8,-1
 636 649 l 1,9,-1
 1117 649 l 1,10,-1
 1117 702 l 1,11,-1
 636 702 l 1,0,-1
EndSplineSet
EndChar

StartChar: comma
Encoding: 44 44 16
Width: 1229
GlyphClass: 1
Flags: HW
LayerCount: 2
Fore
SplineSet
559 27 m 2,0,-1
 559 159 l 1,1,-1
 505 159 l 1,2,-1
 505 25 l 2,3,4
 504 -47 504 -47 481 -106.5 c 128,-1,5
 458 -166 458 -166 416 -223 c 1,6,-1
 453 -255 l 1,7,8
 507 -195 507 -195 532 -124.5 c 128,-1,9
 557 -54 557 -54 559 27 c 2,0,-1
EndSplineSet
EndChar

StartChar: hyphen
Encoding: 45 45 17
Width: 1229
GlyphClass: 1
Flags: HW
LayerCount: 2
Fore
SplineSet
974 639 m 1,0,-1
 974 693 l 1,1,-1
 256 693 l 1,2,-1
 256 639 l 1,3,-1
 974 639 l 1,0,-1
EndSplineSet
EndChar

StartChar: period
Encoding: 46 46 18
Width: 1229
GlyphClass: 1
Flags: HW
LayerCount: 2
Fore
SplineSet
589 52 m 0,0,1
 589 28 589 28 607 11 c 128,-1,2
 625 -6 625 -6 647 -6 c 0,3,4
 670 -6 670 -6 688.5 11 c 128,-1,5
 707 28 707 28 707 52 c 0,6,7
 707 77 707 77 688.5 94.5 c 128,-1,8
 670 112 670 112 647 112 c 0,9,10
 625 112 625 112 607 94.5 c 128,-1,11
 589 77 589 77 589 52 c 0,0,1
EndSplineSet
EndChar

StartChar: slash
Encoding: 47 47 19
Width: 1229
GlyphClass: 1
Flags: HW
LayerCount: 2
Fore
SplineSet
365 -125 m 1,0,-1
 973 1456 l 1,1,-1
 914 1456 l 1,2,-1
 306 -125 l 1,3,-1
 365 -125 l 1,0,-1
EndSplineSet
Substitution2: "'frac' Diagonal Fractions lookup 22 subtable" fraction
EndChar

StartChar: zero
Encoding: 48 48 20
Width: 1121
GlyphClass: 1
Flags: W
LayerCount: 2
Fore
SplineSet
996 594 m 2,0,1
 996 301 996 301 882 140.5 c 128,-1,2
 768 -20 768 -20 562 -20 c 0,3,4
 357 -20 357 -20 241 142 c 128,-1,5
 125 304 125 304 125 598 c 2,6,-1
 125 862 l 2,7,8
 125 1152 125 1152 239.5 1314.5 c 128,-1,9
 354 1477 354 1477 560 1477 c 0,10,11
 767 1477 767 1477 881.5 1314.5 c 128,-1,12
 996 1152 996 1152 996 858 c 2,13,-1
 996 594 l 2,0,1
942 862 m 2,14,15
 942 1127 942 1127 842.5 1275 c 128,-1,16
 743 1423 743 1423 560 1423 c 0,17,18
 376 1423 376 1423 277.5 1274.5 c 128,-1,19
 179 1126 179 1126 179 857 c 2,20,-1
 179 596 l 2,21,22
 179 332 179 332 280 183 c 128,-1,23
 381 34 381 34 562 34 c 0,24,25
 744 34 744 34 843 183 c 128,-1,26
 942 332 942 332 942 601 c 2,27,-1
 942 862 l 2,14,15
EndSplineSet
Substitution2: "'numr' Numerators lookup 25 subtable" zero.numr
Substitution2: "'dnom' Denominators lookup 24 subtable" zero.dnom
Substitution2: "'pnum' Proportional Numbers lookup 19 subtable" zero.pnum
Substitution2: "'onum' Oldstyle Figures lookup 18 subtable" zero.oldstyle
Substitution2: "'c2sc' Capitals to Small Capitals lookup 0 subtable" zero.c2sc
Position2: "'cpsp' Capital Spacing lookup 0 subtable" dx=36 dy=0 dh=72 dv=0
EndChar

StartChar: one
Encoding: 49 49 21
Width: 1121
GlyphClass: 1
Flags: W
LayerCount: 2
Fore
SplineSet
659 0 m 1,0,-1
 605 0 l 1,1,-1
 605 1388 l 1,2,-1
 187 1231 l 1,3,-1
 187 1290 l 1,4,-1
 648 1460 l 1,5,-1
 659 1460 l 1,6,-1
 659 0 l 1,0,-1
EndSplineSet
Substitution2: "'numr' Numerators lookup 25 subtable" uni00B9
Substitution2: "'dnom' Denominators lookup 24 subtable" one.dnom
Substitution2: "'pnum' Proportional Numbers lookup 19 subtable" one.pnum
Substitution2: "'onum' Oldstyle Figures lookup 18 subtable" one.oldstyle
Substitution2: "'c2sc' Capitals to Small Capitals lookup 0 subtable" one.c2sc
Position2: "'cpsp' Capital Spacing lookup 0 subtable" dx=36 dy=0 dh=72 dv=0
EndChar

StartChar: two
Encoding: 50 50 22
Width: 1121
GlyphClass: 1
Flags: W
LayerCount: 2
Fore
SplineSet
1024 0 m 1,0,-1
 153 0 l 1,1,-1
 153 54 l 1,2,-1
 650 627 l 2,3,4
 772 770 772 770 831.5 881 c 128,-1,5
 891 992 891 992 891 1085 c 0,6,7
 891 1245 891 1245 798 1333.5 c 128,-1,8
 705 1422 705 1422 536 1422 c 0,9,10
 434 1422 434 1422 350 1373 c 128,-1,11
 266 1324 266 1324 218.5 1237.5 c 128,-1,12
 171 1151 171 1151 171 1045 c 1,13,-1
 117 1045 l 1,14,15
 117 1162 117 1162 171 1262 c 128,-1,16
 225 1362 225 1362 321 1419 c 128,-1,17
 417 1476 417 1476 536 1476 c 0,18,19
 730 1476 730 1476 838 1373 c 128,-1,20
 946 1270 946 1270 946 1085 c 0,21,22
 946 915 946 915 755 678 c 2,23,-1
 664 567 l 1,24,-1
 224 54 l 1,25,-1
 1024 54 l 1,26,-1
 1024 0 l 1,0,-1
EndSplineSet
Substitution2: "'numr' Numerators lookup 25 subtable" uni00B2
Substitution2: "'dnom' Denominators lookup 24 subtable" two.dnom
Substitution2: "'pnum' Proportional Numbers lookup 19 subtable" two.pnum
Substitution2: "'onum' Oldstyle Figures lookup 18 subtable" two.oldstyle
Substitution2: "'c2sc' Capitals to Small Capitals lookup 0 subtable" two.c2sc
Position2: "'cpsp' Capital Spacing lookup 0 subtable" dx=36 dy=0 dh=72 dv=0
EndChar

StartChar: three
Encoding: 51 51 23
Width: 1121
GlyphClass: 1
Flags: W
LayerCount: 2
Fore
SplineSet
417 770 m 1,0,-1
 539 770 l 2,1,2
 710 773 710 773 815.5 861 c 128,-1,3
 921 949 921 949 921 1085 c 0,4,5
 921 1240 921 1240 826.5 1331 c 128,-1,6
 732 1422 732 1422 564 1422 c 0,7,8
 400 1422 400 1422 294 1326 c 128,-1,9
 188 1230 188 1230 188 1074 c 1,10,-1
 134 1074 l 1,11,12
 134 1190 134 1190 190 1282 c 128,-1,13
 246 1374 246 1374 345 1425 c 128,-1,14
 444 1476 444 1476 564 1476 c 0,15,16
 753 1476 753 1476 864 1369.5 c 128,-1,17
 975 1263 975 1263 975 1081 c 0,18,19
 975 965 975 965 901.5 874 c 128,-1,20
 828 783 828 783 703 745 c 1,21,22
 846 712 846 712 926.5 621 c 128,-1,23
 1007 530 1007 530 1007 386 c 0,24,25
 1007 200 1007 200 888 90 c 128,-1,26
 769 -20 769 -20 573 -20 c 0,27,28
 441 -20 441 -20 329 37 c 128,-1,29
 217 94 217 94 160 188 c 128,-1,30
 103 282 103 282 103 405 c 1,31,-1
 157 405 l 1,32,33
 157 245 157 245 275 139.5 c 128,-1,34
 393 34 393 34 573 34 c 0,35,36
 752 34 752 34 852.5 126.5 c 128,-1,37
 953 219 953 219 953 382 c 0,38,39
 953 543 953 543 845.5 628 c 128,-1,40
 738 713 738 713 531 714 c 2,41,-1
 417 714 l 1,42,-1
 417 770 l 1,0,-1
EndSplineSet
Substitution2: "'numr' Numerators lookup 25 subtable" uni00B3
Substitution2: "'dnom' Denominators lookup 24 subtable" three.dnom
Substitution2: "'pnum' Proportional Numbers lookup 19 subtable" three.pnum
Substitution2: "'onum' Oldstyle Figures lookup 18 subtable" three.oldstyle
Substitution2: "'c2sc' Capitals to Small Capitals lookup 0 subtable" three.c2sc
Position2: "'cpsp' Capital Spacing lookup 0 subtable" dx=36 dy=0 dh=72 dv=0
EndChar

StartChar: four
Encoding: 52 52 24
Width: 1121
GlyphClass: 1
Flags: W
LayerCount: 2
Fore
SplineSet
842 451 m 1,0,-1
 1094 451 l 1,1,-1
 1094 397 l 1,2,-1
 842 397 l 1,3,-1
 842 0 l 1,4,-1
 788 0 l 1,5,-1
 788 397 l 1,6,-1
 82 397 l 1,7,-1
 82 427 l 1,8,-1
 777 1456 l 1,9,-1
 842 1456 l 1,10,-1
 842 451 l 1,0,-1
166 451 m 1,11,-1
 788 451 l 1,12,-1
 788 1391 l 1,13,-1
 704 1253 l 1,14,-1
 166 451 l 1,11,-1
EndSplineSet
Substitution2: "'numr' Numerators lookup 25 subtable" four.numr
Substitution2: "'dnom' Denominators lookup 24 subtable" four.dnom
Substitution2: "'pnum' Proportional Numbers lookup 19 subtable" four.pnum
Substitution2: "'onum' Oldstyle Figures lookup 18 subtable" four.oldstyle
Substitution2: "'c2sc' Capitals to Small Capitals lookup 0 subtable" four.c2sc
Position2: "'cpsp' Capital Spacing lookup 0 subtable" dx=36 dy=0 dh=72 dv=0
EndChar

StartChar: five
Encoding: 53 53 25
Width: 1121
GlyphClass: 1
Flags: W
LayerCount: 2
Fore
SplineSet
231 762 m 1,0,-1
 299 1456 l 1,1,-1
 1009 1456 l 1,2,-1
 1009 1403 l 1,3,-1
 348 1403 l 1,4,-1
 289 819 l 1,5,6
 341 862 341 862 426.5 889 c 128,-1,7
 512 916 512 916 594 916 c 0,8,9
 790 916 790 916 907 792 c 128,-1,10
 1024 668 1024 668 1024 464 c 0,11,12
 1024 227 1024 227 918 103.5 c 128,-1,13
 812 -20 812 -20 614 -20 c 0,14,15
 427 -20 427 -20 312 87 c 128,-1,16
 197 194 197 194 182 383 c 1,17,-1
 237 383 l 1,18,19
 253 212 253 212 349 123 c 128,-1,20
 445 34 445 34 614 34 c 0,21,22
 794 34 794 34 881.5 142.5 c 128,-1,23
 969 251 969 251 969 462 c 0,24,25
 969 644 969 644 867.5 753 c 128,-1,26
 766 862 766 862 595 862 c 0,27,28
 490 862 490 862 412 834 c 128,-1,29
 334 806 334 806 272 746 c 1,30,-1
 231 762 l 1,0,-1
EndSplineSet
Substitution2: "'numr' Numerators lookup 25 subtable" five.numr
Substitution2: "'dnom' Denominators lookup 24 subtable" five.dnom
Substitution2: "'pnum' Proportional Numbers lookup 19 subtable" five.pnum
Substitution2: "'onum' Oldstyle Figures lookup 18 subtable" five.oldstyle
Substitution2: "'c2sc' Capitals to Small Capitals lookup 0 subtable" five.c2sc
Position2: "'cpsp' Capital Spacing lookup 0 subtable" dx=36 dy=0 dh=72 dv=0
EndChar

StartChar: six
Encoding: 54 54 26
Width: 1121
GlyphClass: 1
Flags: W
LayerCount: 2
Fore
SplineSet
840 1476 m 1,0,-1
 840 1422 l 1,1,2
 534 1422 534 1422 365 1241 c 128,-1,3
 196 1060 196 1060 183 733 c 1,4,5
 241 836 241 836 351 896.5 c 128,-1,6
 461 957 461 957 592 957 c 0,7,8
 784 957 784 957 898.5 826 c 128,-1,9
 1013 695 1013 695 1013 480 c 0,10,11
 1013 341 1013 341 961 226 c 128,-1,12
 909 111 909 111 814 45.5 c 128,-1,13
 719 -20 719 -20 602 -20 c 0,14,15
 468 -20 468 -20 360 42 c 128,-1,16
 252 104 252 104 191 219 c 128,-1,17
 130 334 130 334 128 481 c 2,18,-1
 128 660 l 2,19,20
 128 1048 128 1048 311 1262 c 128,-1,21
 494 1476 494 1476 840 1476 c 1,0,-1
585 903 m 0,22,23
 445 903 445 903 328.5 822.5 c 128,-1,24
 212 742 212 742 182 621 c 1,25,-1
 182 493 l 2,26,27
 182 287 182 287 299 160 c 128,-1,28
 416 33 416 33 602 33 c 0,29,30
 757 33 757 33 858 162.5 c 128,-1,31
 959 292 959 292 959 480 c 0,32,33
 959 674 959 674 859 788.5 c 128,-1,34
 759 903 759 903 585 903 c 0,22,23
EndSplineSet
Substitution2: "'numr' Numerators lookup 25 subtable" six.numr
Substitution2: "'dnom' Denominators lookup 24 subtable" six.dnom
Substitution2: "'lnum' Lining Figures lookup 21 subtable" six.pnum
Substitution2: "'tnum' Tabular Numbers lookup 20 subtable" six.oldstyle
Substitution2: "'pnum' Proportional Numbers lookup 19 subtable" six.pnum
Substitution2: "'onum' Oldstyle Figures lookup 18 subtable" six.oldstyle
Substitution2: "'c2sc' Capitals to Small Capitals lookup 0 subtable" six.c2sc
Position2: "'cpsp' Capital Spacing lookup 0 subtable" dx=36 dy=0 dh=72 dv=0
EndChar

StartChar: seven
Encoding: 55 55 27
Width: 1121
GlyphClass: 1
Flags: W
LayerCount: 2
Fore
SplineSet
1007 1422 m 1,0,-1
 366 0 l 1,1,-1
 311 0 l 1,2,-1
 945 1402 l 1,3,-1
 77 1402 l 1,4,-1
 77 1456 l 1,5,-1
 1007 1456 l 1,6,-1
 1007 1422 l 1,0,-1
EndSplineSet
Substitution2: "'numr' Numerators lookup 25 subtable" seven.numr
Substitution2: "'dnom' Denominators lookup 24 subtable" seven.dnom
Substitution2: "'pnum' Proportional Numbers lookup 19 subtable" seven.pnum
Substitution2: "'onum' Oldstyle Figures lookup 18 subtable" seven.oldstyle
Substitution2: "'c2sc' Capitals to Small Capitals lookup 0 subtable" seven.c2sc
Position2: "'cpsp' Capital Spacing lookup 0 subtable" dx=36 dy=0 dh=72 dv=0
EndChar

StartChar: eight
Encoding: 56 56 28
Width: 1121
GlyphClass: 1
Flags: W
LayerCount: 2
Fore
SplineSet
986 1086 m 0,0,1
 986 964 986 964 910.5 872.5 c 128,-1,2
 835 781 835 781 715 745 c 1,3,4
 858 707 858 707 943 607 c 128,-1,5
 1028 507 1028 507 1028 379 c 0,6,7
 1028 194 1028 194 901.5 87 c 128,-1,8
 775 -20 775 -20 565 -20 c 0,9,10
 351 -20 351 -20 225.5 87 c 128,-1,11
 100 194 100 194 100 379 c 0,12,13
 100 508 100 508 182.5 607.5 c 128,-1,14
 265 707 265 707 408 745 c 1,15,16
 288 781 288 781 214.5 872.5 c 128,-1,17
 141 964 141 964 141 1086 c 0,18,19
 141 1266 141 1266 256.5 1371 c 128,-1,20
 372 1476 372 1476 561 1476 c 0,21,22
 751 1476 751 1476 868.5 1369 c 128,-1,23
 986 1262 986 1262 986 1086 c 0,0,1
973 374 m 0,24,25
 973 524 973 524 858 621 c 128,-1,26
 743 718 743 718 563 718 c 0,27,28
 382 718 382 718 268 621.5 c 128,-1,29
 154 525 154 525 154 374 c 0,30,31
 154 220 154 220 265.5 127 c 128,-1,32
 377 34 377 34 565 34 c 0,33,34
 749 34 749 34 861 127.5 c 128,-1,35
 973 221 973 221 973 374 c 0,24,25
932 1091 m 0,36,37
 932 1233 932 1233 825 1327.5 c 128,-1,38
 718 1422 718 1422 561 1422 c 0,39,40
 400 1422 400 1422 297.5 1331 c 128,-1,41
 195 1240 195 1240 195 1091 c 0,42,43
 195 949 195 949 297 860.5 c 128,-1,44
 399 772 399 772 563 772 c 0,45,46
 725 772 725 772 828.5 861.5 c 128,-1,47
 932 951 932 951 932 1091 c 0,36,37
EndSplineSet
Substitution2: "'numr' Numerators lookup 25 subtable" eight.numr
Substitution2: "'dnom' Denominators lookup 24 subtable" eight.dnom
Substitution2: "'lnum' Lining Figures lookup 21 subtable" eight.pnum
Substitution2: "'tnum' Tabular Numbers lookup 20 subtable" eight.oldstyle
Substitution2: "'pnum' Proportional Numbers lookup 19 subtable" eight.pnum
Substitution2: "'onum' Oldstyle Figures lookup 18 subtable" eight.oldstyle
Substitution2: "'c2sc' Capitals to Small Capitals lookup 0 subtable" eight.c2sc
Position2: "'cpsp' Capital Spacing lookup 0 subtable" dx=36 dy=0 dh=72 dv=0
EndChar

StartChar: nine
Encoding: 57 57 29
Width: 1121
GlyphClass: 1
Flags: W
LayerCount: 2
Fore
SplineSet
939 724 m 1,0,1
 886 609 886 609 774.5 538.5 c 128,-1,2
 663 468 663 468 523 468 c 0,3,4
 403 468 403 468 307 532.5 c 128,-1,5
 211 597 211 597 157 710 c 128,-1,6
 103 823 103 823 103 958 c 0,7,8
 103 1101 103 1101 158 1220.5 c 128,-1,9
 213 1340 213 1340 312 1408 c 128,-1,10
 411 1476 411 1476 531 1476 c 0,11,12
 756 1476 756 1476 874 1329.5 c 128,-1,13
 992 1183 992 1183 993 907 c 2,14,-1
 993 740 l 2,15,16
 993 371 993 371 829 177.5 c 128,-1,17
 665 -16 665 -16 346 -20 c 1,18,-1
 298 -20 l 1,19,-1
 300 34 l 1,20,-1
 343 34 l 2,21,22
 635 37 635 37 787 212 c 128,-1,23
 939 387 939 387 939 724 c 1,0,1
523 522 m 0,24,25
 671 522 671 522 785 609 c 128,-1,26
 899 696 899 696 939 840 c 1,27,-1
 939 902 l 2,28,29
 939 1155 939 1155 834.5 1288.5 c 128,-1,30
 730 1422 730 1422 535 1422 c 0,31,32
 428 1422 428 1422 341 1359 c 128,-1,33
 254 1296 254 1296 205.5 1187.5 c 128,-1,34
 157 1079 157 1079 157 958 c 0,35,36
 157 839 157 839 204 737.5 c 128,-1,37
 251 636 251 636 334 579 c 128,-1,38
 417 522 417 522 523 522 c 0,24,25
EndSplineSet
Substitution2: "'numr' Numerators lookup 25 subtable" nine.numr
Substitution2: "'dnom' Denominators lookup 24 subtable" nine.dnom
Substitution2: "'pnum' Proportional Numbers lookup 19 subtable" nine.pnum
Substitution2: "'onum' Oldstyle Figures lookup 18 subtable" nine.oldstyle
Substitution2: "'c2sc' Capitals to Small Capitals lookup 0 subtable" nine.c2sc
Position2: "'cpsp' Capital Spacing lookup 0 subtable" dx=36 dy=0 dh=72 dv=0
EndChar

StartChar: less
Encoding: 60 60 32
Width: 1229
GlyphClass: 1
Flags: HW
LayerCount: 2
Fore
SplineSet
1028 262 m 1,0,-1
 1028 321 l 1,1,-1
 285 645 l 1,2,-1
 236 666 l 1,3,-1
 284 687 l 1,4,-1
 1028 1011 l 1,5,-1
 1028 1069 l 1,6,-1
 162 691 l 1,7,-1
 162 641 l 1,8,-1
 1028 262 l 1,0,-1
EndSplineSet
EndChar

StartChar: equal
Encoding: 61 61 33
Width: 1229
GlyphClass: 1
Flags: HW
LayerCount: 2
Fore
SplineSet
1066 843 m 1,0,-1
 1066 897 l 1,1,-1
 175 897 l 1,2,-1
 175 843 l 1,3,-1
 1066 843 l 1,0,-1
1066 436 m 1,4,-1
 1066 490 l 1,5,-1
 175 490 l 1,6,-1
 175 436 l 1,7,-1
 1066 436 l 1,4,-1
EndSplineSet
EndChar

StartChar: greater
Encoding: 62 62 34
Width: 1229
GlyphClass: 1
Flags: HW
LayerCount: 2
Fore
SplineSet
188 265 m 1,0,-1
 1053 644 l 1,1,-1
 1053 694 l 1,2,-1
 188 1072 l 1,3,-1
 189 1013 l 1,4,-1
 903 699 l 1,5,-1
 973 668 l 1,6,-1
 904 638 l 1,7,-1
 189 324 l 1,8,-1
 188 265 l 1,0,-1
EndSplineSet
EndChar

StartChar: question
Encoding: 63 63 35
Width: 1229
GlyphClass: 1
Flags: HW
LayerCount: 2
Fore
SplineSet
569 400 m 1,0,-1
 624 400 l 1,1,2
 624 447 624 447 632.5 488 c 128,-1,3
 641 529 641 529 658 565 c 0,4,5
 675 602 675 602 701.5 635 c 128,-1,6
 728 668 728 668 764 698 c 0,7,8
 813 738 813 738 855.5 783 c 128,-1,9
 898 828 898 828 930 879 c 0,10,11
 961 929 961 929 979 986.5 c 128,-1,12
 997 1044 997 1044 997 1110 c 0,13,14
 997 1190 997 1190 970.5 1257 c 128,-1,15
 944 1324 944 1324 896 1373 c 256,16,17
 848 1422 848 1422 781.5 1449 c 128,-1,18
 715 1476 715 1476 635 1476 c 0,19,20
 554 1476 554 1476 485.5 1450 c 128,-1,21
 417 1424 417 1424 366 1377 c 0,22,23
 315 1329 315 1329 284.5 1263 c 128,-1,24
 254 1197 254 1197 249 1116 c 1,25,-1
 304 1116 l 1,26,27
 307 1186 307 1186 333 1243 c 128,-1,28
 359 1300 359 1300 403 1340 c 0,29,30
 446 1380 446 1380 505.5 1401.5 c 128,-1,31
 565 1423 565 1423 635 1423 c 0,32,33
 704 1423 704 1423 761 1400.5 c 128,-1,34
 818 1378 818 1378 858 1337 c 0,35,36
 898 1295 898 1295 920.5 1238 c 128,-1,37
 943 1181 943 1181 943 1112 c 0,38,39
 943 1050 943 1050 927.5 998.5 c 128,-1,40
 912 947 912 947 884 903 c 256,41,42
 856 859 856 859 818 819 c 128,-1,43
 780 779 780 779 737 740 c 0,44,45
 696 703 696 703 665.5 666 c 128,-1,46
 635 629 635 629 615 588 c 0,47,48
 594 547 594 547 583 501 c 128,-1,49
 572 455 572 455 569 400 c 1,0,-1
544 49 m 256,50,51
 544 26 544 26 561.5 10 c 128,-1,52
 579 -6 579 -6 601 -6 c 256,53,54
 623 -6 623 -6 641 10 c 128,-1,55
 659 26 659 26 659 49 c 256,56,57
 659 72 659 72 641 88.5 c 128,-1,58
 623 105 623 105 601 105 c 256,59,60
 579 105 579 105 561.5 88.5 c 128,-1,61
 544 72 544 72 544 49 c 256,50,51
EndSplineSet
EndChar

StartChar: at
Encoding: 64 64 36
Width: 1229
GlyphClass: 1
Flags: HW
LayerCount: 2
Fore
SplineSet
1172 762 m 0,0,1
 1175 896 1175 896 1157.5 1028.5 c 128,-1,2
 1140 1161 1140 1161 1084 1261 c 0,3,4
 1032 1356 1032 1356 938 1413 c 128,-1,5
 844 1470 844 1470 694 1470 c 0,6,7
 545 1470 545 1470 433.5 1413 c 128,-1,8
 322 1356 322 1356 240 1256 c 0,9,10
 153 1149 153 1149 106.5 995.5 c 128,-1,11
 60 842 60 842 55 677 c 0,12,13
 50 543 50 543 75.5 408 c 128,-1,14
 101 273 101 273 176 172 c 0,15,16
 239 87 239 87 349 36.5 c 128,-1,17
 459 -14 459 -14 625 -14 c 0,18,19
 660 -14 660 -14 700.5 -7.5 c 128,-1,20
 741 -1 741 -1 782 11 c 0,21,22
 822 23 822 23 859 39 c 128,-1,23
 896 55 896 55 924 75 c 1,24,-1
 902 121 l 1,25,26
 875 105 875 105 841.5 90.5 c 128,-1,27
 808 76 808 76 771 65 c 256,28,29
 734 54 734 54 697.5 47.5 c 128,-1,30
 661 41 661 41 628 41 c 0,31,32
 479 41 479 41 379 88.5 c 128,-1,33
 279 136 279 136 220 215 c 0,34,35
 151 307 151 307 127.5 432.5 c 128,-1,36
 104 558 104 558 109 677 c 0,37,38
 115 855 115 855 163 990 c 128,-1,39
 211 1125 211 1125 288 1216 c 0,40,41
 371 1314 371 1314 476 1363.5 c 128,-1,42
 581 1413 581 1413 691 1413 c 0,43,44
 811 1413 811 1413 894.5 1365 c 128,-1,45
 978 1317 978 1317 1029 1231 c 256,46,47
 1080 1145 1080 1145 1101 1025 c 128,-1,48
 1122 905 1122 905 1117 762 c 0,49,50
 1115 703 1115 703 1101.5 599 c 128,-1,51
 1088 495 1088 495 1046 420 c 0,52,53
 1024 382 1024 382 993.5 358 c 128,-1,54
 963 334 963 334 921 334 c 0,55,56
 876 334 876 334 852 361 c 128,-1,57
 828 388 828 388 818 426 c 0,58,59
 807 464 807 464 805 504.5 c 128,-1,60
 803 545 803 545 806 572 c 2,61,-1
 857 1077 l 1,62,63
 822 1115 822 1115 778 1141 c 128,-1,64
 734 1167 734 1167 683 1167 c 0,65,66
 599 1167 599 1167 537.5 1126.5 c 128,-1,67
 476 1086 476 1086 435 1019 c 256,68,69
 394 952 394 952 371 867 c 128,-1,70
 348 782 348 782 341 695 c 0,71,72
 338 652 338 652 339.5 585 c 128,-1,73
 341 518 341 518 361 435 c 0,74,75
 376 373 376 373 417.5 326 c 128,-1,76
 459 279 459 279 528 279 c 0,77,78
 567 279 567 279 601 297 c 128,-1,79
 635 315 635 315 663 345 c 0,80,81
 691 374 691 374 713.5 411.5 c 128,-1,82
 736 449 736 449 754 488 c 1,83,84
 757 451 757 451 767 414 c 128,-1,85
 777 377 777 377 796 347 c 256,86,87
 815 317 815 317 845 298 c 128,-1,88
 875 279 875 279 919 279 c 0,89,90
 971 279 971 279 1009.5 304.5 c 128,-1,91
 1048 330 1048 330 1076 372 c 0,92,93
 1130 454 1130 454 1150 571 c 128,-1,94
 1170 688 1170 688 1172 762 c 0,0,1
394 695 m 0,95,96
 401 761 401 761 420 842.5 c 128,-1,97
 439 924 439 924 477 989 c 0,98,99
 507 1041 507 1041 557 1076.5 c 128,-1,100
 607 1112 607 1112 680 1112 c 0,101,102
 720 1112 720 1112 749 1095.5 c 128,-1,103
 778 1079 778 1079 805 1052 c 1,104,-1
 760 642 l 1,105,-1
 759 633 l 1,106,107
 743 591 743 591 722.5 538.5 c 128,-1,108
 702 486 702 486 675 441 c 0,109,110
 647 395 647 395 610.5 364 c 128,-1,111
 574 333 574 333 526 333 c 0,112,113
 474 333 474 333 447 372 c 128,-1,114
 420 411 420 411 408 457 c 0,115,116
 394 509 394 509 392.5 586 c 128,-1,117
 391 663 391 663 394 695 c 0,95,96
EndSplineSet
EndChar

StartChar: A
Encoding: 65 65 37
Width: 1223
GlyphClass: 2
Flags: W
LayerCount: 2
Fore
SplineSet
967 435 m 1,0,-1
 254 435 l 1,1,-1
 92 0 l 1,2,-1
 33 0 l 1,3,-1
 578 1456 l 1,4,-1
 644 1456 l 1,5,-1
 1189 0 l 1,6,-1
 1130 0 l 1,7,-1
 967 435 l 1,0,-1
274 489 m 1,8,-1
 947 489 l 1,9,-1
 611 1391 l 1,10,-1
 274 489 l 1,8,-1
EndSplineSet
Substitution2: "'c2sc' Capitals to Small Capitals lookup 0 subtable" A.c2sc
Position2: "'cpsp' Capital Spacing lookup 0 subtable" dx=36 dy=0 dh=72 dv=0
EndChar

StartChar: B
Encoding: 66 66 38
Width: 1235
GlyphClass: 2
Flags: W
LayerCount: 2
Fore
SplineSet
200 0 m 1,0,-1
 200 1456 l 1,1,-1
 583 1456 l 2,2,3
 818 1456 818 1456 938.5 1360.5 c 128,-1,4
 1059 1265 1059 1265 1059 1083 c 0,5,6
 1059 951 1059 951 992 864 c 128,-1,7
 925 777 925 777 803 753 c 1,8,9
 941 735 941 735 1033 633.5 c 128,-1,10
 1125 532 1125 532 1125 401 c 0,11,12
 1125 215 1125 215 1004.5 107.5 c 128,-1,13
 884 0 884 0 669 0 c 2,14,-1
 200 0 l 1,0,-1
254 719 m 1,15,-1
 254 54 l 1,16,-1
 675 54 l 2,17,18
 860 54 860 54 965.5 145.5 c 128,-1,19
 1071 237 1071 237 1071 399 c 0,20,21
 1071 537 1071 537 969 626.5 c 128,-1,22
 867 716 867 716 696 719 c 2,23,-1
 254 719 l 1,15,-1
254 773 m 1,24,-1
 603 773 l 2,25,26
 802 773 802 773 903 849.5 c 128,-1,27
 1004 926 1004 926 1004 1087 c 0,28,29
 1004 1397 1004 1397 595 1402 c 1,30,-1
 254 1402 l 1,31,-1
 254 773 l 1,24,-1
EndSplineSet
Substitution2: "'c2sc' Capitals to Small Capitals lookup 0 subtable" B.c2sc
Position2: "'cpsp' Capital Spacing lookup 0 subtable" dx=36 dy=0 dh=72 dv=0
EndChar

StartChar: C
Encoding: 67 67 39
Width: 1327
GlyphClass: 2
Flags: W
LayerCount: 2
Fore
SplineSet
1190 446 m 1,0,1
 1169 221 1169 221 1035 100.5 c 128,-1,2
 901 -20 901 -20 671 -20 c 0,3,4
 516 -20 516 -20 396.5 58.5 c 128,-1,5
 277 137 277 137 211 281.5 c 128,-1,6
 145 426 145 426 144 612 c 2,7,-1
 144 837 l 2,8,9
 144 1023 144 1023 209 1169.5 c 128,-1,10
 274 1316 274 1316 394.5 1396 c 128,-1,11
 515 1476 515 1476 671 1476 c 0,12,13
 899 1476 899 1476 1034 1356 c 128,-1,14
 1169 1236 1169 1236 1190 1012 c 1,15,-1
 1136 1012 l 1,16,17
 1113 1213 1113 1213 996 1317.5 c 128,-1,18
 879 1422 879 1422 671 1422 c 0,19,20
 459 1422 459 1422 328.5 1262 c 128,-1,21
 198 1102 198 1102 198 833 c 2,22,-1
 198 619 l 2,23,24
 198 447 198 447 256 314.5 c 128,-1,25
 314 182 314 182 422.5 108 c 128,-1,26
 531 34 531 34 671 34 c 0,27,28
 880 34 880 34 997.5 137 c 128,-1,29
 1115 240 1115 240 1136 446 c 1,30,-1
 1190 446 l 1,0,1
EndSplineSet
Substitution2: "'ss06' Style Set 6 lookup 16 subtable" C.ss06
Substitution2: "'c2sc' Capitals to Small Capitals lookup 0 subtable" C.c2sc
Position2: "'cpsp' Capital Spacing lookup 0 subtable" dx=36 dy=0 dh=72 dv=0
EndChar

StartChar: D
Encoding: 68 68 40
Width: 1340
GlyphClass: 2
Flags: W
LayerCount: 2
Fore
SplineSet
200 0 m 1,0,-1
 200 1456 l 1,1,-1
 603 1456 l 2,2,3
 772 1456 772 1456 909 1376 c 128,-1,4
 1046 1296 1046 1296 1124 1151.5 c 128,-1,5
 1202 1007 1202 1007 1204 828 c 2,6,-1
 1204 639 l 2,7,8
 1204 457 1204 457 1127.5 311 c 128,-1,9
 1051 165 1051 165 914 83 c 128,-1,10
 777 1 777 1 608 0 c 2,11,-1
 200 0 l 1,0,-1
254 1402 m 1,12,-1
 254 54 l 1,13,-1
 603 54 l 2,14,15
 756 54 756 54 881.5 128.5 c 128,-1,16
 1007 203 1007 203 1078 336.5 c 128,-1,17
 1149 470 1149 470 1150 633 c 2,18,-1
 1150 820 l 2,19,20
 1150 983 1150 983 1080.5 1116 c 128,-1,21
 1011 1249 1011 1249 886.5 1324.5 c 128,-1,22
 762 1400 762 1400 611 1402 c 2,23,-1
 254 1402 l 1,12,-1
EndSplineSet
Substitution2: "'ss06' Style Set 6 lookup 16 subtable" D.ss06
Substitution2: "'c2sc' Capitals to Small Capitals lookup 0 subtable" D.c2sc
Position2: "'cpsp' Capital Spacing lookup 0 subtable" dx=36 dy=0 dh=72 dv=0
EndChar

StartChar: E
Encoding: 69 69 41
Width: 1166
GlyphClass: 2
Flags: W
LayerCount: 2
Fore
SplineSet
984 722 m 1,0,-1
 254 722 l 1,1,-1
 254 54 l 1,2,-1
 1086 54 l 1,3,-1
 1086 0 l 1,4,-1
 200 0 l 1,5,-1
 200 1456 l 1,6,-1
 1086 1456 l 1,7,-1
 1086 1402 l 1,8,-1
 254 1402 l 1,9,-1
 254 776 l 1,10,-1
 984 776 l 1,11,-1
 984 722 l 1,0,-1
EndSplineSet
Substitution2: "'c2sc' Capitals to Small Capitals lookup 0 subtable" E.c2sc
Position2: "'cpsp' Capital Spacing lookup 0 subtable" dx=36 dy=0 dh=72 dv=0
EndChar

StartChar: F
Encoding: 70 70 42
Width: 1172
GlyphClass: 2
Flags: W
LayerCount: 2
Fore
SplineSet
1000 716 m 1,0,-1
 254 716 l 1,1,-1
 254 0 l 1,2,-1
 200 0 l 1,3,-1
 200 1456 l 1,4,-1
 1102 1456 l 1,5,-1
 1102 1402 l 1,6,-1
 254 1402 l 1,7,-1
 254 772 l 1,8,-1
 1000 772 l 1,9,-1
 1000 716 l 1,0,-1
EndSplineSet
Substitution2: "'c2sc' Capitals to Small Capitals lookup 0 subtable" F.c2sc
Position2: "'cpsp' Capital Spacing lookup 0 subtable" dx=36 dy=0 dh=72 dv=0
EndChar

StartChar: G
Encoding: 71 71 43
Width: 1406
GlyphClass: 2
Flags: W
LayerCount: 2
Fore
SplineSet
1226 156 m 1,0,1
 1171 80 1171 80 1033 30 c 128,-1,2
 895 -20 895 -20 729 -20 c 0,3,4
 567 -20 567 -20 440 59 c 128,-1,5
 313 138 313 138 241.5 282 c 128,-1,6
 170 426 170 426 168 608 c 2,7,-1
 168 858 l 2,8,9
 168 1037 168 1037 237 1179 c 128,-1,10
 306 1321 306 1321 431 1398.5 c 128,-1,11
 556 1476 556 1476 712 1476 c 0,12,13
 929 1476 929 1476 1065.5 1365 c 128,-1,14
 1202 1254 1202 1254 1224 1062 c 1,15,-1
 1170 1062 l 1,16,17
 1143 1236 1143 1236 1025 1329 c 128,-1,18
 907 1422 907 1422 712 1422 c 0,19,20
 492 1422 492 1422 357 1265 c 128,-1,21
 222 1108 222 1108 222 852 c 2,22,-1
 222 620 l 2,23,24
 222 449 222 449 285.5 315 c 128,-1,25
 349 181 349 181 464.5 107.5 c 128,-1,26
 580 34 580 34 729 34 c 0,27,28
 875 34 875 34 1000 77 c 128,-1,29
 1125 120 1125 120 1172 181 c 1,30,-1
 1172 605 l 1,31,-1
 727 605 l 1,32,-1
 727 660 l 1,33,-1
 1226 660 l 1,34,-1
 1226 156 l 1,0,1
EndSplineSet
Substitution2: "'ss06' Style Set 6 lookup 16 subtable" G.ss06
Substitution2: "'c2sc' Capitals to Small Capitals lookup 0 subtable" G.c2sc
Position2: "'cpsp' Capital Spacing lookup 0 subtable" dx=36 dy=0 dh=72 dv=0
EndChar

StartChar: H
Encoding: 72 72 44
Width: 1438
GlyphClass: 2
Flags: W
LayerCount: 2
Fore
SplineSet
1238 0 m 1,0,-1
 1184 0 l 1,1,-1
 1184 722 l 1,2,-1
 254 722 l 1,3,-1
 254 0 l 1,4,-1
 200 0 l 1,5,-1
 200 1456 l 1,6,-1
 254 1456 l 1,7,-1
 254 776 l 1,8,-1
 1184 776 l 1,9,-1
 1184 1456 l 1,10,-1
 1238 1456 l 1,11,-1
 1238 0 l 1,0,-1
EndSplineSet
Substitution2: "'c2sc' Capitals to Small Capitals lookup 0 subtable" H.c2sc
Position2: "'cpsp' Capital Spacing lookup 0 subtable" dx=36 dy=0 dh=72 dv=0
EndChar

StartChar: I
Encoding: 73 73 45
Width: 534
GlyphClass: 2
Flags: W
LayerCount: 2
Fore
SplineSet
294 0 m 1,0,-1
 240 0 l 1,1,-1
 240 1456 l 1,2,-1
 294 1456 l 1,3,-1
 294 0 l 1,0,-1
EndSplineSet
Substitution2: "'c2sc' Capitals to Small Capitals lookup 0 subtable" I.c2sc
Position2: "'cpsp' Capital Spacing lookup 0 subtable" dx=36 dy=0 dh=72 dv=0
EndChar

StartChar: J
Encoding: 74 74 46
Width: 1125
GlyphClass: 2
Flags: W
LayerCount: 2
Fore
SplineSet
876 1456 m 1,0,-1
 930 1456 l 1,1,-1
 930 442 l 2,2,3
 930 231 930 231 815 105.5 c 128,-1,4
 700 -20 700 -20 510 -20 c 0,5,6
 306 -20 306 -20 198 89 c 128,-1,7
 90 198 90 198 90 401 c 1,8,-1
 144 401 l 1,9,10
 144 223 144 223 235.5 128.5 c 128,-1,11
 327 34 327 34 510 34 c 0,12,13
 670 34 670 34 771.5 141 c 128,-1,14
 873 248 873 248 876 432 c 2,15,-1
 876 1456 l 1,0,-1
EndSplineSet
Substitution2: "'c2sc' Capitals to Small Capitals lookup 0 subtable" J.c2sc
Position2: "'cpsp' Capital Spacing lookup 0 subtable" dx=36 dy=0 dh=72 dv=0
EndChar

StartChar: K
Encoding: 75 75 47
Width: 1300
GlyphClass: 2
Flags: W
LayerCount: 2
Fore
SplineSet
487 766 m 1,0,-1
 254 551 l 1,1,-1
 254 0 l 1,2,-1
 200 0 l 1,3,-1
 200 1456 l 1,4,-1
 254 1456 l 1,5,-1
 254 614 l 1,6,-1
 494 849 l 1,7,-1
 1098 1456 l 1,8,-1
 1176 1456 l 1,9,-1
 527 803 l 1,10,-1
 1226 0 l 1,11,-1
 1156 0 l 1,12,-1
 487 766 l 1,0,-1
EndSplineSet
Substitution2: "'ss05' Style Set 5 lookup 15 subtable" K.ss05
Substitution2: "'ss04' Style Set 4 lookup 14 subtable" K.ss04
Substitution2: "'c2sc' Capitals to Small Capitals lookup 0 subtable" K.c2sc
Position2: "'cpsp' Capital Spacing lookup 0 subtable" dx=36 dy=0 dh=72 dv=0
EndChar

StartChar: L
Encoding: 76 76 48
Width: 1057
GlyphClass: 2
Flags: W
LayerCount: 2
Fore
SplineSet
255 54 m 1,0,-1
 1002 54 l 1,1,-1
 1002 0 l 1,2,-1
 200 0 l 1,3,-1
 200 1456 l 1,4,-1
 255 1456 l 1,5,-1
 255 54 l 1,0,-1
EndSplineSet
Substitution2: "'c2sc' Capitals to Small Capitals lookup 0 subtable" L.c2sc
Position2: "'cpsp' Capital Spacing lookup 0 subtable" dx=36 dy=0 dh=72 dv=0
EndChar

StartChar: M
Encoding: 77 77 49
Width: 1756
GlyphClass: 2
Flags: W
LayerCount: 2
Fore
SplineSet
277 1456 m 1,0,-1
 876 79 l 1,1,-1
 1477 1456 l 1,2,-1
 1556 1456 l 1,3,-1
 1556 0 l 1,4,-1
 1502 0 l 1,5,-1
 1502 1376 l 1,6,-1
 898 0 l 1,7,-1
 855 0 l 1,8,-1
 254 1369 l 1,9,-1
 254 0 l 1,10,-1
 200 0 l 1,11,-1
 200 1456 l 1,12,-1
 277 1456 l 1,0,-1
EndSplineSet
Substitution2: "'c2sc' Capitals to Small Capitals lookup 0 subtable" M.c2sc
Position2: "'cpsp' Capital Spacing lookup 0 subtable" dx=36 dy=0 dh=72 dv=0
EndChar

StartChar: N
Encoding: 78 78 50
Width: 1449
GlyphClass: 2
Flags: W
LayerCount: 2
Fore
SplineSet
1249 0 m 1,0,-1
 1195 0 l 1,1,-1
 255 1364 l 1,2,-1
 255 0 l 1,3,-1
 200 0 l 1,4,-1
 200 1456 l 1,5,-1
 255 1456 l 1,6,-1
 1195 95 l 1,7,-1
 1195 1456 l 1,8,-1
 1249 1456 l 1,9,-1
 1249 0 l 1,0,-1
EndSplineSet
Substitution2: "'c2sc' Capitals to Small Capitals lookup 0 subtable" N.c2sc
Position2: "'cpsp' Capital Spacing lookup 0 subtable" dx=36 dy=0 dh=72 dv=0
EndChar

StartChar: O
Encoding: 79 79 51
Width: 1364
GlyphClass: 2
Flags: W
LayerCount: 2
Fore
SplineSet
1231 619 m 2,0,1
 1231 430 1231 430 1163.5 284.5 c 128,-1,2
 1096 139 1096 139 971 59.5 c 128,-1,3
 846 -20 846 -20 683 -20 c 0,4,5
 437 -20 437 -20 285 155 c 128,-1,6
 133 330 133 330 133 627 c 2,7,-1
 133 837 l 2,8,9
 133 1025 133 1025 200.5 1171 c 128,-1,10
 268 1317 268 1317 393.5 1396.5 c 128,-1,11
 519 1476 519 1476 681 1476 c 0,12,13
 844 1476 844 1476 969.5 1396.5 c 128,-1,14
 1095 1317 1095 1317 1163 1170.5 c 128,-1,15
 1231 1024 1231 1024 1231 837 c 2,16,-1
 1231 619 l 2,0,1
1177 839 m 2,17,18
 1177 1103 1177 1103 1043 1262.5 c 128,-1,19
 909 1422 909 1422 681 1422 c 0,20,21
 456 1422 456 1422 322 1263.5 c 128,-1,22
 188 1105 188 1105 188 832 c 2,23,-1
 188 619 l 2,24,25
 188 445 188 445 248.5 311.5 c 128,-1,26
 309 178 309 178 421 106 c 128,-1,27
 533 34 533 34 683 34 c 0,28,29
 911 34 911 34 1044 193 c 128,-1,30
 1177 352 1177 352 1177 627 c 2,31,-1
 1177 839 l 2,17,18
EndSplineSet
Substitution2: "'ss06' Style Set 6 lookup 16 subtable" O.ss06
Substitution2: "'c2sc' Capitals to Small Capitals lookup 0 subtable" O.c2sc
Position2: "'cpsp' Capital Spacing lookup 0 subtable" dx=36 dy=0 dh=72 dv=0
EndChar

StartChar: P
Encoding: 80 80 52
Width: 1230
GlyphClass: 2
Flags: W
LayerCount: 2
Fore
SplineSet
254 615 m 1,0,-1
 254 0 l 1,1,-1
 200 0 l 1,2,-1
 200 1456 l 1,3,-1
 655 1456 l 2,4,5
 878 1456 878 1456 1001.5 1343.5 c 128,-1,6
 1125 1231 1125 1231 1125 1031 c 0,7,8
 1125 833 1125 833 1004.5 725 c 128,-1,9
 884 617 884 617 662 615 c 2,10,-1
 254 615 l 1,0,-1
254 669 m 1,11,-1
 655 669 l 2,12,13
 852 669 852 669 961.5 764 c 128,-1,14
 1071 859 1071 859 1071 1029 c 0,15,16
 1071 1205 1071 1205 961.5 1303.5 c 128,-1,17
 852 1402 852 1402 655 1402 c 2,18,-1
 254 1402 l 1,19,-1
 254 669 l 1,11,-1
EndSplineSet
Substitution2: "'c2sc' Capitals to Small Capitals lookup 0 subtable" P.c2sc
Position2: "'cpsp' Capital Spacing lookup 0 subtable" dx=36 dy=0 dh=72 dv=0
EndChar

StartChar: Q
Encoding: 81 81 53
Width: 1364
GlyphClass: 2
Flags: W
LayerCount: 2
Fore
SplineSet
1231 619 m 2,0,1
 1231 415 1231 415 1151.5 261 c 128,-1,2
 1072 107 1072 107 924 33 c 1,3,-1
 1191 -228 l 1,4,-1
 1152 -263 l 1,5,-1
 868 10 l 1,6,7
 778 -20 778 -20 683 -20 c 0,8,9
 437 -20 437 -20 285 155 c 128,-1,10
 133 330 133 330 133 627 c 2,11,-1
 133 837 l 2,12,13
 133 1025 133 1025 200.5 1171 c 128,-1,14
 268 1317 268 1317 393.5 1396.5 c 128,-1,15
 519 1476 519 1476 681 1476 c 0,16,17
 844 1476 844 1476 969.5 1396.5 c 128,-1,18
 1095 1317 1095 1317 1163 1170.5 c 128,-1,19
 1231 1024 1231 1024 1231 837 c 2,20,-1
 1231 619 l 2,0,1
1177 839 m 2,21,22
 1177 1103 1177 1103 1043 1262.5 c 128,-1,23
 909 1422 909 1422 681 1422 c 0,24,25
 456 1422 456 1422 322 1263.5 c 128,-1,26
 188 1105 188 1105 188 832 c 2,27,-1
 188 619 l 2,28,29
 188 445 188 445 248.5 311.5 c 128,-1,30
 309 178 309 178 421 106 c 128,-1,31
 533 34 533 34 683 34 c 0,32,33
 911 34 911 34 1044 193 c 128,-1,34
 1177 352 1177 352 1177 627 c 2,35,-1
 1177 839 l 2,21,22
EndSplineSet
Substitution2: "'ss06' Style Set 6 lookup 16 subtable" Q.ss06
Substitution2: "'c2sc' Capitals to Small Capitals lookup 0 subtable" Q.c2sc
Position2: "'cpsp' Capital Spacing lookup 0 subtable" dx=36 dy=0 dh=72 dv=0
EndChar

StartChar: R
Encoding: 82 82 54
Width: 1340
GlyphClass: 2
Flags: W
LayerCount: 2
Fore
SplineSet
754 623 m 1,0,-1
 249 623 l 1,1,-1
 249 0 l 1,2,-1
 195 0 l 1,3,-1
 195 1456 l 1,4,-1
 659 1456 l 2,5,6
 878 1456 878 1456 1007.5 1343 c 128,-1,7
 1137 1230 1137 1230 1137 1036 c 0,8,9
 1137 887 1137 887 1044.5 775.5 c 128,-1,10
 952 664 952 664 809 637 c 1,11,-1
 1198 14 l 1,12,-1
 1198 0 l 1,13,-1
 1141 0 l 1,14,-1
 754 623 l 1,0,-1
249 677 m 1,15,-1
 708 677 l 2,16,17
 876 677 876 677 979.5 779 c 128,-1,18
 1083 881 1083 881 1083 1036 c 0,19,20
 1083 1206 1083 1206 968.5 1304 c 128,-1,21
 854 1402 854 1402 655 1402 c 2,22,-1
 249 1402 l 1,23,-1
 249 677 l 1,15,-1
EndSplineSet
Substitution2: "'ss03' Style Set 3 lookup 13 subtable" R.ss03
Substitution2: "'c2sc' Capitals to Small Capitals lookup 0 subtable" R.c2sc
Position2: "'cpsp' Capital Spacing lookup 0 subtable" dx=36 dy=0 dh=72 dv=0
EndChar

StartChar: S
Encoding: 83 83 55
Width: 1211
GlyphClass: 2
Flags: W
LayerCount: 2
Fore
SplineSet
1072 349 m 0,0,1
 1072 442 1072 442 1028.5 506.5 c 128,-1,2
 985 571 985 571 891.5 620.5 c 128,-1,3
 798 670 798 670 609 722 c 128,-1,4
 420 774 420 774 325.5 827 c 128,-1,5
 231 880 231 880 187 950 c 128,-1,6
 143 1020 143 1020 143 1120 c 0,7,8
 143 1279 143 1279 277 1377.5 c 128,-1,9
 411 1476 411 1476 626 1476 c 0,10,11
 766 1476 766 1476 877.5 1421.5 c 128,-1,12
 989 1367 989 1367 1050 1268.5 c 128,-1,13
 1111 1170 1111 1170 1111 1046 c 1,14,-1
 1057 1046 l 1,15,16
 1057 1209 1057 1209 937 1315.5 c 128,-1,17
 817 1422 817 1422 626 1422 c 0,18,19
 434 1422 434 1422 315.5 1336.5 c 128,-1,20
 197 1251 197 1251 197 1122 c 0,21,22
 197 991 197 991 300 911 c 128,-1,23
 403 831 403 831 640 769.5 c 128,-1,24
 877 708 877 708 987 627 c 0,25,26
 1127 524 1127 524 1127 351 c 0,27,28
 1127 241 1127 241 1065 156.5 c 128,-1,29
 1003 72 1003 72 889 26 c 128,-1,30
 775 -20 775 -20 633 -20 c 0,31,32
 475 -20 475 -20 349 32.5 c 128,-1,33
 223 85 223 85 159.5 182 c 128,-1,34
 96 279 96 279 96 411 c 1,35,-1
 150 411 l 1,36,37
 150 232 150 232 284 133 c 128,-1,38
 418 34 418 34 633 34 c 0,39,40
 824 34 824 34 948 121.5 c 128,-1,41
 1072 209 1072 209 1072 349 c 0,0,1
EndSplineSet
Substitution2: "'c2sc' Capitals to Small Capitals lookup 0 subtable" S.c2sc
Position2: "'cpsp' Capital Spacing lookup 0 subtable" dx=36 dy=0 dh=72 dv=0
EndChar

StartChar: T
Encoding: 84 84 56
Width: 1224
GlyphClass: 2
Flags: W
LayerCount: 2
Fore
SplineSet
1169 1402 m 1,0,-1
 639 1402 l 1,1,-1
 639 0 l 1,2,-1
 585 0 l 1,3,-1
 585 1402 l 1,4,-1
 55 1402 l 1,5,-1
 55 1456 l 1,6,-1
 1169 1456 l 1,7,-1
 1169 1402 l 1,0,-1
EndSplineSet
Substitution2: "'c2sc' Capitals to Small Capitals lookup 0 subtable" T.c2sc
Position2: "'cpsp' Capital Spacing lookup 0 subtable" dx=36 dy=0 dh=72 dv=0
EndChar

StartChar: U
Encoding: 85 85 57
Width: 1365
GlyphClass: 2
Flags: W
LayerCount: 2
Fore
SplineSet
1180 1456 m 1,0,-1
 1180 470 l 2,1,2
 1180 239 1180 239 1046 109.5 c 128,-1,3
 912 -20 912 -20 683 -20 c 128,-1,4
 454 -20 454 -20 320 109.5 c 128,-1,5
 186 239 186 239 185 466 c 2,6,-1
 185 1456 l 1,7,-1
 239 1456 l 1,8,-1
 239 472 l 2,9,10
 239 270 239 270 360.5 152 c 128,-1,11
 482 34 482 34 683 34 c 128,-1,12
 884 34 884 34 1005 152 c 128,-1,13
 1126 270 1126 270 1126 473 c 2,14,-1
 1126 1456 l 1,15,-1
 1180 1456 l 1,0,-1
EndSplineSet
Substitution2: "'c2sc' Capitals to Small Capitals lookup 0 subtable" U.c2sc
Position2: "'cpsp' Capital Spacing lookup 0 subtable" dx=36 dy=0 dh=72 dv=0
EndChar

StartChar: V
Encoding: 86 86 58
Width: 1223
GlyphClass: 2
Flags: W
LayerCount: 2
Fore
SplineSet
583 142 m 1,0,-1
 612 54 l 1,1,-1
 641 142 l 1,2,-1
 1130 1456 l 1,3,-1
 1189 1456 l 1,4,-1
 645 0 l 1,5,-1
 579 0 l 1,6,-1
 35 1456 l 1,7,-1
 94 1456 l 1,8,-1
 583 142 l 1,0,-1
EndSplineSet
Substitution2: "'c2sc' Capitals to Small Capitals lookup 0 subtable" V.c2sc
Position2: "'cpsp' Capital Spacing lookup 0 subtable" dx=36 dy=0 dh=72 dv=0
EndChar

StartChar: W
Encoding: 87 87 59
Width: 1855
GlyphClass: 2
Flags: W
LayerCount: 2
Fore
SplineSet
489 90 m 1,0,-1
 555 330 l 1,1,-1
 899 1456 l 1,2,-1
 959 1456 l 1,3,-1
 1301 330 l 1,4,-1
 1366 90 l 1,5,-1
 1434 330 l 1,6,-1
 1734 1456 l 1,7,-1
 1793 1456 l 1,8,-1
 1401 0 l 1,9,-1
 1340 0 l 1,10,-1
 979 1214 l 1,11,-1
 928 1368 l 1,12,-1
 879 1214 l 1,13,-1
 515 0 l 1,14,-1
 454 0 l 1,15,-1
 61 1456 l 1,16,-1
 121 1456 l 1,17,-1
 423 330 l 1,18,-1
 489 90 l 1,0,-1
EndSplineSet
Substitution2: "'c2sc' Capitals to Small Capitals lookup 0 subtable" W.c2sc
Position2: "'cpsp' Capital Spacing lookup 0 subtable" dx=36 dy=0 dh=72 dv=0
EndChar

StartChar: X
Encoding: 88 88 60
Width: 1223
GlyphClass: 2
Flags: W
LayerCount: 2
Fore
SplineSet
611 785 m 1,0,-1
 1081 1456 l 1,1,-1
 1149 1456 l 1,2,-1
 645 743 l 1,3,-1
 1168 0 l 1,4,-1
 1101 0 l 1,5,-1
 611 701 l 1,6,-1
 119 0 l 1,7,-1
 54 0 l 1,8,-1
 577 743 l 1,9,-1
 73 1456 l 1,10,-1
 141 1456 l 1,11,-1
 611 785 l 1,0,-1
EndSplineSet
Substitution2: "'c2sc' Capitals to Small Capitals lookup 0 subtable" X.c2sc
Position2: "'cpsp' Capital Spacing lookup 0 subtable" dx=36 dy=0 dh=72 dv=0
EndChar

StartChar: Y
Encoding: 89 89 61
Width: 1223
GlyphClass: 2
Flags: W
LayerCount: 2
Fore
SplineSet
609 602 m 1,0,-1
 1119 1456 l 1,1,-1
 1185 1456 l 1,2,-1
 636 553 l 1,3,-1
 636 0 l 1,4,-1
 582 0 l 1,5,-1
 582 553 l 1,6,-1
 33 1456 l 1,7,-1
 105 1456 l 1,8,-1
 609 602 l 1,0,-1
EndSplineSet
Substitution2: "'c2sc' Capitals to Small Capitals lookup 0 subtable" Y.c2sc
Position2: "'cpsp' Capital Spacing lookup 0 subtable" dx=36 dy=0 dh=72 dv=0
EndChar

StartChar: Z
Encoding: 90 90 62
Width: 1224
GlyphClass: 2
Flags: W
LayerCount: 2
Fore
SplineSet
168 54 m 1,0,-1
 1130 54 l 1,1,-1
 1130 0 l 1,2,-1
 94 0 l 1,3,-1
 94 44 l 1,4,-1
 1023 1403 l 1,5,-1
 134 1403 l 1,6,-1
 134 1456 l 1,7,-1
 1098 1456 l 1,8,-1
 1098 1418 l 1,9,-1
 168 54 l 1,0,-1
EndSplineSet
Substitution2: "'c2sc' Capitals to Small Capitals lookup 0 subtable" Z.c2sc
Position2: "'cpsp' Capital Spacing lookup 0 subtable" dx=36 dy=0 dh=72 dv=0
EndChar

StartChar: bracketleft
Encoding: 91 91 63
Width: 1229
GlyphClass: 1
Flags: HW
LayerCount: 2
Fore
SplineSet
774 1610 m 1,0,-1
 774 1664 l 1,1,-1
 478 1664 l 1,2,-1
 478 -312 l 1,3,-1
 774 -312 l 1,4,-1
 774 -258 l 1,5,-1
 533 -258 l 1,6,-1
 533 1610 l 1,7,-1
 774 1610 l 1,0,-1
EndSplineSet
EndChar

StartChar: backslash
Encoding: 92 92 64
Width: 1229
GlyphClass: 1
Flags: HW
LayerCount: 2
Fore
SplineSet
282 1456 m 1,0,-1
 890 -125 l 1,1,-1
 948 -125 l 1,2,-1
 340 1456 l 1,3,-1
 282 1456 l 1,0,-1
EndSplineSet
EndChar

StartChar: bracketright
Encoding: 93 93 65
Width: 1229
GlyphClass: 1
Flags: HW
LayerCount: 2
Fore
SplineSet
455 1664 m 1,0,-1
 455 1610 l 1,1,-1
 694 1610 l 1,2,-1
 694 -258 l 1,3,-1
 455 -258 l 1,4,-1
 455 -312 l 1,5,-1
 750 -312 l 1,6,-1
 750 1664 l 1,7,-1
 455 1664 l 1,0,-1
EndSplineSet
EndChar

StartChar: asciicircum
Encoding: 94 94 66
Width: 1229
GlyphClass: 1
Flags: HW
LayerCount: 2
Fore
SplineSet
260 659 m 1,0,-1
 319 659 l 1,1,-1
 580 1298 l 1,2,-1
 615 1382 l 1,3,-1
 648 1299 l 1,4,-1
 909 659 l 1,5,-1
 970 659 l 1,6,-1
 641 1456 l 1,7,-1
 589 1456 l 1,8,-1
 260 659 l 1,0,-1
EndSplineSet
EndChar

StartChar: underscore
Encoding: 95 95 67
Width: 1229
GlyphClass: 1
Flags: HW
LayerCount: 2
Fore
SplineSet
1037 -54 m 1,0,-1
 1037 0 l 1,1,-1
 191 0 l 1,2,-1
 191 -54 l 1,3,-1
 1037 -54 l 1,0,-1
EndSplineSet
EndChar

StartChar: grave
Encoding: 96 96 68
Width: 1229
GlyphClass: 1
Flags: HW
LayerCount: 2
Fore
SplineSet
737 1250 m 1,0,-1
 557 1516 l 1,1,-1
 492 1516 l 1,2,-1
 679 1250 l 1,3,-1
 737 1250 l 1,0,-1
EndSplineSet
EndChar

StartChar: a
Encoding: 97 97 69
Width: 1081
GlyphClass: 2
Flags: W
LayerCount: 2
Fore
SplineSet
871 0 m 1,0,1
 851 69 851 69 851 198 c 1,2,3
 787 94 787 94 676 37 c 128,-1,4
 565 -20 565 -20 425 -20 c 0,5,6
 275 -20 275 -20 183.5 61.5 c 128,-1,7
 92 143 92 143 92 274 c 0,8,9
 92 423 92 423 226.5 512.5 c 128,-1,10
 361 602 361 602 584 604 c 2,11,-1
 851 604 l 1,12,-1
 851 762 l 2,13,14
 851 898 851 898 765.5 973 c 128,-1,15
 680 1048 680 1048 521 1048 c 0,16,17
 373 1048 373 1048 274 972 c 128,-1,18
 175 896 175 896 175 784 c 1,19,-1
 121 786 l 1,20,21
 121 918 121 918 237 1010 c 128,-1,22
 353 1102 353 1102 521 1102 c 0,23,24
 696 1102 696 1102 799 1014.5 c 128,-1,25
 902 927 902 927 905 768 c 2,26,-1
 905 251 l 2,27,28
 905 73 905 73 933 9 c 1,29,-1
 933 0 l 1,30,-1
 871 0 l 1,0,1
425 33 m 0,31,32
 577 33 577 33 686.5 101 c 128,-1,33
 796 169 796 169 851 292 c 1,34,-1
 851 549 l 1,35,-1
 601 549 l 2,36,37
 369 549 369 549 246 457 c 0,38,39
 146 382 146 382 146 270 c 0,40,41
 146 171 146 171 225 102 c 128,-1,42
 304 33 304 33 425 33 c 0,31,32
EndSplineSet
Substitution2: "'smcp' Lowercase to Small Capitals lookup 1 subtable" A.c2sc
EndChar

StartChar: b
Encoding: 98 98 70
Width: 1121
GlyphClass: 2
Flags: W
LayerCount: 2
Fore
SplineSet
999 531 m 2,0,1
 999 278 999 278 890 129 c 128,-1,2
 781 -20 781 -20 593 -20 c 0,3,4
 471 -20 471 -20 375 30.5 c 128,-1,5
 279 81 279 81 224 171 c 1,6,-1
 224 0 l 1,7,-1
 170 0 l 1,8,-1
 170 1536 l 1,9,-1
 224 1536 l 1,10,-1
 224 885 l 1,11,12
 281 992 281 992 374.5 1047 c 128,-1,13
 468 1102 468 1102 591 1102 c 0,14,15
 781 1102 781 1102 890 956.5 c 128,-1,16
 999 811 999 811 999 548 c 2,17,-1
 999 531 l 2,0,1
943 552 m 0,18,19
 943 785 943 785 850.5 916.5 c 128,-1,20
 758 1048 758 1048 592 1048 c 0,21,22
 456 1048 456 1048 361.5 978 c 128,-1,23
 267 908 267 908 224 770 c 1,24,-1
 224 274 l 1,25,26
 267 159 267 159 361.5 96.5 c 128,-1,27
 456 34 456 34 594 34 c 0,28,29
 761 34 761 34 852 167 c 128,-1,30
 943 300 943 300 943 552 c 0,18,19
EndSplineSet
Substitution2: "'ss06' Style Set 6 lookup 16 subtable" b.ss06
Substitution2: "'smcp' Lowercase to Small Capitals lookup 1 subtable" B.c2sc
EndChar

StartChar: c
Encoding: 99 99 71
Width: 1039
GlyphClass: 2
Flags: W
LayerCount: 2
Fore
SplineSet
539 34 m 0,0,1
 686 34 686 34 781.5 112 c 128,-1,2
 877 190 877 190 886 328 c 1,3,-1
 940 328 l 1,4,5
 932 171 932 171 819 75.5 c 128,-1,6
 706 -20 706 -20 539 -20 c 0,7,8
 336 -20 336 -20 216.5 127 c 128,-1,9
 97 274 97 274 97 526 c 2,10,-1
 97 562 l 2,11,12
 97 808 97 808 216.5 955 c 128,-1,13
 336 1102 336 1102 537 1102 c 0,14,15
 709 1102 709 1102 821 999 c 128,-1,16
 933 896 933 896 940 725 c 1,17,-1
 886 725 l 1,18,19
 879 871 879 871 783.5 959.5 c 128,-1,20
 688 1048 688 1048 537 1048 c 0,21,22
 356 1048 356 1048 253.5 917.5 c 128,-1,23
 151 787 151 787 151 555 c 2,24,-1
 151 520 l 2,25,26
 151 293 151 293 254.5 163.5 c 128,-1,27
 358 34 358 34 539 34 c 0,0,1
EndSplineSet
Substitution2: "'ss06' Style Set 6 lookup 16 subtable" c.ss06
Substitution2: "'smcp' Lowercase to Small Capitals lookup 1 subtable" C.c2sc
EndChar

StartChar: d
Encoding: 100 100 72
Width: 1121
GlyphClass: 2
Flags: W
LayerCount: 2
Fore
SplineSet
122 552 m 2,0,1
 122 811 122 811 231 956.5 c 128,-1,2
 340 1102 340 1102 530 1102 c 0,3,4
 652 1102 652 1102 745.5 1047 c 128,-1,5
 839 992 839 992 897 883 c 1,6,-1
 897 1536 l 1,7,-1
 951 1536 l 1,8,-1
 951 0 l 1,9,-1
 897 0 l 1,10,-1
 897 173 l 1,11,12
 842 81 842 81 746 30.5 c 128,-1,13
 650 -20 650 -20 528 -20 c 0,14,15
 340 -20 340 -20 231 129 c 128,-1,16
 122 278 122 278 122 538 c 2,17,-1
 122 552 l 2,0,1
178 531 m 0,18,19
 178 301 178 301 269 167.5 c 128,-1,20
 360 34 360 34 527 34 c 0,21,22
 661 34 661 34 756 93.5 c 128,-1,23
 851 153 851 153 897 268 c 1,24,-1
 897 775 l 1,25,26
 804 1048 804 1048 529 1048 c 0,27,28
 363 1048 363 1048 270.5 917 c 128,-1,29
 178 786 178 786 178 531 c 0,18,19
EndSplineSet
Substitution2: "'ss06' Style Set 6 lookup 16 subtable" d.ss06
Substitution2: "'smcp' Lowercase to Small Capitals lookup 1 subtable" D.c2sc
EndChar

StartChar: e
Encoding: 101 101 73
Width: 1032
GlyphClass: 2
Flags: W
LayerCount: 2
Fore
SplineSet
561 -20 m 0,0,1
 430 -20 430 -20 320.5 50.5 c 128,-1,2
 211 121 211 121 149 244 c 128,-1,3
 87 367 87 367 87 517 c 2,4,-1
 87 562 l 2,5,6
 87 712 87 712 147 837 c 128,-1,7
 207 962 207 962 312 1032 c 128,-1,8
 417 1102 417 1102 541 1102 c 0,9,10
 722 1102 722 1102 837 973 c 128,-1,11
 952 844 952 844 952 634 c 2,12,-1
 952 577 l 1,13,-1
 141 577 l 1,14,-1
 141 518 l 2,15,16
 141 386 141 386 196.5 273.5 c 128,-1,17
 252 161 252 161 349.5 97 c 128,-1,18
 447 33 447 33 561 33 c 0,19,20
 670 33 670 33 746.5 69.5 c 128,-1,21
 823 106 823 106 882 182 c 1,22,-1
 920 155 l 1,23,24
 799 -20 799 -20 561 -20 c 0,0,1
541 1048 m 0,25,26
 383 1048 383 1048 273 930.5 c 128,-1,27
 163 813 163 813 144 631 c 1,28,-1
 898 631 l 1,29,-1
 898 644 l 2,30,31
 898 754 898 754 851.5 848.5 c 128,-1,32
 805 943 805 943 723.5 995.5 c 128,-1,33
 642 1048 642 1048 541 1048 c 0,25,26
EndSplineSet
Substitution2: "'ss07' Style Set 7 lookup 17 subtable" e.ss07
Substitution2: "'smcp' Lowercase to Small Capitals lookup 1 subtable" E.c2sc
EndChar

StartChar: f
Encoding: 102 102 74
Width: 645
GlyphClass: 2
Flags: W
LayerCount: 2
Fore
SplineSet
254 0 m 1,0,-1
 254 1027 l 1,1,-1
 66 1027 l 1,2,-1
 66 1082 l 1,3,-1
 254 1082 l 1,4,-1
 254 1240 l 2,5,6
 255 1390 255 1390 329.5 1473.5 c 128,-1,7
 404 1557 404 1557 537 1557 c 0,8,9
 611 1557 611 1557 665 1540 c 1,10,-1
 657 1488 l 1,11,12
 605 1503 605 1503 538 1503 c 0,13,14
 431 1503 431 1503 369.5 1433.5 c 128,-1,15
 308 1364 308 1364 308 1236 c 2,16,-1
 308 1082 l 1,17,-1
 594 1082 l 1,18,-1
 594 1027 l 1,19,-1
 308 1027 l 1,20,-1
 308 0 l 1,21,-1
 254 0 l 1,0,-1
EndSplineSet
Substitution2: "'smcp' Lowercase to Small Capitals lookup 1 subtable" F.c2sc
EndChar

StartChar: g
Encoding: 103 103 75
Width: 1123
GlyphClass: 2
Flags: W
LayerCount: 2
Fore
SplineSet
121 552 m 2,0,1
 121 811 121 811 230 956.5 c 128,-1,2
 339 1102 339 1102 529 1102 c 0,3,4
 650 1102 650 1102 744 1046.5 c 128,-1,5
 838 991 838 991 895 884 c 1,6,-1
 895 1082 l 1,7,-1
 950 1082 l 1,8,-1
 950 19 l 2,9,10
 950 -195 950 -195 840 -315.5 c 128,-1,11
 730 -436 730 -436 541 -436 c 0,12,13
 432 -436 432 -436 341.5 -389 c 128,-1,14
 251 -342 251 -342 187 -254 c 1,15,-1
 225 -218 l 1,16,17
 288 -298 288 -298 363 -340.5 c 128,-1,18
 438 -383 438 -383 539 -383 c 0,19,20
 706 -383 706 -383 799 -281.5 c 128,-1,21
 892 -180 892 -180 895 5 c 2,22,-1
 895 171 l 1,23,24
 839 79 839 79 743.5 29.5 c 128,-1,25
 648 -20 648 -20 527 -20 c 0,26,27
 339 -20 339 -20 230 129 c 128,-1,28
 121 278 121 278 121 538 c 2,29,-1
 121 552 l 2,0,1
176 531 m 0,30,31
 176 299 176 299 268 166.5 c 128,-1,32
 360 34 360 34 526 34 c 0,33,34
 663 34 663 34 759 97.5 c 128,-1,35
 855 161 855 161 895 276 c 1,36,-1
 895 767 l 1,37,38
 807 1048 807 1048 528 1048 c 0,39,40
 361 1048 361 1048 268.5 917 c 128,-1,41
 176 786 176 786 176 531 c 0,30,31
EndSplineSet
Substitution2: "'ss07' Style Set 7 lookup 17 subtable" g.ss07
Substitution2: "'ss06' Style Set 6 lookup 16 subtable" g.ss06
Substitution2: "'ss01' Style Set 1 lookup 11 subtable" g.ss01
Substitution2: "'smcp' Lowercase to Small Capitals lookup 1 subtable" G.c2sc
EndChar

StartChar: h
Encoding: 104 104 76
Width: 1121
GlyphClass: 2
Flags: W
LayerCount: 2
Fore
SplineSet
226 830 m 1,0,1
 279 956 279 956 382 1029 c 128,-1,2
 485 1102 485 1102 610 1102 c 0,3,4
 784 1102 784 1102 868.5 1003.5 c 128,-1,5
 953 905 953 905 954 706 c 2,6,-1
 954 0 l 1,7,-1
 900 0 l 1,8,-1
 900 708 l 2,9,10
 899 882 899 882 829 965.5 c 128,-1,11
 759 1049 759 1049 607 1049 c 0,12,13
 467 1049 467 1049 364.5 949.5 c 128,-1,14
 262 850 262 850 226 693 c 1,15,-1
 226 0 l 1,16,-1
 172 0 l 1,17,-1
 172 1536 l 1,18,-1
 226 1536 l 1,19,-1
 226 830 l 1,0,1
EndSplineSet
Substitution2: "'smcp' Lowercase to Small Capitals lookup 1 subtable" H.c2sc
EndChar

StartChar: i
Encoding: 105 105 77
Width: 422
GlyphClass: 2
Flags: W
LayerCount: 2
Fore
SplineSet
239 0 m 1,0,-1
 185 0 l 1,1,-1
 185 1082 l 1,2,-1
 239 1082 l 1,3,-1
 239 0 l 1,0,-1
157 1420 m 256,4,5
 157 1443 157 1443 173 1459.5 c 128,-1,6
 189 1476 189 1476 212 1476 c 128,-1,7
 235 1476 235 1476 251.5 1459.5 c 128,-1,8
 268 1443 268 1443 268 1420 c 128,-1,9
 268 1397 268 1397 251.5 1381 c 128,-1,10
 235 1365 235 1365 212 1365 c 128,-1,11
 189 1365 189 1365 173 1381 c 128,-1,12
 157 1397 157 1397 157 1420 c 256,4,5
EndSplineSet
Substitution2: "Single Substitution lookup 3 subtable" glyph608
Substitution2: "'smcp' Lowercase to Small Capitals lookup 1 subtable" I.c2sc
EndChar

StartChar: j
Encoding: 106 106 78
Width: 445
GlyphClass: 2
Flags: W
LayerCount: 2
Fore
SplineSet
240 1082 m 1,0,-1
 240 -129 l 2,1,2
 240 -279 240 -279 165 -358 c 128,-1,3
 90 -437 90 -437 -45 -437 c 0,4,5
 -94 -437 -94 -437 -143 -417 c 1,6,-1
 -140 -365 l 1,7,8
 -92 -383 -92 -383 -45 -383 c 0,9,10
 67 -383 67 -383 126.5 -316.5 c 128,-1,11
 186 -250 186 -250 186 -129 c 2,12,-1
 186 1082 l 1,13,-1
 240 1082 l 1,0,-1
163 1420 m 256,14,15
 163 1443 163 1443 179 1459.5 c 128,-1,16
 195 1476 195 1476 218 1476 c 128,-1,17
 241 1476 241 1476 257.5 1459.5 c 128,-1,18
 274 1443 274 1443 274 1420 c 128,-1,19
 274 1397 274 1397 257.5 1381 c 128,-1,20
 241 1365 241 1365 218 1365 c 128,-1,21
 195 1365 195 1365 179 1381 c 128,-1,22
 163 1397 163 1397 163 1420 c 256,14,15
EndSplineSet
Substitution2: "Single Substitution lookup 3 subtable" glyph606
Substitution2: "'smcp' Lowercase to Small Capitals lookup 1 subtable" J.c2sc
EndChar

StartChar: k
Encoding: 107 107 79
Width: 969
GlyphClass: 2
Flags: W
LayerCount: 2
Fore
SplineSet
385 585 m 1,0,-1
 383 583 l 1,1,-1
 226 448 l 1,2,-1
 226 0 l 1,3,-1
 172 0 l 1,4,-1
 172 1536 l 1,5,-1
 226 1536 l 1,6,-1
 226 507 l 1,7,-1
 353 627 l 1,8,-1
 845 1082 l 1,9,-1
 922 1082 l 1,10,-1
 425 621 l 1,11,-1
 953 0 l 1,12,-1
 883 0 l 1,13,-1
 385 585 l 1,0,-1
EndSplineSet
Substitution2: "'ss05' Style Set 5 lookup 15 subtable" k.ss05
Substitution2: "'ss04' Style Set 4 lookup 14 subtable" k.ss04
Substitution2: "'smcp' Lowercase to Small Capitals lookup 1 subtable" K.c2sc
EndChar

StartChar: l
Encoding: 108 108 80
Width: 422
GlyphClass: 2
Flags: W
LayerCount: 2
Fore
SplineSet
239 0 m 1,0,-1
 185 0 l 1,1,-1
 185 1536 l 1,2,-1
 239 1536 l 1,3,-1
 239 0 l 1,0,-1
EndSplineSet
Substitution2: "'smcp' Lowercase to Small Capitals lookup 1 subtable" L.c2sc
EndChar

StartChar: m
Encoding: 109 109 81
Width: 1836
GlyphClass: 2
Flags: W
LayerCount: 2
Fore
SplineSet
946 0 m 1,0,-1
 892 0 l 1,1,-1
 892 727 l 2,2,3
 891 890 891 890 820.5 969.5 c 128,-1,4
 750 1049 750 1049 596 1049 c 0,5,6
 418 1049 418 1049 305 892 c 0,7,8
 238 798 238 798 216 684 c 1,9,-1
 216 0 l 1,10,-1
 161 0 l 1,11,-1
 161 1082 l 1,12,-1
 216 1082 l 1,13,-1
 216 826 l 1,14,15
 271 958 271 958 373 1030 c 128,-1,16
 475 1102 475 1102 599 1102 c 0,17,18
 735 1102 735 1102 821.5 1042 c 128,-1,19
 908 982 908 982 935 846 c 1,20,21
 983 963 983 963 1091 1032.5 c 128,-1,22
 1199 1102 1199 1102 1333 1102 c 0,23,24
 1508 1102 1508 1102 1593.5 1003 c 128,-1,25
 1679 904 1679 904 1680 706 c 2,26,-1
 1680 0 l 1,27,-1
 1626 0 l 1,28,-1
 1626 702 l 2,29,30
 1626 880 1626 880 1554.5 965.5 c 128,-1,31
 1483 1051 1483 1051 1330 1049 c 0,32,33
 1133 1046 1133 1046 1018 892 c 0,34,35
 952 803 952 803 946 720 c 1,36,-1
 946 0 l 1,0,-1
EndSplineSet
Substitution2: "'smcp' Lowercase to Small Capitals lookup 1 subtable" M.c2sc
EndChar

StartChar: n
Encoding: 110 110 82
Width: 1121
GlyphClass: 2
Flags: W
LayerCount: 2
Fore
SplineSet
226 830 m 1,0,1
 279 956 279 956 382 1029 c 128,-1,2
 485 1102 485 1102 610 1102 c 0,3,4
 784 1102 784 1102 868.5 1003.5 c 128,-1,5
 953 905 953 905 954 706 c 2,6,-1
 954 0 l 1,7,-1
 900 0 l 1,8,-1
 900 708 l 2,9,10
 899 882 899 882 829 965.5 c 128,-1,11
 759 1049 759 1049 607 1049 c 0,12,13
 467 1049 467 1049 364.5 949.5 c 128,-1,14
 262 850 262 850 226 693 c 1,15,-1
 226 0 l 1,16,-1
 172 0 l 1,17,-1
 172 1082 l 1,18,-1
 226 1082 l 1,19,-1
 226 830 l 1,0,1
EndSplineSet
Substitution2: "'smcp' Lowercase to Small Capitals lookup 1 subtable" N.c2sc
EndChar

StartChar: o
Encoding: 111 111 83
Width: 1127
GlyphClass: 2
Flags: W
LayerCount: 2
Fore
SplineSet
90 562 m 2,0,1
 90 717 90 717 149.5 840.5 c 128,-1,2
 209 964 209 964 317.5 1033 c 128,-1,3
 426 1102 426 1102 563 1102 c 0,4,5
 699 1102 699 1102 807 1035 c 128,-1,6
 915 968 915 968 975.5 845 c 128,-1,7
 1036 722 1036 722 1037 568 c 2,8,-1
 1037 520 l 2,9,10
 1037 364 1037 364 978 241 c 128,-1,11
 919 118 919 118 810.5 49 c 128,-1,12
 702 -20 702 -20 565 -20 c 128,-1,13
 428 -20 428 -20 319.5 48 c 128,-1,14
 211 116 211 116 151 238.5 c 128,-1,15
 91 361 91 361 90 514 c 2,16,-1
 90 562 l 2,0,1
144 520 m 2,17,18
 144 385 144 385 197.5 272.5 c 128,-1,19
 251 160 251 160 346.5 97 c 128,-1,20
 442 34 442 34 565 34 c 0,21,22
 750 34 750 34 866.5 173 c 128,-1,23
 983 312 983 312 983 531 c 2,24,-1
 983 562 l 2,25,26
 983 695 983 695 929 808 c 128,-1,27
 875 921 875 921 779.5 984.5 c 128,-1,28
 684 1048 684 1048 563 1048 c 0,29,30
 378 1048 378 1048 261 907 c 128,-1,31
 144 766 144 766 144 552 c 2,32,-1
 144 520 l 2,17,18
EndSplineSet
Substitution2: "'ss06' Style Set 6 lookup 16 subtable" o.ss06
Substitution2: "'smcp' Lowercase to Small Capitals lookup 1 subtable" O.c2sc
EndChar

StartChar: p
Encoding: 112 112 84
Width: 1121
GlyphClass: 2
Flags: W
LayerCount: 2
Fore
SplineSet
999 531 m 2,0,1
 999 278 999 278 890 129 c 128,-1,2
 781 -20 781 -20 593 -20 c 0,3,4
 470 -20 470 -20 374 30 c 128,-1,5
 278 80 278 80 224 168 c 1,6,-1
 224 -416 l 1,7,-1
 170 -416 l 1,8,-1
 170 1082 l 1,9,-1
 224 1082 l 1,10,-1
 224 889 l 1,11,12
 280 992 280 992 375 1047 c 128,-1,13
 470 1102 470 1102 591 1102 c 0,14,15
 781 1102 781 1102 890 956.5 c 128,-1,16
 999 811 999 811 999 548 c 2,17,-1
 999 531 l 2,0,1
944 552 m 0,18,19
 944 785 944 785 851.5 916.5 c 128,-1,20
 759 1048 759 1048 592 1048 c 0,21,22
 456 1048 456 1048 361 977.5 c 128,-1,23
 266 907 266 907 224 775 c 1,24,-1
 224 269 l 1,25,26
 266 157 266 157 361.5 95.5 c 128,-1,27
 457 34 457 34 594 34 c 0,28,29
 760 34 760 34 852 166 c 128,-1,30
 944 298 944 298 944 552 c 0,18,19
EndSplineSet
Substitution2: "'ss06' Style Set 6 lookup 16 subtable" p.ss06
Substitution2: "'smcp' Lowercase to Small Capitals lookup 1 subtable" P.c2sc
EndChar

StartChar: q
Encoding: 113 113 85
Width: 1121
GlyphClass: 2
Flags: W
LayerCount: 2
Fore
SplineSet
122 552 m 2,0,1
 122 811 122 811 231 956.5 c 128,-1,2
 340 1102 340 1102 530 1102 c 0,3,4
 651 1102 651 1102 746 1047 c 128,-1,5
 841 992 841 992 897 889 c 1,6,-1
 897 1082 l 1,7,-1
 951 1082 l 1,8,-1
 951 -416 l 1,9,-1
 897 -416 l 1,10,-1
 897 168 l 1,11,12
 839 77 839 77 743.5 28.5 c 128,-1,13
 648 -20 648 -20 528 -20 c 0,14,15
 340 -20 340 -20 231 129 c 128,-1,16
 122 278 122 278 122 538 c 2,17,-1
 122 552 l 2,0,1
178 531 m 0,18,19
 178 301 178 301 269 167.5 c 128,-1,20
 360 34 360 34 527 34 c 0,21,22
 661 34 661 34 756 93.5 c 128,-1,23
 851 153 851 153 897 268 c 1,24,-1
 897 775 l 1,25,26
 850 910 850 910 755 979 c 128,-1,27
 660 1048 660 1048 529 1048 c 0,28,29
 363 1048 363 1048 270.5 917 c 128,-1,30
 178 786 178 786 178 531 c 0,18,19
EndSplineSet
Substitution2: "'ss06' Style Set 6 lookup 16 subtable" q.ss06
Substitution2: "'smcp' Lowercase to Small Capitals lookup 1 subtable" Q.c2sc
EndChar

StartChar: r
Encoding: 114 114 86
Width: 685
GlyphClass: 2
Flags: W
LayerCount: 2
Fore
SplineSet
649 1043 m 1,0,-1
 579 1049 l 1,1,2
 441 1049 441 1049 348 959.5 c 128,-1,3
 255 870 255 870 226 709 c 1,4,-1
 226 0 l 1,5,-1
 172 0 l 1,6,-1
 172 1082 l 1,7,-1
 226 1082 l 1,8,-1
 226 857 l 1,9,10
 270 970 270 970 358 1036 c 128,-1,11
 446 1102 446 1102 579 1102 c 0,12,13
 626 1102 626 1102 655 1091 c 1,14,-1
 649 1043 l 1,0,-1
EndSplineSet
Substitution2: "'smcp' Lowercase to Small Capitals lookup 1 subtable" R.c2sc
EndChar

StartChar: s
Encoding: 115 115 87
Width: 1019
GlyphClass: 2
Flags: W
LayerCount: 2
Fore
SplineSet
839 265 m 0,0,1
 839 462 839 462 503 533 c 0,2,3
 301 576 301 576 222 643.5 c 128,-1,4
 143 711 143 711 143 829 c 0,5,6
 143 948 143 948 243.5 1025 c 128,-1,7
 344 1102 344 1102 505 1102 c 0,8,9
 680 1102 680 1102 786 1018.5 c 128,-1,10
 892 935 892 935 892 793 c 1,11,-1
 837 793 l 1,12,13
 837 902 837 902 745 975 c 128,-1,14
 653 1048 653 1048 505 1048 c 0,15,16
 363 1048 363 1048 280 986 c 128,-1,17
 197 924 197 924 197 831 c 0,18,19
 197 758 197 758 228 716.5 c 128,-1,20
 259 675 259 675 329 641.5 c 128,-1,21
 399 608 399 608 533 577 c 128,-1,22
 667 546 667 546 745 504 c 128,-1,23
 823 462 823 462 858 404.5 c 128,-1,24
 893 347 893 347 893 264 c 0,25,26
 893 136 893 136 788 58 c 128,-1,27
 683 -20 683 -20 513 -20 c 0,28,29
 331 -20 331 -20 219.5 62.5 c 128,-1,30
 108 145 108 145 108 275 c 1,31,-1
 162 275 l 1,32,33
 170 161 170 161 262.5 97.5 c 128,-1,34
 355 34 355 34 513 34 c 0,35,36
 658 34 658 34 748.5 101.5 c 128,-1,37
 839 169 839 169 839 265 c 0,0,1
EndSplineSet
Substitution2: "'smcp' Lowercase to Small Capitals lookup 1 subtable" S.c2sc
EndChar

StartChar: t
Encoding: 116 116 88
Width: 648
GlyphClass: 2
Flags: W
LayerCount: 2
Fore
SplineSet
293 1374 m 1,0,-1
 293 1082 l 1,1,-1
 539 1082 l 1,2,-1
 539 1027 l 1,3,-1
 293 1027 l 1,4,-1
 293 259 l 2,5,6
 293 144 293 144 330.5 89 c 128,-1,7
 368 34 368 34 456 34 c 0,8,9
 500 34 500 34 563 43 c 1,10,-1
 572 -8 l 1,11,12
 539 -20 539 -20 459 -20 c 0,13,14
 341 -20 341 -20 290 45.5 c 128,-1,15
 239 111 239 111 238 252 c 2,16,-1
 238 1027 l 1,17,-1
 38 1027 l 1,18,-1
 38 1082 l 1,19,-1
 238 1082 l 1,20,-1
 238 1374 l 1,21,-1
 293 1374 l 1,0,-1
EndSplineSet
Substitution2: "'smcp' Lowercase to Small Capitals lookup 1 subtable" T.c2sc
EndChar

StartChar: u
Encoding: 117 117 89
Width: 1121
GlyphClass: 2
Flags: W
LayerCount: 2
Fore
SplineSet
897 0 m 1,0,-1
 897 175 l 1,1,2
 849 85 849 85 757 32.5 c 128,-1,3
 665 -20 665 -20 524 -20 c 0,4,5
 347 -20 347 -20 258.5 83.5 c 128,-1,6
 170 187 170 187 168 385 c 2,7,-1
 168 1082 l 1,8,-1
 222 1082 l 1,9,-1
 222 383 l 2,10,11
 224 211 224 211 300 122.5 c 128,-1,12
 376 34 376 34 522 34 c 0,13,14
 677 34 677 34 774 107 c 128,-1,15
 871 180 871 180 897 321 c 1,16,-1
 897 1082 l 1,17,-1
 952 1082 l 1,18,-1
 952 0 l 1,19,-1
 897 0 l 1,0,-1
EndSplineSet
Substitution2: "'smcp' Lowercase to Small Capitals lookup 1 subtable" U.c2sc
EndChar

StartChar: v
Encoding: 118 118 90
Width: 978
GlyphClass: 2
Flags: W
LayerCount: 2
Fore
SplineSet
490 86 m 1,0,-1
 879 1082 l 1,1,-1
 937 1082 l 1,2,-1
 516 0 l 1,3,-1
 463 0 l 1,4,-1
 43 1082 l 1,5,-1
 101 1082 l 1,6,-1
 490 86 l 1,0,-1
EndSplineSet
Substitution2: "'smcp' Lowercase to Small Capitals lookup 1 subtable" V.c2sc
EndChar

StartChar: w
Encoding: 119 119 91
Width: 1550
GlyphClass: 2
Flags: W
LayerCount: 2
Fore
SplineSet
366 313 m 1,0,-1
 425 80 l 1,1,-1
 742 1082 l 1,2,-1
 797 1082 l 1,3,-1
 1112 80 l 1,4,-1
 1173 313 l 1,5,-1
 1393 1082 l 1,6,-1
 1456 1082 l 1,7,-1
 1141 0 l 1,8,-1
 1087 0 l 1,9,-1
 820 813 l 1,10,-1
 769 1007 l 1,11,-1
 714 813 l 1,12,-1
 451 0 l 1,13,-1
 397 0 l 1,14,-1
 83 1082 l 1,15,-1
 145 1082 l 1,16,-1
 366 313 l 1,0,-1
EndSplineSet
Substitution2: "'smcp' Lowercase to Small Capitals lookup 1 subtable" W.c2sc
EndChar

StartChar: x
Encoding: 120 120 92
Width: 978
GlyphClass: 2
Flags: W
LayerCount: 2
Fore
SplineSet
489 602 m 1,0,-1
 834 1082 l 1,1,-1
 902 1082 l 1,2,-1
 522 555 l 1,3,-1
 922 0 l 1,4,-1
 855 0 l 1,5,-1
 488 508 l 1,6,-1
 122 0 l 1,7,-1
 55 0 l 1,8,-1
 455 555 l 1,9,-1
 75 1082 l 1,10,-1
 143 1082 l 1,11,-1
 489 602 l 1,0,-1
EndSplineSet
Substitution2: "'smcp' Lowercase to Small Capitals lookup 1 subtable" X.c2sc
EndChar

StartChar: y
Encoding: 121 121 93
Width: 978
GlyphClass: 2
Flags: W
LayerCount: 2
Fore
SplineSet
503 84 m 1,0,-1
 510 104 l 1,1,-1
 884 1082 l 1,2,-1
 944 1082 l 1,3,-1
 460 -188 l 1,4,-1
 436 -248 l 2,5,6
 358 -437 358 -437 178 -437 c 0,7,8
 120 -437 120 -437 98 -426 c 1,9,-1
 97 -375 l 1,10,11
 129 -384 129 -384 170 -384 c 0,12,13
 255 -384 255 -384 311 -334.5 c 128,-1,14
 367 -285 367 -285 408 -173 c 2,15,-1
 474 6 l 1,16,-1
 43 1082 l 1,17,-1
 102 1082 l 1,18,-1
 503 84 l 1,0,-1
EndSplineSet
Substitution2: "'smcp' Lowercase to Small Capitals lookup 1 subtable" Y.c2sc
EndChar

StartChar: z
Encoding: 122 122 94
Width: 978
GlyphClass: 2
Flags: W
LayerCount: 2
Fore
SplineSet
160 54 m 1,0,-1
 930 54 l 1,1,-1
 930 0 l 1,2,-1
 87 0 l 1,3,-1
 87 44 l 1,4,-1
 798 1027 l 1,5,-1
 118 1027 l 1,6,-1
 118 1082 l 1,7,-1
 871 1082 l 1,8,-1
 871 1034 l 1,9,-1
 160 54 l 1,0,-1
EndSplineSet
Substitution2: "'smcp' Lowercase to Small Capitals lookup 1 subtable" Z.c2sc
EndChar

StartChar: braceleft
Encoding: 123 123 95
Width: 1229
GlyphClass: 1
Flags: HW
LayerCount: 2
Fore
SplineSet
970 -441 m 1,0,-1
 990 -395 l 1,1,2
 917 -370 917 -370 858.5 -331.5 c 128,-1,3
 800 -293 800 -293 759 -241 c 0,4,5
 718 -190 718 -190 695.5 -125 c 128,-1,6
 673 -60 673 -60 672 20 c 2,7,-1
 672 265 l 2,8,9
 670 395 670 395 603 473.5 c 128,-1,10
 536 552 536 552 423 576 c 1,11,12
 536 599 536 599 604 676.5 c 128,-1,13
 672 754 672 754 672 885 c 2,14,-1
 672 1132 l 2,15,16
 672 1208 672 1208 691 1272 c 128,-1,17
 710 1336 710 1336 747 1387 c 0,18,19
 787 1443 787 1443 847 1484.5 c 128,-1,20
 907 1526 907 1526 985 1552 c 1,21,-1
 969 1597 l 1,22,23
 884 1569 884 1569 817.5 1525.5 c 128,-1,24
 751 1482 751 1482 707 1423 c 0,25,26
 664 1366 664 1366 641.5 1293 c 128,-1,27
 619 1220 619 1220 618 1132 c 2,28,-1
 618 885 l 2,29,30
 616 752 616 752 542.5 683 c 128,-1,31
 469 614 469 614 339 609 c 1,32,-1
 339 543 l 1,33,34
 470 538 470 538 543 468.5 c 128,-1,35
 616 399 616 399 618 265 c 2,36,-1
 618 20 l 2,37,38
 619 -69 619 -69 642 -141.5 c 128,-1,39
 665 -214 665 -214 708 -270 c 0,40,41
 752 -328 752 -328 818 -370.5 c 128,-1,42
 884 -413 884 -413 970 -441 c 1,0,-1
EndSplineSet
EndChar

StartChar: bar
Encoding: 124 124 96
Width: 1229
GlyphClass: 1
Flags: HW
LayerCount: 2
Fore
SplineSet
642 -270 m 1,0,-1
 642 1456 l 1,1,-1
 588 1456 l 1,2,-1
 588 -270 l 1,3,-1
 642 -270 l 1,0,-1
EndSplineSet
EndChar

StartChar: braceright
Encoding: 125 125 97
Width: 1229
GlyphClass: 1
Flags: HW
LayerCount: 2
Fore
SplineSet
338 -395 m 1,0,-1
 357 -441 l 1,1,2
 437 -415 437 -415 500.5 -376 c 128,-1,3
 564 -337 564 -337 608 -284 c 0,4,5
 657 -226 657 -226 683 -150 c 128,-1,6
 709 -74 709 -74 709 20 c 2,7,-1
 709 265 l 2,8,9
 709 326 709 326 725.5 373.5 c 128,-1,10
 742 421 742 421 772 456 c 0,11,12
 807 496 807 496 862 518 c 128,-1,13
 917 540 917 540 988 543 c 1,14,-1
 988 609 l 1,15,16
 919 612 919 612 865 632.5 c 128,-1,17
 811 653 811 653 775 692 c 0,18,19
 744 726 744 726 727 774.5 c 128,-1,20
 710 823 710 823 709 885 c 2,21,-1
 709 1132 l 2,22,23
 708 1237 708 1237 676.5 1319.5 c 128,-1,24
 645 1402 645 1402 586 1463 c 0,25,26
 544 1506 544 1506 486.5 1540 c 128,-1,27
 429 1574 429 1574 358 1597 c 1,28,-1
 343 1552 l 1,29,30
 406 1531 406 1531 457.5 1499.5 c 128,-1,31
 509 1468 509 1468 547 1427 c 0,32,33
 599 1372 599 1372 626.5 1297.5 c 128,-1,34
 654 1223 654 1223 655 1132 c 2,35,-1
 655 885 l 2,36,37
 656 812 656 812 677.5 755.5 c 128,-1,38
 699 699 699 699 738 660 c 0,39,40
 770 629 770 629 812 607.5 c 128,-1,41
 854 586 854 586 904 576 c 1,42,43
 853 565 853 565 810 543 c 128,-1,44
 767 521 767 521 736 489 c 0,45,46
 698 449 698 449 677 393 c 128,-1,47
 656 337 656 337 655 265 c 2,48,-1
 655 20 l 2,49,50
 654 -59 654 -59 631.5 -124 c 128,-1,51
 609 -189 609 -189 568 -241 c 256,52,53
 527 -293 527 -293 469 -331.5 c 128,-1,54
 411 -370 411 -370 338 -395 c 1,0,-1
EndSplineSet
EndChar

StartChar: asciitilde
Encoding: 126 126 98
Width: 1229
GlyphClass: 1
Flags: HW
LayerCount: 2
Fore
SplineSet
1157 752 m 1,0,-1
 1101 753 l 1,1,2
 1099 703 1099 703 1086.5 656.5 c 128,-1,3
 1074 610 1074 610 1049 575 c 0,4,5
 1023 539 1023 539 983.5 517.5 c 128,-1,6
 944 496 944 496 888 496 c 0,7,8
 850 496 850 496 816.5 507 c 128,-1,9
 783 518 783 518 753 536 c 0,10,11
 722 554 722 554 694 577 c 128,-1,12
 666 600 666 600 639 624 c 0,13,14
 607 653 607 653 573 680 c 128,-1,15
 539 707 539 707 503 728 c 0,16,17
 466 749 466 749 425.5 761.5 c 128,-1,18
 385 774 385 774 339 774 c 0,19,20
 271 774 271 774 221.5 748 c 128,-1,21
 172 722 172 722 139 679 c 256,22,23
 106 636 106 636 89.5 579.5 c 128,-1,24
 73 523 73 523 71 462 c 1,25,-1
 126 462 l 1,26,27
 128 513 128 513 140 559.5 c 128,-1,28
 152 606 152 606 178 642 c 0,29,30
 203 677 203 677 242.5 698.5 c 128,-1,31
 282 720 282 720 339 720 c 0,32,33
 378 720 378 720 411.5 709.5 c 128,-1,34
 445 699 445 699 476 681 c 0,35,36
 506 663 506 663 534.5 640 c 128,-1,37
 563 617 563 617 590 593 c 0,38,39
 623 564 623 564 656.5 537 c 128,-1,40
 690 510 690 510 726 489 c 256,41,42
 762 468 762 468 802 455.5 c 128,-1,43
 842 443 842 443 888 443 c 0,44,45
 954 443 954 443 1004 469 c 128,-1,46
 1054 495 1054 495 1087 538 c 0,47,48
 1120 580 1120 580 1137.5 636 c 128,-1,49
 1155 692 1155 692 1157 752 c 1,0,-1
EndSplineSet
EndChar

StartChar: exclamdown
Encoding: 161 161 99
Width: 406
GlyphClass: 1
Flags: W
LayerCount: 2
Fore
SplineSet
179 696 m 1,0,-1
 233 696 l 1,1,-1
 233 -359 l 1,2,-1
 179 -359 l 1,3,-1
 179 696 l 1,0,-1
253 1048 m 256,4,5
 253 1025 253 1025 237 1008.5 c 128,-1,6
 221 992 221 992 198 992 c 128,-1,7
 175 992 175 992 158.5 1008.5 c 128,-1,8
 142 1025 142 1025 142 1048 c 128,-1,9
 142 1071 142 1071 158.5 1087 c 128,-1,10
 175 1103 175 1103 198 1103 c 128,-1,11
 221 1103 221 1103 237 1087 c 128,-1,12
 253 1071 253 1071 253 1048 c 256,4,5
EndSplineSet
EndChar

StartChar: cent
Encoding: 162 162 100
Width: 1110
GlyphClass: 1
Flags: W
LayerCount: 2
Fore
SplineSet
576 34 m 0,0,1
 723 34 723 34 818.5 112 c 128,-1,2
 914 190 914 190 923 328 c 1,3,-1
 977 328 l 1,4,5
 969 178 969 178 864 83.5 c 128,-1,6
 759 -11 759 -11 604 -19 c 1,7,-1
 604 -245 l 1,8,-1
 549 -245 l 1,9,-1
 549 -19 l 1,10,11
 358 -9 358 -9 246 136 c 128,-1,12
 134 281 134 281 134 526 c 2,13,-1
 134 562 l 2,14,15
 134 802 134 802 246 946.5 c 128,-1,16
 358 1091 358 1091 549 1101 c 1,17,-1
 549 1318 l 1,18,-1
 604 1318 l 1,19,-1
 604 1101 l 1,20,21
 767 1090 767 1090 868.5 989 c 128,-1,22
 970 888 970 888 977 725 c 1,23,-1
 923 725 l 1,24,25
 916 871 916 871 820.5 959.5 c 128,-1,26
 725 1048 725 1048 574 1048 c 0,27,28
 393 1048 393 1048 290.5 917.5 c 128,-1,29
 188 787 188 787 188 555 c 2,30,-1
 188 520 l 2,31,32
 188 293 188 293 291.5 163.5 c 128,-1,33
 395 34 395 34 576 34 c 0,0,1
EndSplineSet
EndChar

StartChar: sterling
Encoding: 163 163 101
Width: 1150
GlyphClass: 1
Flags: W
LayerCount: 2
Fore
SplineSet
360 667 m 1,0,-1
 370 336 l 2,1,2
 374 142 374 142 303 54 c 1,3,-1
 1060 54 l 1,4,-1
 1061 0 l 1,5,-1
 99 0 l 1,6,-1
 99 54 l 1,7,-1
 219 54 l 1,8,9
 267 68 267 68 292.5 148.5 c 128,-1,10
 318 229 318 229 316 336 c 2,11,-1
 306 667 l 1,12,-1
 95 667 l 1,13,-1
 95 721 l 1,14,-1
 304 721 l 1,15,-1
 295 1039 l 1,16,17
 295 1243 295 1243 394 1359.5 c 128,-1,18
 493 1476 493 1476 661 1476 c 0,19,20
 834 1476 834 1476 934.5 1372 c 128,-1,21
 1035 1268 1035 1268 1035 1089 c 1,22,-1
 981 1089 l 1,23,24
 981 1248 981 1248 895.5 1335 c 128,-1,25
 810 1422 810 1422 661 1422 c 0,26,27
 514 1422 514 1422 431.5 1322 c 128,-1,28
 349 1222 349 1222 349 1039 c 1,29,-1
 358 721 l 1,30,-1
 728 721 l 1,31,-1
 728 667 l 1,32,-1
 360 667 l 1,0,-1
EndSplineSet
Substitution2: "'c2sc' Capitals to Small Capitals lookup 0 subtable" sterling.c2sc
Position2: "'cpsp' Capital Spacing lookup 0 subtable" dx=36 dy=0 dh=72 dv=0
EndChar

StartChar: currency
Encoding: 164 164 102
Width: 1502
GlyphClass: 1
Flags: W
LayerCount: 2
Fore
SplineSet
1159 156 m 1,0,1
 1078 73 1078 73 972 26.5 c 128,-1,2
 866 -20 866 -20 745 -20 c 128,-1,3
 624 -20 624 -20 517.5 26 c 128,-1,4
 411 72 411 72 330 154 c 1,5,-1
 154 -26 l 1,6,-1
 114 13 l 1,7,-1
 293 195 l 1,8,9
 149 371 149 371 149 608 c 0,10,11
 149 854 149 854 303 1032 c 1,12,-1
 114 1225 l 1,13,-1
 154 1264 l 1,14,-1
 342 1072 l 1,15,16
 513 1234 513 1234 745 1234 c 0,17,18
 863 1234 863 1234 965.5 1190.5 c 128,-1,19
 1068 1147 1068 1147 1148 1070 c 1,20,-1
 1339 1265 l 1,21,-1
 1380 1225 l 1,22,-1
 1187 1029 l 1,23,24
 1339 851 1339 851 1339 608 c 0,25,26
 1339 374 1339 374 1198 199 c 1,27,-1
 1380 13 l 1,28,-1
 1339 -27 l 1,29,-1
 1159 156 l 1,0,1
204 608 m 0,30,31
 204 454 204 454 277.5 320 c 128,-1,32
 351 186 351 186 476 109.5 c 128,-1,33
 601 33 601 33 745 33 c 0,34,35
 888 33 888 33 1013 109.5 c 128,-1,36
 1138 186 1138 186 1211.5 320 c 128,-1,37
 1285 454 1285 454 1285 608 c 0,38,39
 1285 761 1285 761 1212.5 893.5 c 128,-1,40
 1140 1026 1140 1026 1014.5 1103.5 c 128,-1,41
 889 1181 889 1181 745 1181 c 128,-1,42
 601 1181 601 1181 475 1103.5 c 128,-1,43
 349 1026 349 1026 276.5 893.5 c 128,-1,44
 204 761 204 761 204 608 c 0,30,31
EndSplineSet
EndChar

StartChar: yen
Encoding: 165 165 103
Width: 1038
GlyphClass: 1
Flags: W
LayerCount: 2
Fore
SplineSet
938 1456 m 1,0,-1
 1000 1456 l 1,1,-1
 568 676 l 1,2,-1
 935 676 l 1,3,-1
 935 621 l 1,4,-1
 543 621 l 1,5,-1
 543 381 l 1,6,-1
 935 381 l 1,7,-1
 935 326 l 1,8,-1
 543 326 l 1,9,-1
 543 0 l 1,10,-1
 489 0 l 1,11,-1
 489 326 l 1,12,-1
 99 326 l 1,13,-1
 99 381 l 1,14,-1
 489 381 l 1,15,-1
 489 621 l 1,16,-1
 99 621 l 1,17,-1
 99 676 l 1,18,-1
 464 676 l 1,19,-1
 33 1456 l 1,20,-1
 95 1456 l 1,21,-1
 487 738 l 1,22,-1
 512 687 l 1,23,-1
 521 687 l 1,24,-1
 547 738 l 1,25,-1
 938 1456 l 1,0,-1
EndSplineSet
Substitution2: "'c2sc' Capitals to Small Capitals lookup 0 subtable" yen.c2sc
Position2: "'cpsp' Capital Spacing lookup 0 subtable" dx=36 dy=0 dh=72 dv=0
EndChar

StartChar: brokenbar
Encoding: 166 166 104
Width: 398
GlyphClass: 1
Flags: W
LayerCount: 2
Fore
SplineSet
172 -270 m 1,0,-1
 172 482 l 1,1,-1
 226 482 l 1,2,-1
 226 -270 l 1,3,-1
 172 -270 l 1,0,-1
226 698 m 1,4,-1
 172 698 l 1,5,-1
 172 1456 l 1,6,-1
 226 1456 l 1,7,-1
 226 698 l 1,4,-1
EndSplineSet
EndChar

StartChar: section
Encoding: 167 167 105
Width: 1223
GlyphClass: 1
Flags: W
LayerCount: 2
Fore
SplineSet
1094 431 m 0,0,1
 1094 326 1094 326 1012 255 c 128,-1,2
 930 184 930 184 790 164 c 1,3,4
 932 110 932 110 991 36.5 c 128,-1,5
 1050 -37 1050 -37 1050 -149 c 0,6,7
 1050 -309 1050 -309 928.5 -402 c 128,-1,8
 807 -495 807 -495 600 -495 c 0,9,10
 374 -495 374 -495 244.5 -382.5 c 128,-1,11
 115 -270 115 -270 115 -64 c 1,12,-1
 169 -62 l 1,13,14
 169 -242 169 -242 285 -341.5 c 128,-1,15
 401 -441 401 -441 600 -441 c 0,16,17
 783 -441 783 -441 889 -361.5 c 128,-1,18
 995 -282 995 -282 995 -151 c 0,19,20
 995 -63 995 -63 958.5 -9.5 c 128,-1,21
 922 44 922 44 840 85 c 128,-1,22
 758 126 758 126 607 166 c 1,23,24
 336 230 336 230 228.5 319.5 c 128,-1,25
 121 409 121 409 121 551 c 0,26,27
 121 660 121 660 198 731 c 128,-1,28
 275 802 275 802 407 822 c 1,29,30
 278 873 278 873 222 947 c 128,-1,31
 166 1021 166 1021 166 1129 c 0,32,33
 166 1286 166 1286 288.5 1381 c 128,-1,34
 411 1476 411 1476 618 1476 c 0,35,36
 833 1476 833 1476 952.5 1363.5 c 128,-1,37
 1072 1251 1072 1251 1072 1045 c 1,38,-1
 1018 1045 l 1,39,40
 1018 1212 1018 1212 909 1317 c 128,-1,41
 800 1422 800 1422 618 1422 c 0,42,43
 434 1422 434 1422 327 1345 c 128,-1,44
 220 1268 220 1268 220 1132 c 0,45,46
 220 1041 220 1041 256 987 c 128,-1,47
 292 933 292 933 374.5 891 c 128,-1,48
 457 849 457 849 616 804 c 1,49,50
 824 752 824 752 914.5 705 c 128,-1,51
 1005 658 1005 658 1049.5 592.5 c 128,-1,52
 1094 527 1094 527 1094 431 c 0,0,1
590 766 m 0,53,54
 531 779 531 779 482 796 c 1,55,56
 339 791 339 791 257 725.5 c 128,-1,57
 175 660 175 660 175 553 c 0,58,59
 175 460 175 460 214 406 c 128,-1,60
 253 352 253 352 347.5 308.5 c 128,-1,61
 442 265 442 265 693 196 c 1,62,63
 850 198 850 198 945 262.5 c 128,-1,64
 1040 327 1040 327 1040 428 c 0,65,66
 1040 513 1040 513 999 569 c 128,-1,67
 958 625 958 625 865 670 c 128,-1,68
 772 715 772 715 590 766 c 0,53,54
EndSplineSet
EndChar

StartChar: dieresis
Encoding: 168 168 106
Width: 906
GlyphClass: 1
Flags: W
LayerCount: 2
Fore
SplineSet
174 1421 m 256,0,1
 174 1444 174 1444 190 1460.5 c 128,-1,2
 206 1477 206 1477 229 1477 c 128,-1,3
 252 1477 252 1477 268.5 1460.5 c 128,-1,4
 285 1444 285 1444 285 1421 c 128,-1,5
 285 1398 285 1398 268.5 1382 c 128,-1,6
 252 1366 252 1366 229 1366 c 128,-1,7
 206 1366 206 1366 190 1382 c 128,-1,8
 174 1398 174 1398 174 1421 c 256,0,1
619 1421 m 256,9,10
 619 1444 619 1444 635 1460.5 c 128,-1,11
 651 1477 651 1477 674 1477 c 128,-1,12
 697 1477 697 1477 713.5 1460.5 c 128,-1,13
 730 1444 730 1444 730 1421 c 128,-1,14
 730 1398 730 1398 713.5 1382 c 128,-1,15
 697 1366 697 1366 674 1366 c 128,-1,16
 651 1366 651 1366 635 1382 c 128,-1,17
 619 1398 619 1398 619 1421 c 256,9,10
EndSplineSet
EndChar

StartChar: copyright
Encoding: 169 169 107
Width: 1666
GlyphClass: 1
Flags: W
LayerCount: 2
Fore
SplineSet
1124 616 m 1,0,1
 1124 464 1124 464 1045.5 383 c 128,-1,2
 967 302 967 302 826 302 c 0,3,4
 682 302 682 302 594 409.5 c 128,-1,5
 506 517 506 517 506 693 c 2,6,-1
 506 768 l 2,7,8
 506 941 506 941 595 1048 c 128,-1,9
 684 1155 684 1155 826 1155 c 0,10,11
 969 1155 969 1155 1047 1072.5 c 128,-1,12
 1125 990 1125 990 1125 842 c 1,13,-1
 1073 842 l 1,14,15
 1073 973 1073 973 1009 1037.5 c 128,-1,16
 945 1102 945 1102 826 1102 c 128,-1,17
 707 1102 707 1102 634 1010 c 128,-1,18
 561 918 561 918 561 763 c 2,19,-1
 561 689 l 2,20,21
 561 540 561 540 633.5 448.5 c 128,-1,22
 706 357 706 357 826 357 c 0,23,24
 1072 357 1072 357 1072 616 c 1,25,-1
 1124 616 l 1,0,1
179 729 m 0,26,27
 179 541 179 541 267.5 379.5 c 128,-1,28
 356 218 356 218 507.5 126 c 128,-1,29
 659 34 659 34 833 34 c 0,30,31
 1009 34 1009 34 1161 128 c 128,-1,32
 1313 222 1313 222 1400 382.5 c 128,-1,33
 1487 543 1487 543 1487 729 c 0,34,35
 1487 916 1487 916 1400 1075.5 c 128,-1,36
 1313 1235 1313 1235 1160.5 1328 c 128,-1,37
 1008 1421 1008 1421 833 1421 c 0,38,39
 660 1421 660 1421 508 1330 c 128,-1,40
 356 1239 356 1239 267.5 1078.5 c 128,-1,41
 179 918 179 918 179 729 c 0,26,27
123 729 m 0,42,43
 123 931 123 931 216.5 1104 c 128,-1,44
 310 1277 310 1277 475.5 1376.5 c 128,-1,45
 641 1476 641 1476 833 1476 c 128,-1,46
 1025 1476 1025 1476 1190.5 1376.5 c 128,-1,47
 1356 1277 1356 1277 1449.5 1104 c 128,-1,48
 1543 931 1543 931 1543 729 c 0,49,50
 1543 530 1543 530 1452 358 c 128,-1,51
 1361 186 1361 186 1195.5 82.5 c 128,-1,52
 1030 -21 1030 -21 833 -21 c 128,-1,53
 636 -21 636 -21 470.5 82.5 c 128,-1,54
 305 186 305 186 214 358 c 128,-1,55
 123 530 123 530 123 729 c 0,42,43
EndSplineSet
EndChar

StartChar: ordfeminine
Encoding: 170 170 108
Width: 898
GlyphClass: 1
Flags: W
LayerCount: 2
Fore
SplineSet
680 705 m 1,0,1
 662 759 662 759 658 823 c 1,2,3
 619 763 619 763 553.5 727 c 128,-1,4
 488 691 488 691 417 691 c 0,5,6
 296 691 296 691 232 748 c 128,-1,7
 168 805 168 805 168 900 c 0,8,9
 168 1009 168 1009 251.5 1070.5 c 128,-1,10
 335 1132 335 1132 487 1132 c 2,11,-1
 657 1132 l 1,12,-1
 657 1201 l 2,13,14
 657 1305 657 1305 607.5 1363.5 c 128,-1,15
 558 1422 558 1422 458 1422 c 0,16,17
 349 1422 349 1422 285 1378 c 128,-1,18
 221 1334 221 1334 221 1243 c 1,19,-1
 167 1243 l 1,20,21
 167 1345 167 1345 248 1410.5 c 128,-1,22
 329 1476 329 1476 458 1476 c 0,23,24
 574 1476 574 1476 643 1404 c 128,-1,25
 712 1332 712 1332 712 1200 c 2,26,-1
 712 884 l 2,27,28
 712 792 712 792 738 705 c 1,29,-1
 680 705 l 1,0,1
418 746 m 0,30,31
 488 746 488 746 562.5 793 c 128,-1,32
 637 840 637 840 657 899 c 1,33,-1
 657 1078 l 1,34,-1
 490 1078 l 2,35,36
 222 1078 222 1078 222 904 c 0,37,38
 222 746 222 746 418 746 c 0,30,31
EndSplineSet
EndChar

StartChar: logicalnot
Encoding: 172 172 110
Width: 1101
GlyphClass: 1
Flags: W
LayerCount: 2
Fore
SplineSet
915 396 m 1,0,-1
 861 396 l 1,1,-1
 861 700 l 1,2,-1
 122 700 l 1,3,-1
 122 753 l 1,4,-1
 915 753 l 1,5,-1
 915 396 l 1,0,-1
EndSplineSet
EndChar

StartChar: registered
Encoding: 174 174 111
Width: 1674
GlyphClass: 1
Flags: W
LayerCount: 2
Fore
SplineSet
115 729 m 0,0,1
 115 931 115 931 208.5 1104 c 128,-1,2
 302 1277 302 1277 467.5 1376.5 c 128,-1,3
 633 1476 633 1476 825 1476 c 128,-1,4
 1017 1476 1017 1476 1182.5 1376.5 c 128,-1,5
 1348 1277 1348 1277 1441.5 1104 c 128,-1,6
 1535 931 1535 931 1535 729 c 0,7,8
 1535 530 1535 530 1444 358 c 128,-1,9
 1353 186 1353 186 1187.5 82.5 c 128,-1,10
 1022 -21 1022 -21 825 -21 c 128,-1,11
 628 -21 628 -21 462.5 82.5 c 128,-1,12
 297 186 297 186 206 358 c 128,-1,13
 115 530 115 530 115 729 c 0,0,1
170 729 m 0,14,15
 170 543 170 543 257 382.5 c 128,-1,16
 344 222 344 222 496 128 c 128,-1,17
 648 34 648 34 825 34 c 0,18,19
 1001 34 1001 34 1153 128 c 128,-1,20
 1305 222 1305 222 1392 382.5 c 128,-1,21
 1479 543 1479 543 1479 729 c 0,22,23
 1479 916 1479 916 1392 1075.5 c 128,-1,24
 1305 1235 1305 1235 1152.5 1328 c 128,-1,25
 1000 1421 1000 1421 825 1421 c 0,26,27
 649 1421 649 1421 496.5 1328 c 128,-1,28
 344 1235 344 1235 257 1075.5 c 128,-1,29
 170 916 170 916 170 729 c 0,14,15
648 678 m 1,30,-1
 648 326 l 1,31,-1
 593 326 l 1,32,-1
 593 1156 l 1,33,-1
 832 1156 l 2,34,35
 1121 1156 1121 1156 1121 916 c 0,36,37
 1121 772 1121 772 968 710 c 1,38,39
 1100 671 1100 671 1100 502 c 0,40,41
 1100 391 1100 391 1117 342 c 1,42,-1
 1117 326 l 1,43,-1
 1058 326 l 1,44,45
 1044 362 1044 362 1044 502 c 0,46,47
 1044 594 1044 594 1005.5 635 c 128,-1,48
 967 676 967 676 873 678 c 2,49,-1
 648 678 l 1,30,-1
648 734 m 1,50,-1
 853 734 l 2,51,52
 949 734 949 734 1007.5 784.5 c 128,-1,53
 1066 835 1066 835 1066 917 c 0,54,55
 1066 1015 1066 1015 1014.5 1057 c 128,-1,56
 963 1099 963 1099 846 1101 c 2,57,-1
 648 1101 l 1,58,-1
 648 734 l 1,50,-1
EndSplineSet
EndChar

StartChar: macron
Encoding: 175 175 112
Width: 811
GlyphClass: 1
Flags: W
LayerCount: 2
Fore
SplineSet
699 1383 m 1,0,-1
 132 1383 l 1,1,-1
 132 1436 l 1,2,-1
 699 1436 l 1,3,-1
 699 1383 l 1,0,-1
EndSplineSet
EndChar

StartChar: degree
Encoding: 176 176 113
Width: 783
GlyphClass: 1
Flags: W
LayerCount: 2
Fore
SplineSet
156 1236 m 0,0,1
 156 1333 156 1333 225 1404.5 c 128,-1,2
 294 1476 294 1476 392 1476 c 0,3,4
 488 1476 488 1476 556 1404.5 c 128,-1,5
 624 1333 624 1333 624 1236 c 0,6,7
 624 1138 624 1138 556 1068.5 c 128,-1,8
 488 999 488 999 392 999 c 0,9,10
 294 999 294 999 225 1068 c 128,-1,11
 156 1137 156 1137 156 1236 c 0,0,1
211 1236 m 0,12,13
 211 1159 211 1159 262 1107 c 128,-1,14
 313 1055 313 1055 392 1055 c 0,15,16
 468 1055 468 1055 518 1105.5 c 128,-1,17
 568 1156 568 1156 568 1236 c 0,18,19
 568 1318 568 1318 517.5 1369.5 c 128,-1,20
 467 1421 467 1421 392 1421 c 0,21,22
 314 1421 314 1421 262.5 1368 c 128,-1,23
 211 1315 211 1315 211 1236 c 0,12,13
EndSplineSet
EndChar

StartChar: plusminus
Encoding: 177 177 114
Width: 1077
GlyphClass: 1
Flags: W
LayerCount: 2
Fore
SplineSet
569 805 m 1,0,-1
 988 805 l 1,1,-1
 988 751 l 1,2,-1
 569 751 l 1,3,-1
 569 289 l 1,4,-1
 515 289 l 1,5,-1
 515 751 l 1,6,-1
 72 751 l 1,7,-1
 72 805 l 1,8,-1
 515 805 l 1,9,-1
 515 1267 l 1,10,-1
 569 1267 l 1,11,-1
 569 805 l 1,0,-1
957 -1 m 1,12,-1
 122 -1 l 1,13,-1
 122 53 l 1,14,-1
 957 53 l 1,15,-1
 957 -1 l 1,12,-1
EndSplineSet
EndChar

StartChar: uni00B2
Encoding: 178 178 115
Width: 728
GlyphClass: 1
Flags: W
LayerCount: 2
Fore
SplineSet
651 664 m 1,0,-1
 108 664 l 1,1,-1
 108 708 l 1,2,-1
 398 1003 l 2,3,4
 477 1080 477 1080 514 1138 c 128,-1,5
 551 1196 551 1196 551 1247 c 0,6,7
 551 1324 551 1324 502 1369.5 c 128,-1,8
 453 1415 453 1415 356 1415 c 0,9,10
 254 1415 254 1415 197 1363 c 128,-1,11
 140 1311 140 1311 140 1226 c 1,12,-1
 86 1226 l 1,13,14
 86 1329 86 1329 161.5 1396.5 c 128,-1,15
 237 1464 237 1464 356 1464 c 0,16,17
 472 1464 472 1464 538.5 1405 c 128,-1,18
 605 1346 605 1346 605 1248 c 0,19,20
 605 1154 605 1154 492 1031 c 2,21,-1
 426 961 l 1,22,-1
 175 713 l 1,23,-1
 651 713 l 1,24,-1
 651 664 l 1,0,-1
EndSplineSet
EndChar

StartChar: uni00B3
Encoding: 179 179 116
Width: 728
GlyphClass: 1
Flags: W
LayerCount: 2
Fore
SplineSet
270 1090 m 1,0,-1
 345 1090 l 2,1,2
 446 1091 446 1091 505 1135.5 c 128,-1,3
 564 1180 564 1180 564 1249 c 0,4,5
 564 1326 564 1326 510.5 1370.5 c 128,-1,6
 457 1415 457 1415 362 1415 c 0,7,8
 271 1415 271 1415 210.5 1368.5 c 128,-1,9
 150 1322 150 1322 150 1246 c 1,10,-1
 97 1246 l 1,11,12
 97 1342 97 1342 172.5 1403 c 128,-1,13
 248 1464 248 1464 362 1464 c 0,14,15
 481 1464 481 1464 549.5 1406 c 128,-1,16
 618 1348 618 1348 618 1246 c 0,17,18
 618 1189 618 1189 578 1139.5 c 128,-1,19
 538 1090 538 1090 463 1067 c 1,20,21
 549 1047 549 1047 593 997 c 128,-1,22
 637 947 637 947 637 875 c 0,23,24
 637 775 637 775 563 714 c 128,-1,25
 489 653 489 653 367 653 c 0,26,27
 243 653 243 653 161.5 716.5 c 128,-1,28
 80 780 80 780 80 881 c 1,29,-1
 134 881 l 1,30,31
 134 803 134 803 199 752 c 128,-1,32
 264 701 264 701 367 701 c 128,-1,33
 470 701 470 701 526.5 747 c 128,-1,34
 583 793 583 793 583 874 c 0,35,36
 583 1041 583 1041 330 1041 c 2,37,-1
 270 1041 l 1,38,-1
 270 1090 l 1,0,-1
EndSplineSet
EndChar

StartChar: acute
Encoding: 180 180 117
Width: 511
GlyphClass: 1
Flags: W
LayerCount: 2
Fore
SplineSet
315 1536 m 1,0,-1
 381 1536 l 1,1,-1
 186 1270 l 1,2,-1
 126 1270 l 1,3,-1
 315 1536 l 1,0,-1
EndSplineSet
EndChar

StartChar: mu
Encoding: 181 181 118
Width: 1121
GlyphClass: 1
Flags: W
LayerCount: 2
Fore
SplineSet
223 1082 m 1,0,-1
 223 421 l 2,1,2
 226 232 226 232 302.5 133 c 128,-1,3
 379 34 379 34 529 34 c 0,4,5
 705 34 705 34 794.5 124.5 c 128,-1,6
 884 215 884 215 899 414 c 1,7,-1
 899 1082 l 1,8,-1
 953 1082 l 1,9,-1
 953 0 l 1,10,-1
 902 0 l 1,11,-1
 899 203 l 1,12,13
 803 -20 803 -20 538 -20 c 0,14,15
 424 -20 424 -20 344.5 30 c 128,-1,16
 265 80 265 80 223 171 c 1,17,-1
 223 -416 l 1,18,-1
 171 -416 l 1,19,-1
 171 1082 l 1,20,-1
 223 1082 l 1,0,-1
EndSplineSet
EndChar

StartChar: paragraph
Encoding: 182 182 119
Width: 946
GlyphClass: 1
Flags: W
LayerCount: 2
Fore
SplineSet
716 0 m 1,0,-1
 716 520 l 1,1,-1
 589 520 l 2,2,3
 439 520 439 520 328 578 c 128,-1,4
 217 636 217 636 158 742.5 c 128,-1,5
 99 849 99 849 99 988 c 0,6,7
 99 1201 99 1201 232 1328.5 c 128,-1,8
 365 1456 365 1456 593 1456 c 2,9,-1
 770 1456 l 1,10,-1
 770 0 l 1,11,-1
 716 0 l 1,0,-1
EndSplineSet
EndChar

StartChar: periodcentered
Encoding: 183 183 120
Width: 472
GlyphClass: 1
Flags: W
LayerCount: 2
Fore
SplineSet
179 706 m 256,0,1
 179 729 179 729 195 745.5 c 128,-1,2
 211 762 211 762 234 762 c 128,-1,3
 257 762 257 762 273.5 745.5 c 128,-1,4
 290 729 290 729 290 706 c 128,-1,5
 290 683 290 683 273.5 667 c 128,-1,6
 257 651 257 651 234 651 c 128,-1,7
 211 651 211 651 195 667 c 128,-1,8
 179 683 179 683 179 706 c 256,0,1
EndSplineSet
EndChar

StartChar: cedilla
Encoding: 184 184 121
Width: 490
GlyphClass: 2
Flags: W
LayerCount: 2
Fore
SplineSet
207 0 m 1,0,-1
 196 -76 l 1,1,2
 373 -92 373 -92 373 -245 c 0,3,4
 373 -330 373 -330 297 -382.5 c 128,-1,5
 221 -435 221 -435 88 -435 c 1,6,-1
 81 -386 l 1,7,8
 182 -386 182 -386 250 -346.5 c 128,-1,9
 318 -307 318 -307 318 -245 c 0,10,11
 318 -189 318 -189 279.5 -161 c 128,-1,12
 241 -133 241 -133 129 -121 c 1,13,-1
 154 0 l 1,14,-1
 207 0 l 1,0,-1
EndSplineSet
EndChar

StartChar: uni00B9
Encoding: 185 185 122
Width: 728
GlyphClass: 1
Flags: W
LayerCount: 2
Fore
SplineSet
433 664 m 1,0,-1
 379 664 l 1,1,-1
 379 1386 l 1,2,-1
 131 1305 l 1,3,-1
 131 1358 l 1,4,-1
 424 1455 l 1,5,-1
 433 1455 l 1,6,-1
 433 664 l 1,0,-1
EndSplineSet
EndChar

StartChar: ordmasculine
Encoding: 186 186 123
Width: 914
GlyphClass: 1
Flags: W
LayerCount: 2
Fore
SplineSet
148 1141 m 2,0,1
 148 1291 148 1291 231.5 1383.5 c 128,-1,2
 315 1476 315 1476 452 1476 c 128,-1,3
 589 1476 589 1476 673 1384 c 128,-1,4
 757 1292 757 1292 757 1136 c 2,5,-1
 757 1024 l 2,6,7
 757 873 757 873 673.5 781.5 c 128,-1,8
 590 690 590 690 454 690 c 0,9,10
 317 690 317 690 232.5 781 c 128,-1,11
 148 872 148 872 148 1029 c 2,12,-1
 148 1141 l 2,0,1
202 1024 m 2,13,14
 202 893 202 893 268.5 818.5 c 128,-1,15
 335 744 335 744 454 744 c 0,16,17
 570 744 570 744 637 820.5 c 128,-1,18
 704 897 704 897 704 1028 c 2,19,-1
 704 1141 l 2,20,21
 704 1269 704 1269 635.5 1345.5 c 128,-1,22
 567 1422 567 1422 452 1422 c 0,23,24
 338 1422 338 1422 270 1346 c 128,-1,25
 202 1270 202 1270 202 1135 c 2,26,-1
 202 1024 l 2,13,14
EndSplineSet
EndChar

StartChar: questiondown
Encoding: 191 191 128
Width: 912
GlyphClass: 1
Flags: W
LayerCount: 2
Fore
SplineSet
514 695 m 1,0,1
 512 593 512 593 502.5 556.5 c 128,-1,2
 493 520 493 520 469 487 c 128,-1,3
 445 454 445 454 389 403 c 2,4,-1
 311 327 l 2,5,6
 232 248 232 248 197 166 c 128,-1,7
 162 84 162 84 162 -17 c 0,8,9
 162 -166 162 -166 241 -247 c 128,-1,10
 320 -328 320 -328 461 -328 c 0,11,12
 599 -328 599 -328 678.5 -245.5 c 128,-1,13
 758 -163 758 -163 762 -21 c 1,14,-1
 816 -21 l 1,15,16
 814 -188 814 -188 718.5 -284.5 c 128,-1,17
 623 -381 623 -381 461 -381 c 0,18,19
 296 -381 296 -381 202 -280.5 c 128,-1,20
 108 -180 108 -180 108 -15 c 0,21,22
 108 106 108 106 160 207.5 c 128,-1,23
 212 309 212 309 361 445 c 1,24,25
 412 485 412 485 434.5 526 c 128,-1,26
 457 567 457 567 459 626 c 2,27,-1
 460 695 l 1,28,-1
 514 695 l 1,0,1
538 1046 m 256,29,30
 538 1023 538 1023 522 1006.5 c 128,-1,31
 506 990 506 990 483 990 c 128,-1,32
 460 990 460 990 443.5 1006.5 c 128,-1,33
 427 1023 427 1023 427 1046 c 128,-1,34
 427 1069 427 1069 443.5 1085 c 128,-1,35
 460 1101 460 1101 483 1101 c 128,-1,36
 506 1101 506 1101 522 1085 c 128,-1,37
 538 1069 538 1069 538 1046 c 256,29,30
EndSplineSet
EndChar

StartChar: AE
Encoding: 198 198 129
Width: 1816
GlyphClass: 2
Flags: W
LayerCount: 2
Fore
SplineSet
1768 0 m 1,0,-1
 1016 0 l 1,1,-1
 998 425 l 1,2,-1
 371 425 l 1,3,-1
 115 0 l 1,4,-1
 50 0 l 1,5,-1
 931 1456 l 1,6,-1
 1707 1456 l 1,7,-1
 1707 1402 l 1,8,-1
 1011 1402 l 1,9,-1
 1037 786 l 1,10,-1
 1625 786 l 1,11,-1
 1625 732 l 1,12,-1
 1039 732 l 1,13,-1
 1067 54 l 1,14,-1
 1768 54 l 1,15,-1
 1768 0 l 1,0,-1
403 478 m 1,16,-1
 996 478 l 1,17,-1
 957 1398 l 1,18,-1
 403 478 l 1,16,-1
EndSplineSet
Substitution2: "'c2sc' Capitals to Small Capitals lookup 0 subtable" AE.c2sc
Position2: "'cpsp' Capital Spacing lookup 0 subtable" dx=36 dy=0 dh=72 dv=0
EndChar

StartChar: multiply
Encoding: 215 215 130
Width: 1052
GlyphClass: 1
Flags: W
LayerCount: 2
Fore
SplineSet
98 36 m 1,0,-1
 482 429 l 1,1,-1
 125 793 l 1,2,-1
 164 832 l 1,3,-1
 520 468 l 1,4,-1
 877 832 l 1,5,-1
 916 793 l 1,6,-1
 559 429 l 1,7,-1
 944 36 l 1,8,-1
 905 -1 l 1,9,-1
 521 390 l 1,10,-1
 137 -1 l 1,11,-1
 98 36 l 1,0,-1
EndSplineSet
EndChar

StartChar: Oslash
Encoding: 216 216 131
Width: 1364
GlyphClass: 2
Flags: W
LayerCount: 2
Fore
SplineSet
1231 619 m 2,0,1
 1231 430 1231 430 1163.5 284.5 c 128,-1,2
 1096 139 1096 139 971 59.5 c 128,-1,3
 846 -20 846 -20 683 -20 c 0,4,5
 488 -20 488 -20 349 92 c 1,6,-1
 243 -75 l 1,7,-1
 177 -75 l 1,8,-1
 307 130 l 1,9,10
 133 306 133 306 133 629 c 2,11,-1
 133 837 l 2,12,13
 133 1025 133 1025 200.5 1171 c 128,-1,14
 268 1317 268 1317 393.5 1396.5 c 128,-1,15
 519 1476 519 1476 681 1476 c 0,16,17
 912 1476 912 1476 1063 1319 c 1,18,-1
 1174 1495 l 1,19,-1
 1240 1495 l 1,20,-1
 1100 1275 l 1,21,22
 1230 1103 1230 1103 1231 839 c 2,23,-1
 1231 619 l 2,0,1
188 619 m 2,24,25
 188 335 188 335 337 176 c 1,26,-1
 1033 1273 l 1,27,28
 901 1422 901 1422 681 1422 c 0,29,30
 456 1422 456 1422 322 1263.5 c 128,-1,31
 188 1105 188 1105 188 832 c 2,32,-1
 188 619 l 2,24,25
1177 839 m 2,33,34
 1177 1076 1177 1076 1070 1227 c 1,35,-1
 378 137 l 1,36,37
 502 34 502 34 683 34 c 0,38,39
 911 34 911 34 1044 193 c 128,-1,40
 1177 352 1177 352 1177 627 c 2,41,-1
 1177 839 l 2,33,34
EndSplineSet
Substitution2: "'c2sc' Capitals to Small Capitals lookup 0 subtable" Oslash.c2sc
Position2: "'cpsp' Capital Spacing lookup 0 subtable" dx=36 dy=0 dh=72 dv=0
EndChar

StartChar: Thorn
Encoding: 222 222 132
Width: 1219
GlyphClass: 1
Flags: W
LayerCount: 2
Fore
SplineSet
254 1456 m 1,0,-1
 254 1143 l 1,1,-1
 631 1143 l 2,2,3
 837 1141 837 1141 956 1030 c 128,-1,4
 1075 919 1075 919 1075 738 c 0,5,6
 1075 558 1075 558 957.5 448 c 128,-1,7
 840 338 840 338 639 334 c 1,8,-1
 254 334 l 1,9,-1
 254 0 l 1,10,-1
 200 0 l 1,11,-1
 200 1456 l 1,12,-1
 254 1456 l 1,0,-1
254 1089 m 1,13,-1
 254 388 l 1,14,-1
 625 388 l 2,15,16
 806 388 806 388 913.5 486 c 128,-1,17
 1021 584 1021 584 1021 736 c 0,18,19
 1021 889 1021 889 917.5 987 c 128,-1,20
 814 1085 814 1085 640 1089 c 1,21,-1
 254 1089 l 1,13,-1
EndSplineSet
Substitution2: "'c2sc' Capitals to Small Capitals lookup 0 subtable" Thorn.c2sc
Position2: "'cpsp' Capital Spacing lookup 0 subtable" dx=36 dy=0 dh=72 dv=0
EndChar

StartChar: germandbls
Encoding: 223 223 133
Width: 1183
GlyphClass: 1
Flags: W
LayerCount: 2
Fore
SplineSet
218 0 m 1,0,-1
 164 0 l 1,1,-1
 164 1143 l 2,2,3
 164 1334 164 1334 248.5 1434.5 c 128,-1,4
 333 1535 333 1535 493 1535 c 0,5,6
 619 1535 619 1535 711.5 1455.5 c 128,-1,7
 804 1376 804 1376 804 1257 c 0,8,9
 804 1157 804 1157 744.5 1050 c 128,-1,10
 685 943 685 943 685 829 c 0,11,12
 685 770 685 770 727.5 717 c 128,-1,13
 770 664 770 664 871 588.5 c 128,-1,14
 972 513 972 513 1017 445 c 128,-1,15
 1062 377 1062 377 1062 297 c 0,16,17
 1062 207 1062 207 1010 134.5 c 128,-1,18
 958 62 958 62 871 20.5 c 128,-1,19
 784 -21 784 -21 695 -21 c 0,20,21
 604 -21 604 -21 512.5 6.5 c 128,-1,22
 421 34 421 34 383 68 c 1,23,-1
 408 117 l 1,24,25
 452 82 452 82 533 57 c 128,-1,26
 614 32 614 32 687 32 c 0,27,28
 822 32 822 32 915 111 c 128,-1,29
 1008 190 1008 190 1008 306 c 0,30,31
 1008 371 1008 371 966.5 428 c 128,-1,32
 925 485 925 485 821.5 561 c 128,-1,33
 718 637 718 637 674.5 698.5 c 128,-1,34
 631 760 631 760 631 831 c 0,35,36
 631 942 631 942 687.5 1055 c 128,-1,37
 744 1168 744 1168 744 1259 c 0,38,39
 744 1349 744 1349 671 1415 c 128,-1,40
 598 1481 598 1481 503 1481 c 0,41,42
 222 1481 222 1481 218 1153 c 1,43,-1
 218 0 l 1,0,-1
EndSplineSet
Substitution2: "'smcp' Lowercase to Small Capitals lookup 1 subtable" germandbls.sc
EndChar

StartChar: ae
Encoding: 230 230 134
Width: 1735
GlyphClass: 2
Flags: W
LayerCount: 2
Fore
SplineSet
1268 -20 m 0,0,1
 1121 -20 1121 -20 1020.5 47.5 c 128,-1,2
 920 115 920 115 868 230 c 1,3,-1
 868 218 l 1,4,-1
 869 218 l 1,5,6
 821 111 821 111 706.5 45.5 c 128,-1,7
 592 -20 592 -20 448 -20 c 0,8,9
 280 -20 280 -20 186.5 62 c 128,-1,10
 93 144 93 144 93 284 c 0,11,12
 93 442 93 442 203.5 535 c 128,-1,13
 314 628 314 628 516 630 c 2,14,-1
 813 630 l 1,15,-1
 813 720 l 2,16,17
 813 876 813 876 741 962 c 128,-1,18
 669 1048 669 1048 521 1048 c 0,19,20
 363 1048 363 1048 268.5 972 c 128,-1,21
 174 896 174 896 174 771 c 1,22,-1
 121 778 l 1,23,24
 121 923 121 923 232.5 1012.5 c 128,-1,25
 344 1102 344 1102 521 1102 c 0,26,27
 662 1102 662 1102 749.5 1028 c 128,-1,28
 837 954 837 954 860 814 c 1,29,30
 916 951 916 951 1019.5 1026.5 c 128,-1,31
 1123 1102 1123 1102 1253 1102 c 0,32,33
 1439 1102 1439 1102 1548 985.5 c 128,-1,34
 1657 869 1657 869 1657 656 c 2,35,-1
 1657 577 l 1,36,-1
 870 577 l 1,37,-1
 870 500 l 2,38,39
 870 282 870 282 974.5 158 c 128,-1,40
 1079 34 1079 34 1268 34 c 0,41,42
 1472 34 1472 34 1600 164 c 1,43,-1
 1630 122 l 1,44,45
 1551 43 1551 43 1464.5 11.5 c 128,-1,46
 1378 -20 1378 -20 1268 -20 c 0,0,1
447 32 m 0,47,48
 528 32 528 32 606 60.5 c 128,-1,49
 684 89 684 89 741.5 136 c 128,-1,50
 799 183 799 183 813 225 c 1,51,-1
 813 575 l 1,52,-1
 512 575 l 2,53,54
 345 572 345 572 246.5 492 c 128,-1,55
 148 412 148 412 148 280 c 0,56,57
 148 164 148 164 224.5 98 c 128,-1,58
 301 32 301 32 447 32 c 0,47,48
1253 1048 m 0,59,60
 1100 1048 1100 1048 996 934.5 c 128,-1,61
 892 821 892 821 873 632 c 1,62,-1
 1603 632 l 1,63,-1
 1603 664 l 2,64,65
 1603 838 1603 838 1509.5 943 c 128,-1,66
 1416 1048 1416 1048 1253 1048 c 0,59,60
EndSplineSet
Substitution2: "'smcp' Lowercase to Small Capitals lookup 1 subtable" AE.c2sc
EndChar

StartChar: eth
Encoding: 240 240 135
Width: 1183
GlyphClass: 1
Flags: W
LayerCount: 2
Fore
SplineSet
802 1308 m 1,0,1
 923 1183 923 1183 982 1013.5 c 128,-1,2
 1041 844 1041 844 1041 615 c 2,3,-1
 1041 535 l 2,4,5
 1041 376 1041 376 989.5 249.5 c 128,-1,6
 938 123 938 123 843 51.5 c 128,-1,7
 748 -20 748 -20 629 -20 c 0,8,9
 500 -20 500 -20 395.5 43 c 128,-1,10
 291 106 291 106 232 218 c 128,-1,11
 173 330 173 330 173 465 c 0,12,13
 173 696 173 696 286 824.5 c 128,-1,14
 399 953 399 953 601 953 c 0,15,16
 714 953 714 953 815.5 908.5 c 128,-1,17
 917 864 917 864 977 780 c 1,18,19
 957 948 957 948 899 1069 c 128,-1,20
 841 1190 841 1190 752 1280 c 1,21,-1
 517 1149 l 1,22,-1
 489 1197 l 1,23,-1
 709 1320 l 1,24,25
 571 1441 571 1441 338 1527 c 1,26,-1
 358 1577 l 1,27,28
 610 1485 610 1485 760 1348 c 1,29,-1
 962 1461 l 1,30,-1
 991 1413 l 1,31,-1
 802 1308 l 1,0,1
987 617 m 1,32,-1
 986 672 l 1,33,34
 940 777 940 777 837 836 c 128,-1,35
 734 895 734 895 601 895 c 0,36,37
 424 895 424 895 326 781.5 c 128,-1,38
 228 668 228 668 228 465 c 0,39,40
 228 350 228 350 279.5 250 c 128,-1,41
 331 150 331 150 423 94 c 128,-1,42
 515 38 515 38 633 38 c 0,43,44
 789 38 789 38 886 171.5 c 128,-1,45
 983 305 983 305 987 520 c 1,46,-1
 987 617 l 1,32,-1
EndSplineSet
Substitution2: "'smcp' Lowercase to Small Capitals lookup 1 subtable" Eth.c2sc
EndChar

StartChar: divide
Encoding: 247 247 136
Width: 1159
GlyphClass: 1
Flags: W
LayerCount: 2
Fore
SplineSet
1071 686 m 1,0,-1
 73 686 l 1,1,-1
 73 738 l 1,2,-1
 1071 738 l 1,3,-1
 1071 686 l 1,0,-1
529 1079 m 256,4,5
 529 1102 529 1102 545 1118.5 c 128,-1,6
 561 1135 561 1135 584 1135 c 128,-1,7
 607 1135 607 1135 623.5 1118.5 c 128,-1,8
 640 1102 640 1102 640 1079 c 128,-1,9
 640 1056 640 1056 623.5 1040 c 128,-1,10
 607 1024 607 1024 584 1024 c 128,-1,11
 561 1024 561 1024 545 1040 c 128,-1,12
 529 1056 529 1056 529 1079 c 256,4,5
529 301 m 256,13,14
 529 324 529 324 545 340.5 c 128,-1,15
 561 357 561 357 584 357 c 128,-1,16
 607 357 607 357 623.5 340.5 c 128,-1,17
 640 324 640 324 640 301 c 128,-1,18
 640 278 640 278 623.5 262 c 128,-1,19
 607 246 607 246 584 246 c 128,-1,20
 561 246 561 246 545 262 c 128,-1,21
 529 278 529 278 529 301 c 256,13,14
EndSplineSet
EndChar

StartChar: oslash
Encoding: 248 248 137
Width: 1121
GlyphClass: 2
Flags: W
LayerCount: 2
Fore
SplineSet
87 562 m 2,0,1
 87 717 87 717 146.5 840.5 c 128,-1,2
 206 964 206 964 314.5 1033 c 128,-1,3
 423 1102 423 1102 560 1102 c 0,4,5
 680 1102 680 1102 784 1047 c 1,6,-1
 868 1219 l 1,7,-1
 931 1219 l 1,8,-1
 832 1016 l 1,9,10
 927 946 927 946 980.5 829 c 128,-1,11
 1034 712 1034 712 1034 562 c 2,12,-1
 1034 520 l 2,13,14
 1034 364 1034 364 975 241 c 128,-1,15
 916 118 916 118 807.5 49 c 128,-1,16
 699 -20 699 -20 562 -20 c 0,17,18
 450 -20 450 -20 352 28 c 1,19,-1
 268 -145 l 1,20,-1
 205 -145 l 1,21,-1
 303 56 l 1,22,23
 200 125 200 125 143.5 247.5 c 128,-1,24
 87 370 87 370 87 522 c 2,25,-1
 87 562 l 2,0,1
141 520 m 2,26,27
 141 388 141 388 190.5 279.5 c 128,-1,28
 240 171 240 171 327 107 c 1,29,-1
 759 995 l 1,30,31
 671 1048 671 1048 560 1048 c 0,32,33
 375 1048 375 1048 258 907 c 128,-1,34
 141 766 141 766 141 552 c 2,35,-1
 141 520 l 2,26,27
980 562 m 2,36,37
 980 684 980 684 934.5 790 c 128,-1,38
 889 896 889 896 806 963 c 1,39,-1
 376 77 l 1,40,41
 459 34 459 34 562 34 c 0,42,43
 747 34 747 34 863.5 173 c 128,-1,44
 980 312 980 312 980 531 c 2,45,-1
 980 562 l 2,36,37
EndSplineSet
Substitution2: "'smcp' Lowercase to Small Capitals lookup 1 subtable" Oslash.c2sc
EndChar

StartChar: thorn
Encoding: 254 254 138
Width: 1121
GlyphClass: 1
Flags: W
LayerCount: 2
Fore
SplineSet
999 531 m 2,0,1
 999 278 999 278 890 129 c 128,-1,2
 781 -20 781 -20 593 -20 c 0,3,4
 470 -20 470 -20 374 30 c 128,-1,5
 278 80 278 80 224 168 c 1,6,-1
 224 -416 l 1,7,-1
 170 -416 l 1,8,-1
 170 1536 l 1,9,-1
 224 1536 l 1,10,-1
 224 889 l 1,11,12
 280 992 280 992 375 1047 c 128,-1,13
 470 1102 470 1102 591 1102 c 0,14,15
 781 1102 781 1102 890 956.5 c 128,-1,16
 999 811 999 811 999 548 c 2,17,-1
 999 531 l 2,0,1
944 552 m 0,18,19
 944 785 944 785 851.5 916.5 c 128,-1,20
 759 1048 759 1048 592 1048 c 0,21,22
 456 1048 456 1048 361 977.5 c 128,-1,23
 266 907 266 907 224 775 c 1,24,-1
 224 269 l 1,25,26
 266 157 266 157 361.5 95.5 c 128,-1,27
 457 34 457 34 594 34 c 0,28,29
 760 34 760 34 852 166 c 128,-1,30
 944 298 944 298 944 552 c 0,18,19
EndSplineSet
Substitution2: "'smcp' Lowercase to Small Capitals lookup 1 subtable" Thorn.c2sc
EndChar

StartChar: dcroat
Encoding: 273 273 139
Width: 1121
GlyphClass: 2
Flags: W
LayerCount: 2
Fore
SplineSet
1111 1281 m 1,0,-1
 951 1281 l 1,1,-1
 951 0 l 1,2,-1
 897 0 l 1,3,-1
 897 173 l 1,4,5
 842 81 842 81 746 30.5 c 128,-1,6
 650 -20 650 -20 528 -20 c 0,7,8
 340 -20 340 -20 231 129 c 128,-1,9
 122 278 122 278 122 538 c 2,10,-1
 122 552 l 2,11,12
 122 811 122 811 231 956.5 c 128,-1,13
 340 1102 340 1102 530 1102 c 0,14,15
 652 1102 652 1102 745.5 1047 c 128,-1,16
 839 992 839 992 897 883 c 1,17,-1
 897 1281 l 1,18,-1
 524 1281 l 1,19,-1
 524 1335 l 1,20,-1
 897 1335 l 1,21,-1
 897 1536 l 1,22,-1
 951 1536 l 1,23,-1
 951 1335 l 1,24,-1
 1111 1335 l 1,25,-1
 1111 1281 l 1,0,-1
178 531 m 0,26,27
 178 301 178 301 269 167.5 c 128,-1,28
 360 34 360 34 527 34 c 0,29,30
 661 34 661 34 756 93.5 c 128,-1,31
 851 153 851 153 897 268 c 1,32,-1
 897 775 l 1,33,34
 804 1048 804 1048 529 1048 c 0,35,36
 363 1048 363 1048 270.5 917 c 128,-1,37
 178 786 178 786 178 531 c 0,26,27
EndSplineSet
Substitution2: "'smcp' Lowercase to Small Capitals lookup 1 subtable" Dcroat.c2sc
EndChar

StartChar: Hbar
Encoding: 294 294 140
Width: 1389
GlyphClass: 2
Flags: W
LayerCount: 2
Fore
SplineSet
1197 1081 m 1,0,-1
 1352 1081 l 1,1,-1
 1352 1028 l 1,2,-1
 1197 1028 l 1,3,-1
 1197 0 l 1,4,-1
 1143 0 l 1,5,-1
 1143 722 l 1,6,-1
 213 722 l 1,7,-1
 213 0 l 1,8,-1
 159 0 l 1,9,-1
 159 1028 l 1,10,-1
 20 1028 l 1,11,-1
 20 1081 l 1,12,-1
 159 1081 l 1,13,-1
 159 1456 l 1,14,-1
 213 1456 l 1,15,-1
 213 1081 l 1,16,-1
 1143 1081 l 1,17,-1
 1143 1456 l 1,18,-1
 1197 1456 l 1,19,-1
 1197 1081 l 1,0,-1
213 776 m 1,20,-1
 1143 776 l 1,21,-1
 1143 1028 l 1,22,-1
 213 1028 l 1,23,-1
 213 776 l 1,20,-1
EndSplineSet
Substitution2: "'c2sc' Capitals to Small Capitals lookup 0 subtable" Hbar.c2sc
Position2: "'cpsp' Capital Spacing lookup 0 subtable" dx=36 dy=0 dh=72 dv=0
EndChar

StartChar: dotlessi
Encoding: 305 305 141
Width: 406
GlyphClass: 2
Flags: W
LayerCount: 2
Fore
SplineSet
235 0 m 1,0,-1
 181 0 l 1,1,-1
 181 1082 l 1,2,-1
 235 1082 l 1,3,-1
 235 0 l 1,0,-1
EndSplineSet
Substitution2: "'smcp' Lowercase to Small Capitals lookup 1 subtable" I.c2sc
EndChar

StartChar: kgreenlandic
Encoding: 312 312 142
Width: 1084
GlyphClass: 2
Flags: W
LayerCount: 2
Fore
SplineSet
394 529 m 1,0,-1
 226 529 l 1,1,-1
 226 0 l 1,2,-1
 171 0 l 1,3,-1
 171 1082 l 1,4,-1
 226 1082 l 1,5,-1
 226 582 l 1,6,-1
 404 582 l 1,7,-1
 893 1082 l 1,8,-1
 962 1082 l 1,9,-1
 454 553 l 1,10,-1
 1025 0 l 1,11,-1
 954 0 l 1,12,-1
 394 529 l 1,0,-1
EndSplineSet
EndChar

StartChar: Lslash
Encoding: 321 321 143
Width: 1061
GlyphClass: 2
Flags: W
LayerCount: 2
Fore
SplineSet
247 791 m 1,0,-1
 598 902 l 1,1,-1
 598 845 l 1,2,-1
 247 734 l 1,3,-1
 247 54 l 1,4,-1
 994 54 l 1,5,-1
 994 0 l 1,6,-1
 192 0 l 1,7,-1
 192 716 l 1,8,-1
 8 658 l 1,9,-1
 8 715 l 1,10,-1
 192 773 l 1,11,-1
 192 1456 l 1,12,-1
 247 1456 l 1,13,-1
 247 791 l 1,0,-1
EndSplineSet
Substitution2: "'c2sc' Capitals to Small Capitals lookup 0 subtable" Lslash.c2sc
Position2: "'cpsp' Capital Spacing lookup 0 subtable" dx=36 dy=0 dh=72 dv=0
EndChar

StartChar: lslash
Encoding: 322 322 144
Width: 505
GlyphClass: 2
Flags: W
LayerCount: 2
Fore
SplineSet
286 850 m 1,0,-1
 487 930 l 1,1,-1
 487 871 l 1,2,-1
 286 791 l 1,3,-1
 286 0 l 1,4,-1
 232 0 l 1,5,-1
 232 769 l 1,6,-1
 17 684 l 1,7,-1
 17 743 l 1,8,-1
 232 828 l 1,9,-1
 232 1536 l 1,10,-1
 286 1536 l 1,11,-1
 286 850 l 1,0,-1
EndSplineSet
Substitution2: "'smcp' Lowercase to Small Capitals lookup 1 subtable" Lslash.c2sc
EndChar

StartChar: Eng
Encoding: 330 330 145
Width: 1450
GlyphClass: 2
Flags: W
LayerCount: 2
Fore
SplineSet
1250 1456 m 1,0,-1
 1250 -89 l 2,1,2
 1250 -259 1250 -259 1174.5 -348 c 128,-1,3
 1099 -437 1099 -437 965 -437 c 0,4,5
 911 -437 911 -437 853 -417 c 1,6,-1
 866 -365 l 1,7,8
 914 -383 914 -383 965 -383 c 0,9,10
 1076 -383 1076 -383 1136 -307 c 128,-1,11
 1196 -231 1196 -231 1196 -89 c 2,12,-1
 1196 0 l 1,13,-1
 254 1364 l 1,14,-1
 254 0 l 1,15,-1
 200 0 l 1,16,-1
 200 1456 l 1,17,-1
 254 1456 l 1,18,-1
 1196 93 l 1,19,-1
 1196 1456 l 1,20,-1
 1250 1456 l 1,0,-1
EndSplineSet
Substitution2: "'c2sc' Capitals to Small Capitals lookup 0 subtable" Eng.c2sc
Position2: "'cpsp' Capital Spacing lookup 0 subtable" dx=36 dy=0 dh=72 dv=0
EndChar

StartChar: eng
Encoding: 331 331 146
Width: 1121
GlyphClass: 2
Flags: W
LayerCount: 2
Fore
SplineSet
218 1082 m 1,0,-1
 224 858 l 1,1,2
 272 971 272 971 365 1036.5 c 128,-1,3
 458 1102 458 1102 600 1102 c 0,4,5
 777 1102 777 1102 864.5 992.5 c 128,-1,6
 952 883 952 883 954 649 c 2,7,-1
 954 -89 l 2,8,9
 954 -259 954 -259 878.5 -348 c 128,-1,10
 803 -437 803 -437 669 -437 c 0,11,12
 604 -437 604 -437 536 -417 c 1,13,-1
 549 -365 l 1,14,15
 606 -384 606 -384 669 -384 c 0,16,17
 780 -384 780 -384 840 -307.5 c 128,-1,18
 900 -231 900 -231 900 -89 c 2,19,-1
 900 639 l 2,20,21
 900 845 900 845 828 946.5 c 128,-1,22
 756 1048 756 1048 601 1048 c 0,23,24
 443 1048 443 1048 346 953 c 128,-1,25
 249 858 249 858 224 680 c 1,26,-1
 224 0 l 1,27,-1
 170 0 l 1,28,-1
 170 1082 l 1,29,-1
 218 1082 l 1,0,-1
EndSplineSet
Substitution2: "'smcp' Lowercase to Small Capitals lookup 1 subtable" Eng.c2sc
EndChar

StartChar: OE
Encoding: 338 338 147
Width: 1873
GlyphClass: 2
Flags: W
LayerCount: 2
Fore
SplineSet
1801 0 m 1,0,-1
 961 0 l 1,1,2
 762 -21 762 -21 631 -21 c 0,3,4
 481 -21 481 -21 363 53.5 c 128,-1,5
 245 128 245 128 179.5 262.5 c 128,-1,6
 114 397 114 397 112 565 c 2,7,-1
 112 880 l 2,8,9
 112 1052 112 1052 176.5 1188.5 c 128,-1,10
 241 1325 241 1325 360 1400.5 c 128,-1,11
 479 1476 479 1476 629 1476 c 0,12,13
 771 1476 771 1476 961 1456 c 1,14,-1
 1801 1456 l 1,15,-1
 1801 1402 l 1,16,-1
 969 1402 l 1,17,-1
 969 776 l 1,18,-1
 1699 776 l 1,19,-1
 1699 722 l 1,20,-1
 969 722 l 1,21,-1
 969 54 l 1,22,-1
 1801 54 l 1,23,-1
 1801 0 l 1,0,-1
631 33 m 0,24,25
 809 33 809 33 915 46 c 1,26,-1
 915 1409 l 1,27,28
 808 1422 808 1422 629 1422 c 0,29,30
 420 1422 420 1422 293 1274.5 c 128,-1,31
 166 1127 166 1127 166 875 c 2,32,-1
 166 576 l 2,33,34
 166 418 166 418 224.5 293.5 c 128,-1,35
 283 169 283 169 389 101 c 128,-1,36
 495 33 495 33 631 33 c 0,24,25
EndSplineSet
Substitution2: "'c2sc' Capitals to Small Capitals lookup 0 subtable" OE.c2sc
Position2: "'cpsp' Capital Spacing lookup 0 subtable" dx=36 dy=0 dh=72 dv=0
EndChar

StartChar: oe
Encoding: 339 339 148
Width: 1924
GlyphClass: 2
Flags: W
LayerCount: 2
Fore
SplineSet
92 562 m 2,0,1
 92 717 92 717 151.5 840.5 c 128,-1,2
 211 964 211 964 319.5 1033 c 128,-1,3
 428 1102 428 1102 565 1102 c 0,4,5
 731 1102 731 1102 849.5 1007 c 128,-1,6
 968 912 968 912 1015 747 c 1,7,8
 1061 908 1061 908 1176 1005 c 128,-1,9
 1291 1102 1291 1102 1441 1102 c 0,10,11
 1626 1102 1626 1102 1740.5 981 c 128,-1,12
 1855 860 1855 860 1855 656 c 2,13,-1
 1855 577 l 1,14,-1
 1044 577 l 1,15,-1
 1044 500 l 2,16,17
 1044 374 1044 374 1096.5 266 c 128,-1,18
 1149 158 1149 158 1242 96 c 128,-1,19
 1335 34 1335 34 1444 34 c 0,20,21
 1675 34 1675 34 1786 165 c 1,22,-1
 1815 123 l 1,23,24
 1687 -20 1687 -20 1444 -20 c 0,25,26
 1297 -20 1297 -20 1178 77 c 128,-1,27
 1059 174 1059 174 1013 331 c 1,28,29
 965 164 965 164 845.5 72 c 128,-1,30
 726 -20 726 -20 567 -20 c 0,31,32
 430 -20 430 -20 321.5 48 c 128,-1,33
 213 116 213 116 153 238.5 c 128,-1,34
 93 361 93 361 92 514 c 2,35,-1
 92 562 l 2,0,1
146 520 m 2,36,37
 146 385 146 385 199.5 272.5 c 128,-1,38
 253 160 253 160 348.5 97 c 128,-1,39
 444 34 444 34 567 34 c 0,40,41
 752 34 752 34 868.5 173 c 128,-1,42
 985 312 985 312 985 531 c 2,43,-1
 985 562 l 2,44,45
 985 695 985 695 931 808 c 128,-1,46
 877 921 877 921 781.5 984.5 c 128,-1,47
 686 1048 686 1048 565 1048 c 0,48,49
 380 1048 380 1048 263 907 c 128,-1,50
 146 766 146 766 146 552 c 2,51,-1
 146 520 l 2,36,37
1441 1048 m 0,52,53
 1283 1048 1283 1048 1174.5 931.5 c 128,-1,54
 1066 815 1066 815 1047 631 c 1,55,-1
 1801 631 l 1,56,-1
 1801 664 l 2,57,58
 1801 833 1801 833 1699.5 940.5 c 128,-1,59
 1598 1048 1598 1048 1441 1048 c 0,52,53
EndSplineSet
Substitution2: "'smcp' Lowercase to Small Capitals lookup 1 subtable" OE.c2sc
EndChar

StartChar: longs
Encoding: 383 383 149
Width: 422
GlyphClass: 2
Flags: W
LayerCount: 2
Fore
SplineSet
174 0 m 1,0,-1
 174 1236 l 2,1,2
 174 1392 174 1392 248.5 1474.5 c 128,-1,3
 323 1557 323 1557 456 1557 c 0,4,5
 531 1557 531 1557 584 1540 c 1,6,-1
 576 1488 l 1,7,8
 524 1503 524 1503 457 1503 c 0,9,10
 350 1503 350 1503 289 1433.5 c 128,-1,11
 228 1364 228 1364 228 1236 c 2,12,-1
 228 0 l 1,13,-1
 174 0 l 1,0,-1
EndSplineSet
EndChar

StartChar: uni018F
Encoding: 399 399 150
Width: 1452
GlyphClass: 2
Flags: W
LayerCount: 2
Fore
SplineSet
754 -20 m 0,0,1
 480 -20 480 -20 318 145.5 c 128,-1,2
 156 311 156 311 156 593 c 2,3,-1
 156 711 l 1,4,-1
 1273 711 l 1,5,-1
 1273 835 l 2,6,7
 1273 1110 1273 1110 1129.5 1266 c 128,-1,8
 986 1422 986 1422 728 1422 c 0,9,10
 581 1422 581 1422 467.5 1379 c 128,-1,11
 354 1336 354 1336 273 1268 c 1,12,-1
 243 1311 l 1,13,-1
 306 1360 l 1,14,15
 471 1476 471 1476 728 1476 c 0,16,17
 1004 1476 1004 1476 1165.5 1304.5 c 128,-1,18
 1327 1133 1327 1133 1327 825 c 2,19,-1
 1327 663 l 2,20,21
 1327 467 1327 467 1253.5 310.5 c 128,-1,22
 1180 154 1180 154 1048.5 67 c 128,-1,23
 917 -20 917 -20 754 -20 c 0,0,1
754 34 m 0,24,25
 905 34 905 34 1022 112 c 128,-1,26
 1139 190 1139 190 1205.5 334.5 c 128,-1,27
 1272 479 1272 479 1273 656 c 1,28,-1
 210 656 l 1,29,-1
 210 584 l 2,30,31
 210 426 210 426 276 300 c 128,-1,32
 342 174 342 174 466 104 c 128,-1,33
 590 34 590 34 754 34 c 0,24,25
EndSplineSet
EndChar

StartChar: florin
Encoding: 402 402 151
Width: 644
GlyphClass: 1
Flags: W
LayerCount: 2
Fore
SplineSet
593 1027 m 1,0,-1
 307 1027 l 1,1,-1
 307 -89 l 2,2,3
 307 -259 307 -259 232 -348 c 128,-1,4
 157 -437 157 -437 22 -437 c 0,5,6
 -32 -437 -32 -437 -90 -417 c 1,7,-1
 -77 -365 l 1,8,9
 -29 -383 -29 -383 22 -383 c 0,10,11
 134 -383 134 -383 193.5 -307 c 128,-1,12
 253 -231 253 -231 253 -89 c 2,13,-1
 253 1027 l 1,14,-1
 65 1027 l 1,15,-1
 65 1082 l 1,16,-1
 253 1082 l 1,17,-1
 253 1240 l 2,18,19
 254 1390 254 1390 328.5 1473.5 c 128,-1,20
 403 1557 403 1557 536 1557 c 0,21,22
 610 1557 610 1557 664 1540 c 1,23,-1
 656 1488 l 1,24,25
 604 1503 604 1503 537 1503 c 0,26,27
 430 1503 430 1503 368.5 1433.5 c 128,-1,28
 307 1364 307 1364 307 1236 c 2,29,-1
 307 1082 l 1,30,-1
 593 1082 l 1,31,-1
 593 1027 l 1,0,-1
EndSplineSet
EndChar

StartChar: Ohorn
Encoding: 416 416 152
Width: 1451
GlyphClass: 2
Flags: W
LayerCount: 2
Fore
SplineSet
1262 619 m 2,0,1
 1262 430 1262 430 1194.5 284.5 c 128,-1,2
 1127 139 1127 139 1002 59.5 c 128,-1,3
 877 -20 877 -20 714 -20 c 0,4,5
 468 -20 468 -20 316 155 c 128,-1,6
 164 330 164 330 164 627 c 2,7,-1
 164 837 l 2,8,9
 164 1025 164 1025 231.5 1171 c 128,-1,10
 299 1317 299 1317 424.5 1396.5 c 128,-1,11
 550 1476 550 1476 712 1476 c 0,12,13
 860 1476 860 1476 972.5 1413 c 128,-1,14
 1085 1350 1085 1350 1157 1238 c 1,15,16
 1287 1240 1287 1240 1346 1305.5 c 128,-1,17
 1405 1371 1405 1371 1405 1541 c 1,18,-1
 1459 1541 l 1,19,20
 1459 1367 1459 1367 1394 1281.5 c 128,-1,21
 1329 1196 1329 1196 1187 1185 c 1,22,23
 1260 1036 1260 1036 1262 846 c 2,24,-1
 1262 619 l 2,0,1
1208 839 m 2,25,26
 1208 1103 1208 1103 1074 1262.5 c 128,-1,27
 940 1422 940 1422 712 1422 c 0,28,29
 487 1422 487 1422 353 1263.5 c 128,-1,30
 219 1105 219 1105 219 832 c 2,31,-1
 219 619 l 2,32,33
 219 445 219 445 279.5 311.5 c 128,-1,34
 340 178 340 178 452 106 c 128,-1,35
 564 34 564 34 714 34 c 0,36,37
 942 34 942 34 1075 193 c 128,-1,38
 1208 352 1208 352 1208 627 c 2,39,-1
 1208 839 l 2,25,26
EndSplineSet
EndChar

StartChar: ohorn
Encoding: 417 417 153
Width: 1122
GlyphClass: 2
Flags: W
LayerCount: 2
Fore
SplineSet
87 562 m 2,0,1
 87 717 87 717 146.5 840.5 c 128,-1,2
 206 964 206 964 314.5 1033 c 128,-1,3
 423 1102 423 1102 560 1102 c 0,4,5
 769 1102 769 1102 901 953 c 1,6,7
 1009 956 1009 956 1056 1007.5 c 128,-1,8
 1103 1059 1103 1059 1103 1196 c 1,9,-1
 1158 1196 l 1,10,11
 1158 1053 1158 1053 1106.5 983.5 c 128,-1,12
 1055 914 1055 914 940 901 c 1,13,14
 1032 761 1032 761 1034 569 c 2,15,-1
 1034 520 l 2,16,17
 1034 364 1034 364 975 241 c 128,-1,18
 916 118 916 118 807.5 49 c 128,-1,19
 699 -20 699 -20 562 -20 c 128,-1,20
 425 -20 425 -20 316.5 48 c 128,-1,21
 208 116 208 116 148 238.5 c 128,-1,22
 88 361 88 361 87 514 c 2,23,-1
 87 562 l 2,0,1
141 520 m 2,24,25
 141 385 141 385 194.5 272.5 c 128,-1,26
 248 160 248 160 343.5 97 c 128,-1,27
 439 34 439 34 562 34 c 0,28,29
 747 34 747 34 863.5 173 c 128,-1,30
 980 312 980 312 980 531 c 2,31,-1
 980 562 l 2,32,33
 980 695 980 695 926 808 c 128,-1,34
 872 921 872 921 776.5 984.5 c 128,-1,35
 681 1048 681 1048 560 1048 c 0,36,37
 375 1048 375 1048 258 907 c 128,-1,38
 141 766 141 766 141 552 c 2,39,-1
 141 520 l 2,24,25
EndSplineSet
EndChar

StartChar: Uhorn
Encoding: 431 431 154
Width: 1365
GlyphClass: 2
Flags: W
LayerCount: 2
Fore
SplineSet
1180 1456 m 1,0,-1
 1180 1248 l 1,1,2
 1302 1253 1302 1253 1358 1320 c 128,-1,3
 1414 1387 1414 1387 1414 1551 c 1,4,-1
 1468 1551 l 1,5,6
 1468 1368 1468 1368 1398 1284 c 128,-1,7
 1328 1200 1328 1200 1180 1194 c 1,8,-1
 1180 470 l 2,9,10
 1180 239 1180 239 1046 109.5 c 128,-1,11
 912 -20 912 -20 683 -20 c 128,-1,12
 454 -20 454 -20 320 109.5 c 128,-1,13
 186 239 186 239 185 466 c 2,14,-1
 185 1456 l 1,15,-1
 239 1456 l 1,16,-1
 239 472 l 2,17,18
 239 270 239 270 360.5 152 c 128,-1,19
 482 34 482 34 683 34 c 128,-1,20
 884 34 884 34 1005 152 c 128,-1,21
 1126 270 1126 270 1126 473 c 2,22,-1
 1126 1456 l 1,23,-1
 1180 1456 l 1,0,-1
EndSplineSet
EndChar

StartChar: uhorn
Encoding: 432 432 155
Width: 1133
GlyphClass: 2
Flags: W
LayerCount: 2
Fore
SplineSet
1187 1190 m 1,0,1
 1187 1042 1187 1042 1130.5 972 c 128,-1,2
 1074 902 1074 902 952 893 c 1,3,-1
 952 0 l 1,4,-1
 897 0 l 1,5,-1
 897 175 l 1,6,7
 849 85 849 85 757 32.5 c 128,-1,8
 665 -20 665 -20 524 -20 c 0,9,10
 347 -20 347 -20 258.5 83.5 c 128,-1,11
 170 187 170 187 168 385 c 2,12,-1
 168 1082 l 1,13,-1
 222 1082 l 1,14,-1
 222 383 l 2,15,16
 224 211 224 211 300 122.5 c 128,-1,17
 376 34 376 34 522 34 c 0,18,19
 677 34 677 34 774 107 c 128,-1,20
 871 180 871 180 897 321 c 1,21,-1
 897 1082 l 1,22,-1
 952 1082 l 1,23,-1
 952 947 l 1,24,25
 1047 954 1047 954 1089.5 1006 c 128,-1,26
 1132 1058 1132 1058 1132 1190 c 1,27,-1
 1187 1190 l 1,0,1
EndSplineSet
EndChar

StartChar: uni0237
Encoding: 567 567 156
Width: 422
GlyphClass: 2
Flags: W
LayerCount: 2
Fore
SplineSet
240 1082 m 1,0,-1
 240 -89 l 2,1,2
 240 -259 240 -259 165 -348 c 128,-1,3
 90 -437 90 -437 -45 -437 c 0,4,5
 -99 -437 -99 -437 -157 -417 c 1,6,-1
 -144 -365 l 1,7,8
 -96 -383 -96 -383 -45 -383 c 0,9,10
 67 -383 67 -383 126.5 -307 c 128,-1,11
 186 -231 186 -231 186 -89 c 2,12,-1
 186 1082 l 1,13,-1
 240 1082 l 1,0,-1
EndSplineSet
EndChar

StartChar: uni0259
Encoding: 601 601 157
Width: 1032
GlyphClass: 2
Flags: W
LayerCount: 2
Fore
SplineSet
498 1102 m 0,0,1
 618 1102 618 1102 724 1032.5 c 128,-1,2
 830 963 830 963 891 843.5 c 128,-1,3
 952 724 952 724 952 583 c 2,4,-1
 952 517 l 2,5,6
 952 366 952 366 892.5 242 c 128,-1,7
 833 118 833 118 729.5 48.5 c 128,-1,8
 626 -21 626 -21 501 -21 c 0,9,10
 316 -21 316 -21 201.5 100 c 128,-1,11
 87 221 87 221 87 425 c 2,12,-1
 87 504 l 1,13,-1
 897 504 l 1,14,-1
 898 581 l 2,15,16
 898 708 898 708 845.5 815.5 c 128,-1,17
 793 923 793 923 700.5 985.5 c 128,-1,18
 608 1048 608 1048 498 1048 c 0,19,20
 386 1048 386 1048 302 1017.5 c 128,-1,21
 218 987 218 987 156 916 c 1,22,-1
 127 958 l 1,23,24
 256 1102 256 1102 498 1102 c 0,0,1
894 450 m 1,25,-1
 141 450 l 1,26,-1
 141 417 l 2,27,28
 141 248 141 248 242.5 140.5 c 128,-1,29
 344 33 344 33 501 33 c 128,-1,30
 658 33 658 33 766.5 149.5 c 128,-1,31
 875 266 875 266 894 450 c 1,25,-1
EndSplineSet
EndChar

StartChar: circumflex
Encoding: 710 710 158
Width: 796
GlyphClass: 1
Flags: W
LayerCount: 2
Fore
SplineSet
656 1274 m 1,0,-1
 656 1264 l 1,1,-1
 588 1264 l 1,2,-1
 401 1460 l 1,3,-1
 216 1264 l 1,4,-1
 152 1264 l 1,5,-1
 152 1278 l 1,6,-1
 382 1517 l 1,7,-1
 422 1517 l 1,8,-1
 656 1274 l 1,0,-1
EndSplineSet
EndChar

StartChar: caron
Encoding: 711 711 159
Width: 764
GlyphClass: 1
Flags: W
LayerCount: 2
Fore
SplineSet
396 1289 m 1,0,-1
 590 1506 l 1,1,-1
 643 1506 l 1,2,-1
 643 1493 l 1,3,-1
 425 1243 l 1,4,-1
 366 1243 l 1,5,-1
 146 1495 l 1,6,-1
 146 1506 l 1,7,-1
 203 1506 l 1,8,-1
 396 1289 l 1,0,-1
EndSplineSet
EndChar

StartChar: breve
Encoding: 728 728 161
Width: 857
GlyphClass: 1
Flags: W
LayerCount: 2
Fore
SplineSet
704 1486 m 1,0,1
 704 1374 704 1374 628.5 1306 c 128,-1,2
 553 1238 553 1238 426 1238 c 0,3,4
 298 1238 298 1238 222.5 1306 c 128,-1,5
 147 1374 147 1374 147 1486 c 1,6,-1
 201 1486 l 1,7,8
 201 1395 201 1395 258 1344.5 c 128,-1,9
 315 1294 315 1294 426 1294 c 0,10,11
 533 1294 533 1294 591.5 1345.5 c 128,-1,12
 650 1397 650 1397 650 1486 c 1,13,-1
 704 1486 l 1,0,1
EndSplineSet
EndChar

StartChar: dotaccent
Encoding: 729 729 162
Width: 422
GlyphClass: 1
Flags: W
LayerCount: 2
Fore
SplineSet
156 1397 m 256,0,1
 156 1420 156 1420 172 1436.5 c 128,-1,2
 188 1453 188 1453 211 1453 c 128,-1,3
 234 1453 234 1453 250.5 1436.5 c 128,-1,4
 267 1420 267 1420 267 1397 c 128,-1,5
 267 1374 267 1374 250.5 1358 c 128,-1,6
 234 1342 234 1342 211 1342 c 128,-1,7
 188 1342 188 1342 172 1358 c 128,-1,8
 156 1374 156 1374 156 1397 c 256,0,1
EndSplineSet
EndChar

StartChar: ring
Encoding: 730 730 163
Width: 586
GlyphClass: 1
Flags: W
LayerCount: 2
Fore
SplineSet
285 1556 m 0,0,1
 357 1556 357 1556 406.5 1505 c 128,-1,2
 456 1454 456 1454 456 1382 c 128,-1,3
 456 1310 456 1310 406.5 1261 c 128,-1,4
 357 1212 357 1212 285 1212 c 0,5,6
 216 1212 216 1212 165 1259.5 c 128,-1,7
 114 1307 114 1307 114 1382 c 128,-1,8
 114 1457 114 1457 164.5 1506.5 c 128,-1,9
 215 1556 215 1556 285 1556 c 0,0,1
168 1382 m 0,10,11
 168 1330 168 1330 201 1298 c 128,-1,12
 234 1266 234 1266 285 1266 c 128,-1,13
 336 1266 336 1266 369 1298 c 128,-1,14
 402 1330 402 1330 402 1382 c 0,15,16
 402 1436 402 1436 369 1469 c 128,-1,17
 336 1502 336 1502 285 1502 c 128,-1,18
 234 1502 234 1502 201 1469 c 128,-1,19
 168 1436 168 1436 168 1382 c 0,10,11
EndSplineSet
EndChar

StartChar: ogonek
Encoding: 731 731 164
Width: 471
GlyphClass: 2
Flags: W
LayerCount: 2
Fore
SplineSet
313 0 m 1,0,1
 201 -87 201 -87 163 -140.5 c 128,-1,2
 125 -194 125 -194 125 -246 c 0,3,4
 125 -341 125 -341 218 -341 c 0,5,6
 275 -341 275 -341 328 -303 c 1,7,-1
 344 -351 l 1,8,9
 288 -395 288 -395 218 -395 c 0,10,11
 151 -395 151 -395 111 -358.5 c 128,-1,12
 71 -322 71 -322 71 -246 c 0,13,14
 71 -129 71 -129 270 20 c 1,15,-1
 313 0 l 1,0,1
EndSplineSet
EndChar

StartChar: tilde
Encoding: 732 732 165
Width: 817
GlyphClass: 1
Flags: W
LayerCount: 2
Fore
SplineSet
729 1472 m 1,0,1
 729 1390 729 1390 678.5 1338 c 128,-1,2
 628 1286 628 1286 553 1286 c 0,3,4
 472 1286 472 1286 400 1348.5 c 128,-1,5
 328 1411 328 1411 266 1411 c 0,6,7
 210 1411 210 1411 177.5 1377 c 128,-1,8
 145 1343 145 1343 145 1286 c 1,9,-1
 90 1286 l 1,10,11
 90 1366 90 1366 140 1415.5 c 128,-1,12
 190 1465 190 1465 266 1465 c 0,13,14
 344 1465 344 1465 419.5 1403 c 128,-1,15
 495 1341 495 1341 553 1341 c 0,16,17
 607 1341 607 1341 640.5 1377 c 128,-1,18
 674 1413 674 1413 674 1472 c 1,19,-1
 729 1472 l 1,0,1
EndSplineSet
EndChar

StartChar: hungarumlaut
Encoding: 733 733 166
Width: 783
GlyphClass: 1
Flags: W
LayerCount: 2
Fore
SplineSet
662 1536 m 1,0,-1
 742 1536 l 1,1,-1
 454 1232 l 1,2,-1
 381 1232 l 1,3,-1
 662 1536 l 1,0,-1
382 1536 m 1,4,-1
 458 1536 l 1,5,-1
 215 1232 l 1,6,-1
 146 1232 l 1,7,-1
 382 1536 l 1,4,-1
EndSplineSet
EndChar

StartChar: uni02F3
Encoding: 755 755 167
Width: 642
GlyphClass: 1
Flags: W
LayerCount: 2
Fore
SplineSet
189 -219 m 0,0,1
 189 -171 189 -171 227.5 -135 c 128,-1,2
 266 -99 266 -99 323 -99 c 0,3,4
 379 -99 379 -99 417.5 -135 c 128,-1,5
 456 -171 456 -171 456 -219 c 0,6,7
 456 -268 456 -268 416.5 -301.5 c 128,-1,8
 377 -335 377 -335 323 -335 c 0,9,10
 268 -335 268 -335 228.5 -301.5 c 128,-1,11
 189 -268 189 -268 189 -219 c 0,0,1
247 -219 m 0,12,13
 247 -245 247 -245 269 -262 c 128,-1,14
 291 -279 291 -279 323 -279 c 128,-1,15
 355 -279 355 -279 377 -262 c 128,-1,16
 399 -245 399 -245 399 -219 c 0,17,18
 399 -192 399 -192 377 -174.5 c 128,-1,19
 355 -157 355 -157 323 -157 c 128,-1,20
 291 -157 291 -157 269 -174.5 c 128,-1,21
 247 -192 247 -192 247 -219 c 0,12,13
EndSplineSet
EndChar

StartChar: gravecomb
Encoding: 768 768 168
Width: 0
GlyphClass: 4
Flags: W
LayerCount: 2
Fore
SplineSet
-490 1270 m 1,0,-1
 -549 1270 l 1,1,-1
 -744 1536 l 1,2,-1
 -678 1536 l 1,3,-1
 -490 1270 l 1,0,-1
EndSplineSet
EndChar

StartChar: acutecomb
Encoding: 769 769 169
Width: 0
GlyphClass: 4
Flags: W
LayerCount: 2
Fore
SplineSet
-385 1536 m 1,0,-1
 -319 1536 l 1,1,-1
 -514 1270 l 1,2,-1
 -574 1270 l 1,3,-1
 -385 1536 l 1,0,-1
EndSplineSet
EndChar

StartChar: hookabovecomb
Encoding: 777 777 171
Width: 0
GlyphClass: 4
Flags: W
LayerCount: 2
Fore
SplineSet
-598 1227 m 1,0,-1
 -598 1326 l 1,1,2
 -499 1334 -499 1334 -454 1359 c 128,-1,3
 -409 1384 -409 1384 -409 1440 c 0,4,5
 -409 1491 -409 1491 -473 1520.5 c 128,-1,6
 -537 1550 -537 1550 -645 1550 c 1,7,-1
 -638 1599 l 1,8,9
 -514 1599 -514 1599 -433.5 1557 c 128,-1,10
 -353 1515 -353 1515 -353 1440 c 0,11,12
 -353 1370 -353 1370 -403 1329 c 128,-1,13
 -453 1288 -453 1288 -550 1281 c 1,14,-1
 -550 1227 l 1,15,-1
 -598 1227 l 1,0,-1
EndSplineSet
EndChar

StartChar: uni030F
Encoding: 783 783 172
Width: 0
GlyphClass: 4
Flags: W
LayerCount: 2
Fore
SplineSet
-598 1252 m 1,0,-1
 -671 1252 l 1,1,-1
 -969 1518 l 1,2,-1
 -889 1518 l 1,3,-1
 -598 1252 l 1,0,-1
-373 1252 m 1,4,-1
 -442 1252 l 1,5,-1
 -695 1518 l 1,6,-1
 -619 1518 l 1,7,-1
 -373 1252 l 1,4,-1
EndSplineSet
EndChar

StartChar: dotbelowcomb
Encoding: 803 803 173
Width: 0
GlyphClass: 4
Flags: W
LayerCount: 2
Fore
SplineSet
-632 -218 m 256,0,1
 -632 -195 -632 -195 -616 -178.5 c 128,-1,2
 -600 -162 -600 -162 -577 -162 c 128,-1,3
 -554 -162 -554 -162 -537.5 -178.5 c 128,-1,4
 -521 -195 -521 -195 -521 -218 c 128,-1,5
 -521 -241 -521 -241 -537.5 -257 c 128,-1,6
 -554 -273 -554 -273 -577 -273 c 128,-1,7
 -600 -273 -600 -273 -616 -257 c 128,-1,8
 -632 -241 -632 -241 -632 -218 c 256,0,1
EndSplineSet
EndChar

StartChar: tonos
Encoding: 900 900 174
Width: 514
GlyphClass: 1
Flags: W
LayerCount: 2
Fore
SplineSet
309 1578 m 1,0,-1
 372 1578 l 1,1,-1
 269 1305 l 1,2,-1
 216 1305 l 1,3,-1
 309 1578 l 1,0,-1
EndSplineSet
EndChar

StartChar: dieresistonos
Encoding: 901 901 175
Width: 928
GlyphClass: 1
Flags: W
LayerCount: 2
Fore
SplineSet
466 1657 m 1,0,-1
 545 1657 l 1,1,-1
 502 1417 l 1,2,-1
 443 1417 l 1,3,-1
 466 1657 l 1,0,-1
194 1421 m 256,4,5
 194 1444 194 1444 210 1460.5 c 128,-1,6
 226 1477 226 1477 249 1477 c 128,-1,7
 272 1477 272 1477 288.5 1460.5 c 128,-1,8
 305 1444 305 1444 305 1421 c 128,-1,9
 305 1398 305 1398 288.5 1382 c 128,-1,10
 272 1366 272 1366 249 1366 c 128,-1,11
 226 1366 226 1366 210 1382 c 128,-1,12
 194 1398 194 1398 194 1421 c 256,4,5
639 1421 m 256,13,14
 639 1444 639 1444 655 1460.5 c 128,-1,15
 671 1477 671 1477 694 1477 c 128,-1,16
 717 1477 717 1477 733.5 1460.5 c 128,-1,17
 750 1444 750 1444 750 1421 c 128,-1,18
 750 1398 750 1398 733.5 1382 c 128,-1,19
 717 1366 717 1366 694 1366 c 128,-1,20
 671 1366 671 1366 655 1382 c 128,-1,21
 639 1398 639 1398 639 1421 c 256,13,14
EndSplineSet
EndChar

StartChar: Gamma
Encoding: 915 915 177
Width: 1122
GlyphClass: 2
Flags: W
LayerCount: 2
Fore
SplineSet
1055 1402 m 1,0,-1
 247 1402 l 1,1,-1
 247 0 l 1,2,-1
 193 0 l 1,3,-1
 193 1456 l 1,4,-1
 1055 1456 l 1,5,-1
 1055 1402 l 1,0,-1
EndSplineSet
Substitution2: "'c2sc' Capitals to Small Capitals lookup 0 subtable" Gamma.c2sc
Position2: "'cpsp' Capital Spacing lookup 0 subtable" dx=36 dy=0 dh=72 dv=0
EndChar

StartChar: uni0394
Encoding: 916 916 178
AltUni2: 002206.ffffffff.0 002206.ffffffff.0
Width: 1411
GlyphClass: 1
Flags: W
LayerCount: 2
Fore
SplineSet
674 1456 m 1,0,-1
 739 1456 l 1,1,-1
 1356 0 l 1,2,-1
 58 0 l 1,3,-1
 674 1456 l 1,0,-1
140 54 m 1,4,-1
 1273 54 l 1,5,-1
 736 1325 l 1,6,-1
 706 1405 l 1,7,-1
 676 1325 l 1,8,-1
 140 54 l 1,4,-1
EndSplineSet
Substitution2: "'c2sc' Capitals to Small Capitals lookup 0 subtable" uni0394.c2sc
Position2: "'cpsp' Capital Spacing lookup 0 subtable" dx=36 dy=0 dh=72 dv=0
EndChar

StartChar: Theta
Encoding: 920 920 179
Width: 1364
GlyphClass: 1
Flags: W
LayerCount: 2
Fore
SplineSet
971 691 m 1,0,-1
 380 691 l 1,1,-1
 380 744 l 1,2,-1
 971 744 l 1,3,-1
 971 691 l 1,0,-1
1231 619 m 2,4,5
 1231 430 1231 430 1163.5 284.5 c 128,-1,6
 1096 139 1096 139 971 59.5 c 128,-1,7
 846 -20 846 -20 683 -20 c 0,8,9
 437 -20 437 -20 285 155 c 128,-1,10
 133 330 133 330 133 627 c 2,11,-1
 133 837 l 2,12,13
 133 1025 133 1025 200.5 1171 c 128,-1,14
 268 1317 268 1317 393.5 1396.5 c 128,-1,15
 519 1476 519 1476 681 1476 c 0,16,17
 844 1476 844 1476 969.5 1396.5 c 128,-1,18
 1095 1317 1095 1317 1163 1170.5 c 128,-1,19
 1231 1024 1231 1024 1231 837 c 2,20,-1
 1231 619 l 2,4,5
1177 839 m 2,21,22
 1177 1103 1177 1103 1043 1262.5 c 128,-1,23
 909 1422 909 1422 681 1422 c 0,24,25
 456 1422 456 1422 322 1263.5 c 128,-1,26
 188 1105 188 1105 188 832 c 2,27,-1
 188 619 l 2,28,29
 188 445 188 445 248.5 311.5 c 128,-1,30
 309 178 309 178 421 106 c 128,-1,31
 533 34 533 34 683 34 c 0,32,33
 911 34 911 34 1044 193 c 128,-1,34
 1177 352 1177 352 1177 627 c 2,35,-1
 1177 839 l 2,21,22
EndSplineSet
Substitution2: "'c2sc' Capitals to Small Capitals lookup 0 subtable" Theta.c2sc
Position2: "'cpsp' Capital Spacing lookup 0 subtable" dx=36 dy=0 dh=72 dv=0
EndChar

StartChar: Lambda
Encoding: 923 923 180
Width: 1313
GlyphClass: 1
Flags: W
LayerCount: 2
Fore
SplineSet
653 1386 m 1,0,-1
 146 0 l 1,1,-1
 87 0 l 1,2,-1
 621 1456 l 1,3,-1
 686 1456 l 1,4,-1
 1221 0 l 1,5,-1
 1162 0 l 1,6,-1
 653 1386 l 1,0,-1
EndSplineSet
Substitution2: "'c2sc' Capitals to Small Capitals lookup 0 subtable" Lambda.c2sc
Position2: "'cpsp' Capital Spacing lookup 0 subtable" dx=36 dy=0 dh=72 dv=0
EndChar

StartChar: Xi
Encoding: 926 926 181
Width: 1121
GlyphClass: 1
Flags: W
LayerCount: 2
Fore
SplineSet
112 54 m 1,0,-1
 1017 54 l 1,1,-1
 1017 0 l 1,2,-1
 112 0 l 1,3,-1
 112 54 l 1,0,-1
220 741 m 1,4,-1
 901 741 l 1,5,-1
 901 687 l 1,6,-1
 220 687 l 1,7,-1
 220 741 l 1,4,-1
133 1456 m 1,8,-1
 978 1456 l 1,9,-1
 978 1403 l 1,10,-1
 133 1403 l 1,11,-1
 133 1456 l 1,8,-1
EndSplineSet
Substitution2: "'c2sc' Capitals to Small Capitals lookup 0 subtable" Xi.c2sc
Position2: "'cpsp' Capital Spacing lookup 0 subtable" dx=36 dy=0 dh=72 dv=0
EndChar

StartChar: Pi
Encoding: 928 928 182
Width: 1438
GlyphClass: 1
Flags: W
LayerCount: 2
Fore
SplineSet
1238 0 m 1,0,-1
 1184 0 l 1,1,-1
 1184 1402 l 1,2,-1
 254 1402 l 1,3,-1
 254 0 l 1,4,-1
 200 0 l 1,5,-1
 200 1456 l 1,6,-1
 1238 1456 l 1,7,-1
 1238 0 l 1,0,-1
EndSplineSet
Substitution2: "'c2sc' Capitals to Small Capitals lookup 0 subtable" Pi.c2sc
Position2: "'cpsp' Capital Spacing lookup 0 subtable" dx=36 dy=0 dh=72 dv=0
EndChar

StartChar: Sigma
Encoding: 931 931 183
Width: 1121
GlyphClass: 1
Flags: W
LayerCount: 2
Fore
SplineSet
656 768 m 1,0,-1
 133 54 l 1,1,-1
 1049 54 l 1,2,-1
 1049 0 l 1,3,-1
 57 0 l 1,4,-1
 57 44 l 1,5,-1
 604 787 l 1,6,-1
 57 1412 l 1,7,-1
 57 1456 l 1,8,-1
 94 1456 l 1,9,-1
 96 1453 l 1,10,-1
 96 1456 l 1,11,-1
 989 1456 l 1,12,-1
 989 1403 l 1,13,-1
 140 1403 l 1,14,-1
 656 815 l 1,15,-1
 656 768 l 1,0,-1
EndSplineSet
Substitution2: "'c2sc' Capitals to Small Capitals lookup 0 subtable" Sigma.c2sc
Position2: "'cpsp' Capital Spacing lookup 0 subtable" dx=36 dy=0 dh=72 dv=0
EndChar

StartChar: Phi
Encoding: 934 934 184
Width: 1462
GlyphClass: 1
Flags: W
LayerCount: 2
Fore
SplineSet
757 1266 m 1,0,1
 935 1264 935 1264 1072.5 1196.5 c 128,-1,2
 1210 1129 1210 1129 1286 1008 c 128,-1,3
 1362 887 1362 887 1362 739 c 0,4,5
 1362 590 1362 590 1286.5 469 c 128,-1,6
 1211 348 1211 348 1073 279.5 c 128,-1,7
 935 211 935 211 757 209 c 1,8,-1
 757 0 l 1,9,-1
 702 0 l 1,10,-1
 702 209 l 1,11,12
 432 213 432 213 266 360.5 c 128,-1,13
 100 508 100 508 100 737 c 1,14,-1
 102 783 l 1,15,16
 119 982 119 982 266 1114 c 0,17,18
 432 1261 432 1261 702 1265 c 1,19,-1
 702 1456 l 1,20,-1
 757 1456 l 1,21,-1
 757 1266 l 1,0,1
1307 739 m 0,22,23
 1307 875 1307 875 1238 983.5 c 128,-1,24
 1169 1092 1169 1092 1045 1150.5 c 128,-1,25
 921 1209 921 1209 757 1212 c 1,26,-1
 757 263 l 1,27,28
 1006 265 1006 265 1156.5 397 c 128,-1,29
 1307 529 1307 529 1307 739 c 0,22,23
155 737 m 0,30,31
 155 528 155 528 304 397.5 c 128,-1,32
 453 267 453 267 702 263 c 1,33,-1
 702 1211 l 1,34,35
 540 1209 540 1209 416 1148.5 c 128,-1,36
 292 1088 292 1088 223.5 980 c 128,-1,37
 155 872 155 872 155 737 c 0,30,31
EndSplineSet
Substitution2: "'c2sc' Capitals to Small Capitals lookup 0 subtable" Phi.c2sc
Position2: "'cpsp' Capital Spacing lookup 0 subtable" dx=36 dy=0 dh=72 dv=0
EndChar

StartChar: Psi
Encoding: 936 936 185
Width: 1428
GlyphClass: 1
Flags: W
LayerCount: 2
Fore
SplineSet
741 471 m 1,0,1
 950 475 950 475 1083.5 602.5 c 128,-1,2
 1217 730 1217 730 1220 938 c 2,3,-1
 1220 1456 l 1,4,-1
 1274 1456 l 1,5,-1
 1274 939 l 2,6,7
 1273 784 1273 784 1207.5 666 c 128,-1,8
 1142 548 1142 548 1021 483.5 c 128,-1,9
 900 419 900 419 741 416 c 1,10,-1
 741 0 l 1,11,-1
 686 0 l 1,12,-1
 686 416 l 1,13,14
 446 422 446 422 302 563 c 128,-1,15
 158 704 158 704 156 941 c 2,16,-1
 156 1456 l 1,17,-1
 211 1456 l 1,18,-1
 211 951 l 2,19,20
 211 738 211 738 342 607.5 c 128,-1,21
 473 477 473 477 686 471 c 1,22,-1
 686 1456 l 1,23,-1
 741 1456 l 1,24,-1
 741 471 l 1,0,1
EndSplineSet
Substitution2: "'c2sc' Capitals to Small Capitals lookup 0 subtable" Psi.c2sc
Position2: "'cpsp' Capital Spacing lookup 0 subtable" dx=36 dy=0 dh=72 dv=0
EndChar

StartChar: uni03A9
Encoding: 937 937 186
AltUni2: 002126.ffffffff.0 002126.ffffffff.0
Width: 1321
GlyphClass: 2
Flags: W
LayerCount: 2
Fore
SplineSet
761 78 m 1,0,1
 1118 257 1118 257 1120 727 c 2,2,-1
 1120 851 l 2,3,4
 1120 1014 1120 1014 1061 1145 c 128,-1,5
 1002 1276 1002 1276 896 1349 c 128,-1,6
 790 1422 790 1422 655 1422 c 0,7,8
 448 1422 448 1422 320 1260 c 128,-1,9
 192 1098 192 1098 192 842 c 2,10,-1
 192 732 l 2,11,12
 192 260 192 260 557 78 c 1,13,-1
 557 0 l 1,14,-1
 122 0 l 1,15,-1
 122 54 l 1,16,-1
 488 54 l 1,17,18
 322 149 322 149 232 318 c 128,-1,19
 142 487 142 487 138 707 c 1,20,-1
 138 849 l 2,21,22
 138 1035 138 1035 203 1178 c 128,-1,23
 268 1321 268 1321 386 1398.5 c 128,-1,24
 504 1476 504 1476 655 1476 c 128,-1,25
 806 1476 806 1476 924.5 1398 c 128,-1,26
 1043 1320 1043 1320 1108.5 1177 c 128,-1,27
 1174 1034 1174 1034 1174 850 c 2,28,-1
 1174 732 l 2,29,30
 1174 504 1174 504 1086.5 330 c 128,-1,31
 999 156 999 156 827 54 c 1,32,-1
 1195 54 l 1,33,-1
 1195 0 l 1,34,-1
 761 0 l 1,35,-1
 761 78 l 1,0,1
EndSplineSet
Substitution2: "'c2sc' Capitals to Small Capitals lookup 0 subtable" uni03A9.c2sc
Position2: "'cpsp' Capital Spacing lookup 0 subtable" dx=36 dy=0 dh=72 dv=0
EndChar

StartChar: alpha
Encoding: 945 945 187
Width: 1149
GlyphClass: 2
Flags: W
LayerCount: 2
Fore
SplineSet
950 1082 m 1,0,-1
 950 236 l 1,1,2
 954 32 954 32 1073 32 c 0,3,4
 1095 32 1095 32 1138 42 c 1,5,-1
 1149 -7 l 1,6,7
 1121 -21 1121 -21 1076 -21 c 0,8,9
 990 -21 990 -21 946 34 c 128,-1,10
 902 89 902 89 897 217 c 1,11,12
 843 102 843 102 746.5 40.5 c 128,-1,13
 650 -21 650 -21 528 -21 c 0,14,15
 349 -21 349 -21 241 111.5 c 128,-1,16
 133 244 133 244 123 477 c 1,17,-1
 122 542 l 1,18,19
 122 803 122 803 231.5 952.5 c 128,-1,20
 341 1102 341 1102 530 1102 c 0,21,22
 654 1102 654 1102 747.5 1034 c 128,-1,23
 841 966 841 966 896 837 c 1,24,-1
 896 854 l 1,25,-1
 902 1082 l 1,26,-1
 950 1082 l 1,0,-1
178 521 m 0,27,28
 178 292 178 292 268.5 162.5 c 128,-1,29
 359 33 359 33 527 33 c 0,30,31
 668 33 668 33 762.5 114 c 128,-1,32
 857 195 857 195 896 343 c 1,33,-1
 896 694 l 1,34,35
 852 863 852 863 756 955.5 c 128,-1,36
 660 1048 660 1048 529 1048 c 0,37,38
 364 1048 364 1048 271 913 c 128,-1,39
 178 778 178 778 178 521 c 0,27,28
EndSplineSet
Substitution2: "'ss02' Style Set 2 lookup 12 subtable" alpha.ss02
Substitution2: "'smcp' Lowercase to Small Capitals lookup 1 subtable" Alpha.c2sc
EndChar

StartChar: beta
Encoding: 946 946 188
Width: 1213
GlyphClass: 1
Flags: W
LayerCount: 2
Fore
SplineSet
583 1476 m 0,0,1
 757 1476 757 1476 865.5 1372.5 c 128,-1,2
 974 1269 974 1269 974 1102 c 0,3,4
 974 991 974 991 919.5 902.5 c 128,-1,5
 865 814 865 814 760 770 c 1,6,7
 909 739 909 739 994 637.5 c 128,-1,8
 1079 536 1079 536 1079 385 c 0,9,10
 1079 199 1079 199 959.5 89 c 128,-1,11
 840 -21 840 -21 634 -21 c 0,12,13
 518 -21 518 -21 412.5 24.5 c 128,-1,14
 307 70 307 70 249 148 c 1,15,-1
 249 -413 l 1,16,-1
 195 -413 l 1,17,-1
 195 284 l 1,18,-1
 193 318 l 1,19,-1
 195 319 l 1,20,-1
 195 1054 l 2,21,22
 195 1172 195 1172 247.5 1270 c 128,-1,23
 300 1368 300 1368 389 1422 c 128,-1,24
 478 1476 478 1476 583 1476 c 0,0,1
920 1107 m 0,25,26
 920 1246 920 1246 828 1334 c 128,-1,27
 736 1422 736 1422 583 1422 c 0,28,29
 441 1422 441 1422 345 1316.5 c 128,-1,30
 249 1211 249 1211 249 1049 c 2,31,-1
 249 244 l 1,32,33
 289 150 289 150 395.5 91.5 c 128,-1,34
 502 33 502 33 634 33 c 0,35,36
 821 33 821 33 922.5 124 c 128,-1,37
 1024 215 1024 215 1024 381 c 0,38,39
 1024 548 1024 548 919 641 c 128,-1,40
 814 734 814 734 622 735 c 2,41,-1
 476 735 l 1,42,-1
 476 791 l 1,43,-1
 576 791 l 2,44,45
 920 791 920 791 920 1107 c 0,25,26
EndSplineSet
Substitution2: "'smcp' Lowercase to Small Capitals lookup 1 subtable" Beta.c2sc
EndChar

StartChar: gamma
Encoding: 947 947 189
Width: 978
GlyphClass: 1
Flags: W
LayerCount: 2
Fore
SplineSet
877 1082 m 1,0,-1
 935 1082 l 1,1,-1
 516 5 l 1,2,-1
 516 -415 l 1,3,-1
 462 -415 l 1,4,-1
 462 2 l 1,5,-1
 43 1082 l 1,6,-1
 101 1082 l 1,7,-1
 435 229 l 1,8,-1
 489 74 l 1,9,-1
 544 229 l 1,10,-1
 877 1082 l 1,0,-1
EndSplineSet
Substitution2: "'smcp' Lowercase to Small Capitals lookup 1 subtable" Gamma.c2sc
EndChar

StartChar: delta
Encoding: 948 948 190
Width: 1121
GlyphClass: 1
Flags: W
LayerCount: 2
Fore
SplineSet
215 1309 m 0,0,1
 215 1416 215 1416 315.5 1489.5 c 128,-1,2
 416 1563 416 1563 568 1563 c 0,3,4
 749 1563 749 1563 875 1486 c 1,5,-1
 857 1437 l 1,6,-1
 785 1470 l 2,7,8
 693 1509 693 1509 569 1509 c 0,9,10
 435 1509 435 1509 352 1454 c 128,-1,11
 269 1399 269 1399 269 1309 c 0,12,13
 269 1210 269 1210 348 1152.5 c 128,-1,14
 427 1095 427 1095 587 1061 c 0,15,16
 787 1019 787 1019 910.5 874.5 c 128,-1,17
 1034 730 1034 730 1034 532 c 2,18,-1
 1034 500 l 2,19,20
 1034 350 1034 350 975 231.5 c 128,-1,21
 916 113 916 113 807.5 46.5 c 128,-1,22
 699 -20 699 -20 562 -20 c 0,23,24
 352 -20 352 -20 219.5 125 c 128,-1,25
 87 270 87 270 87 508 c 2,26,-1
 87 542 l 2,27,28
 87 666 87 666 134.5 771.5 c 128,-1,29
 182 877 182 877 270.5 946 c 128,-1,30
 359 1015 359 1015 458 1029 c 1,31,-1
 458 1040 l 1,32,33
 215 1134 215 1134 215 1309 c 0,0,1
141 500 m 2,34,35
 141 371 141 371 194 263 c 128,-1,36
 247 155 247 155 343 94.5 c 128,-1,37
 439 34 439 34 562 34 c 0,38,39
 747 34 747 34 863.5 167 c 128,-1,40
 980 300 980 300 980 511 c 2,41,-1
 980 542 l 2,42,43
 980 655 980 655 928 751 c 128,-1,44
 876 847 876 847 782 913.5 c 128,-1,45
 688 980 688 980 583 997 c 1,46,47
 392 997 392 997 266.5 866.5 c 128,-1,48
 141 736 141 736 141 530 c 2,49,-1
 141 500 l 2,34,35
EndSplineSet
Substitution2: "'smcp' Lowercase to Small Capitals lookup 1 subtable" uni0394.c2sc
EndChar

StartChar: epsilon
Encoding: 949 949 191
Width: 1122
GlyphClass: 2
Flags: W
LayerCount: 2
Fore
SplineSet
116 290 m 0,0,1
 116 500 116 500 365 554 c 1,2,3
 257 585 257 585 196 651 c 128,-1,4
 135 717 135 717 135 802 c 0,5,6
 135 941 135 941 244 1021.5 c 128,-1,7
 353 1102 353 1102 550 1102 c 0,8,9
 734 1102 734 1102 856.5 1016 c 128,-1,10
 979 930 979 930 979 799 c 1,11,-1
 925 799 l 1,12,13
 925 907 925 907 819.5 977.5 c 128,-1,14
 714 1048 714 1048 550 1048 c 0,15,16
 376 1048 376 1048 283.5 983 c 128,-1,17
 191 918 191 918 191 805 c 0,18,19
 191 580 191 580 558 580 c 2,20,-1
 718 580 l 1,21,-1
 718 525 l 1,22,-1
 541 525 l 2,23,24
 361 523 361 523 265.5 467 c 128,-1,25
 170 411 170 411 170 287 c 0,26,27
 170 169 170 169 270.5 102 c 128,-1,28
 371 35 371 35 550 35 c 0,29,30
 725 35 725 35 833.5 110.5 c 128,-1,31
 942 186 942 186 942 301 c 1,32,-1
 997 301 l 1,33,34
 997 156 997 156 869.5 68 c 128,-1,35
 742 -20 742 -20 550 -20 c 0,36,37
 353 -20 353 -20 234.5 65 c 128,-1,38
 116 150 116 150 116 290 c 0,0,1
EndSplineSet
Substitution2: "'smcp' Lowercase to Small Capitals lookup 1 subtable" Epsilon.c2sc
EndChar

StartChar: zeta
Encoding: 950 950 192
Width: 954
GlyphClass: 1
Flags: W
LayerCount: 2
Fore
SplineSet
887 1456 m 1,0,-1
 887 1419 l 1,1,-1
 416 802 l 2,2,3
 319 671 319 671 272.5 559.5 c 128,-1,4
 226 448 226 448 226 341 c 0,5,6
 226 241 226 241 304.5 179.5 c 128,-1,7
 383 118 383 118 572 71 c 2,8,-1
 680 42 l 2,9,10
 789 12 789 12 830 -29.5 c 128,-1,11
 871 -71 871 -71 871 -136 c 0,12,13
 871 -216 871 -216 823.5 -291 c 128,-1,14
 776 -366 776 -366 716 -392 c 1,15,-1
 679 -361 l 1,16,17
 730 -338 730 -338 774 -270 c 128,-1,18
 818 -202 818 -202 818 -135 c 0,19,20
 818 -89 818 -89 787.5 -61.5 c 128,-1,21
 757 -34 757 -34 677 -12 c 2,22,-1
 515 31 l 2,23,24
 327 84 327 84 250 156.5 c 128,-1,25
 173 229 173 229 173 341 c 0,26,27
 173 557 173 557 357 812 c 1,28,-1
 806 1403 l 1,29,-1
 38 1403 l 1,30,-1
 38 1456 l 1,31,-1
 887 1456 l 1,0,-1
EndSplineSet
Substitution2: "'smcp' Lowercase to Small Capitals lookup 1 subtable" Zeta.c2sc
EndChar

StartChar: eta
Encoding: 951 951 193
Width: 1121
GlyphClass: 2
Flags: W
LayerCount: 2
Fore
SplineSet
226 857 m 1,0,1
 273 970 273 970 365 1036 c 128,-1,2
 457 1102 457 1102 600 1102 c 0,3,4
 779 1102 779 1102 865.5 1001 c 128,-1,5
 952 900 952 900 954 688 c 2,6,-1
 954 -416 l 1,7,-1
 900 -416 l 1,8,-1
 900 692 l 2,9,10
 898 870 898 870 826 959 c 128,-1,11
 754 1048 754 1048 601 1048 c 0,12,13
 442 1048 442 1048 345.5 951 c 128,-1,14
 249 854 249 854 226 667 c 1,15,-1
 226 0 l 1,16,-1
 172 0 l 1,17,-1
 172 1082 l 1,18,-1
 226 1082 l 1,19,-1
 226 857 l 1,0,1
EndSplineSet
Substitution2: "'smcp' Lowercase to Small Capitals lookup 1 subtable" Eta.c2sc
EndChar

StartChar: theta
Encoding: 952 952 194
Width: 1181
GlyphClass: 1
Flags: W
LayerCount: 2
Fore
SplineSet
1026 594 m 2,0,1
 1026 301 1026 301 912 140.5 c 128,-1,2
 798 -20 798 -20 592 -20 c 0,3,4
 387 -20 387 -20 271 142 c 128,-1,5
 155 304 155 304 155 598 c 2,6,-1
 155 862 l 2,7,8
 155 1152 155 1152 269.5 1314.5 c 128,-1,9
 384 1477 384 1477 590 1477 c 0,10,11
 797 1477 797 1477 911.5 1314.5 c 128,-1,12
 1026 1152 1026 1152 1026 858 c 2,13,-1
 1026 594 l 2,0,1
209 749 m 1,14,-1
 972 749 l 1,15,-1
 972 862 l 2,16,17
 972 1127 972 1127 872.5 1275 c 128,-1,18
 773 1423 773 1423 590 1423 c 0,19,20
 406 1423 406 1423 307.5 1274.5 c 128,-1,21
 209 1126 209 1126 209 857 c 2,22,-1
 209 749 l 1,14,-1
972 695 m 1,23,-1
 209 695 l 1,24,-1
 209 596 l 2,25,26
 209 332 209 332 310 183 c 128,-1,27
 411 34 411 34 592 34 c 0,28,29
 774 34 774 34 873 183 c 128,-1,30
 972 332 972 332 972 601 c 2,31,-1
 972 695 l 1,23,-1
EndSplineSet
Substitution2: "'smcp' Lowercase to Small Capitals lookup 1 subtable" Theta.c2sc
EndChar

StartChar: iota
Encoding: 953 953 195
Width: 565
GlyphClass: 2
Flags: W
LayerCount: 2
Fore
SplineSet
225 1082 m 1,0,-1
 225 263 l 2,1,2
 226 153 226 153 263.5 99.5 c 128,-1,3
 301 46 301 46 388 46 c 0,4,5
 432 46 432 46 495 55 c 1,6,-1
 504 4 l 1,7,8
 471 -8 471 -8 391 -8 c 0,9,10
 273 -8 273 -8 222 57.5 c 128,-1,11
 171 123 171 123 170 264 c 2,12,-1
 170 1082 l 1,13,-1
 225 1082 l 1,0,-1
EndSplineSet
Substitution2: "'smcp' Lowercase to Small Capitals lookup 1 subtable" Iota.c2sc
EndChar

StartChar: lambda
Encoding: 955 955 196
Width: 1121
GlyphClass: 1
Flags: W
LayerCount: 2
Fore
SplineSet
244 1518 m 0,0,1
 398 1518 398 1518 467 1330 c 2,2,-1
 880 202 l 2,3,4
 914 115 914 115 948.5 81.5 c 128,-1,5
 983 48 983 48 1030 48 c 0,6,7
 1059 48 1059 48 1078 55 c 1,8,-1
 1087 4 l 1,9,10
 1069 -6 1069 -6 1030 -6 c 0,11,12
 901 -6 901 -6 843 140 c 2,13,-1
 820 200 l 1,14,-1
 539 978 l 1,15,-1
 530 1001 l 1,16,-1
 121 0 l 1,17,-1
 62 0 l 1,18,-1
 503 1075 l 1,19,-1
 406 1334 l 1,20,21
 353 1464 353 1464 245 1464 c 1,22,-1
 197 1458 l 1,23,-1
 188 1508 l 1,24,25
 206 1518 206 1518 244 1518 c 0,0,1
EndSplineSet
Substitution2: "'smcp' Lowercase to Small Capitals lookup 1 subtable" Lambda.c2sc
EndChar

StartChar: xi
Encoding: 958 958 197
Width: 1006
GlyphClass: 1
Flags: W
LayerCount: 2
Fore
SplineSet
923 1377 m 1,0,1
 797 1423 797 1423 652 1423 c 0,2,3
 474 1423 474 1423 374 1351.5 c 128,-1,4
 274 1280 274 1280 274 1148 c 0,5,6
 274 894 274 894 669 891 c 2,7,-1
 799 891 l 1,8,-1
 799 835 l 1,9,-1
 685 835 l 2,10,11
 448 835 448 835 320 731.5 c 128,-1,12
 192 628 192 628 192 445 c 0,13,14
 192 342 192 342 232.5 270.5 c 128,-1,15
 273 199 273 199 354 148 c 128,-1,16
 435 97 435 97 600 50 c 2,17,-1
 725 16 l 2,18,19
 830 -14 830 -14 870 -51.5 c 128,-1,20
 910 -89 910 -89 910 -150 c 0,21,22
 910 -213 910 -213 867 -274 c 128,-1,23
 824 -335 824 -335 758 -370 c 1,24,-1
 725 -337 l 1,25,26
 786 -302 786 -302 821.5 -251 c 128,-1,27
 857 -200 857 -200 857 -149 c 0,28,29
 857 -108 857 -108 820 -81 c 128,-1,30
 783 -54 783 -54 648 -18 c 128,-1,31
 513 18 513 18 429 52 c 0,32,33
 137 169 137 169 137 449 c 0,34,35
 137 605 137 605 226 711.5 c 128,-1,36
 315 818 315 818 480 861 c 1,37,38
 356 896 356 896 287.5 970 c 128,-1,39
 219 1044 219 1044 219 1144 c 0,40,41
 219 1302 219 1302 333 1389 c 128,-1,42
 447 1476 447 1476 654 1476 c 0,43,44
 802 1476 802 1476 929 1427 c 1,45,-1
 923 1377 l 1,0,1
EndSplineSet
Substitution2: "'smcp' Lowercase to Small Capitals lookup 1 subtable" Xi.c2sc
EndChar

StartChar: pi
Encoding: 960 960 198
Width: 1219
GlyphClass: 1
Flags: W
LayerCount: 2
Fore
SplineSet
1130 1027 m 1,0,-1
 915 1027 l 1,1,-1
 915 271 l 2,2,3
 915 156 915 156 952.5 101 c 128,-1,4
 990 46 990 46 1078 46 c 0,5,6
 1122 46 1122 46 1185 55 c 1,7,-1
 1194 4 l 1,8,9
 1161 -8 1161 -8 1081 -8 c 0,10,11
 963 -8 963 -8 912 57.5 c 128,-1,12
 861 123 861 123 860 264 c 2,13,-1
 860 1027 l 1,14,-1
 311 1027 l 1,15,-1
 311 0 l 1,16,-1
 257 0 l 1,17,-1
 257 1027 l 1,18,-1
 62 1027 l 1,19,-1
 62 1082 l 1,20,-1
 1130 1082 l 1,21,-1
 1130 1027 l 1,0,-1
EndSplineSet
Substitution2: "'smcp' Lowercase to Small Capitals lookup 1 subtable" Pi.c2sc
EndChar

StartChar: rho
Encoding: 961 961 199
Width: 1121
GlyphClass: 2
Flags: W
LayerCount: 2
Fore
SplineSet
592 1102 m 0,0,1
 780 1102 780 1102 889.5 952.5 c 128,-1,2
 999 803 999 803 999 536 c 2,3,-1
 999 521 l 2,4,5
 999 270 999 270 890.5 125 c 128,-1,6
 782 -20 782 -20 593 -20 c 0,7,8
 335 -20 335 -20 227 163 c 1,9,-1
 226 -416 l 1,10,-1
 172 -416 l 1,11,-1
 172 642 l 2,12,13
 174 854 174 854 288.5 978 c 128,-1,14
 403 1102 403 1102 592 1102 c 0,0,1
227 261 m 1,15,16
 271 153 271 153 365.5 93.5 c 128,-1,17
 460 34 460 34 594 34 c 0,18,19
 761 34 761 34 852.5 162.5 c 128,-1,20
 944 291 944 291 944 526 c 2,21,-1
 944 542 l 2,22,23
 944 777 944 777 851 912.5 c 128,-1,24
 758 1048 758 1048 592 1048 c 0,25,26
 424 1048 424 1048 326.5 932 c 128,-1,27
 229 816 229 816 228 608 c 2,28,-1
 227 261 l 1,15,16
EndSplineSet
Substitution2: "'smcp' Lowercase to Small Capitals lookup 1 subtable" Rho.c2sc
EndChar

StartChar: sigma1
Encoding: 962 962 200
Width: 1089
GlyphClass: 1
Flags: W
LayerCount: 2
Fore
SplineSet
573 1102 m 0,0,1
 747 1102 747 1102 856.5 999 c 128,-1,2
 966 896 966 896 966 720 c 1,3,-1
 912 720 l 1,4,5
 912 871 912 871 818.5 959.5 c 128,-1,6
 725 1048 725 1048 573 1048 c 0,7,8
 391 1048 391 1048 284.5 916 c 128,-1,9
 178 784 178 784 178 554 c 2,10,-1
 178 520 l 2,11,12
 178 328 178 328 291.5 205 c 128,-1,13
 405 82 405 82 620 35 c 0,14,15
 737 9 737 9 785 -32.5 c 128,-1,16
 833 -74 833 -74 833 -163 c 0,17,18
 833 -221 833 -221 787 -290 c 128,-1,19
 741 -359 741 -359 694 -379 c 1,20,-1
 659 -347 l 1,21,22
 706 -325 706 -325 742.5 -270.5 c 128,-1,23
 779 -216 779 -216 779 -163 c 0,24,25
 779 -98 779 -98 745 -69 c 128,-1,26
 711 -40 711 -40 603 -16 c 0,27,28
 363 37 363 37 244 170.5 c 128,-1,29
 125 304 125 304 122 509 c 2,30,-1
 122 562 l 2,31,32
 122 720 122 720 177.5 843 c 128,-1,33
 233 966 233 966 336 1034 c 128,-1,34
 439 1102 439 1102 573 1102 c 0,0,1
EndSplineSet
Substitution2: "'smcp' Lowercase to Small Capitals lookup 1 subtable" Sigma.c2sc
EndChar

StartChar: sigma
Encoding: 963 963 201
Width: 1117
GlyphClass: 1
Flags: W
LayerCount: 2
Fore
SplineSet
1117 1027 m 1,0,-1
 772 1027 l 1,1,2
 896 964 896 964 965 843 c 128,-1,3
 1034 722 1034 722 1034 562 c 2,4,-1
 1034 521 l 2,5,6
 1034 364 1034 364 975 241 c 128,-1,7
 916 118 916 118 807.5 49 c 128,-1,8
 699 -20 699 -20 562 -20 c 128,-1,9
 425 -20 425 -20 316.5 48 c 128,-1,10
 208 116 208 116 148 238.5 c 128,-1,11
 88 361 88 361 87 514 c 2,12,-1
 87 562 l 2,13,14
 87 710 87 710 146.5 829 c 128,-1,15
 206 948 206 948 313 1014.5 c 128,-1,16
 420 1081 420 1081 554 1082 c 2,17,-1
 1117 1082 l 1,18,-1
 1117 1027 l 1,0,-1
141 520 m 2,19,20
 141 385 141 385 194.5 272.5 c 128,-1,21
 248 160 248 160 343.5 97 c 128,-1,22
 439 34 439 34 562 34 c 0,23,24
 747 34 747 34 863.5 173 c 128,-1,25
 980 312 980 312 980 531 c 2,26,-1
 980 562 l 2,27,28
 980 688 980 688 927 796 c 128,-1,29
 874 904 874 904 778 965.5 c 128,-1,30
 682 1027 682 1027 560 1027 c 0,31,32
 375 1027 375 1027 258 893 c 128,-1,33
 141 759 141 759 141 551 c 2,34,-1
 141 520 l 2,19,20
EndSplineSet
Substitution2: "'smcp' Lowercase to Small Capitals lookup 1 subtable" Sigma.c2sc
EndChar

StartChar: tau
Encoding: 964 964 202
Width: 1027
GlyphClass: 1
Flags: W
LayerCount: 2
Fore
SplineSet
954 1027 m 1,0,-1
 518 1027 l 1,1,-1
 518 279 l 2,2,3
 518 155 518 155 562 94 c 128,-1,4
 606 33 606 33 703 33 c 0,5,6
 745 33 745 33 810 42 c 1,7,-1
 819 -8 l 1,8,9
 777 -21 777 -21 706 -21 c 0,10,11
 579 -21 579 -21 522 49 c 128,-1,12
 465 119 465 119 463 268 c 2,13,-1
 463 1027 l 1,14,-1
 73 1027 l 1,15,-1
 73 1082 l 1,16,-1
 954 1082 l 1,17,-1
 954 1027 l 1,0,-1
EndSplineSet
Substitution2: "'smcp' Lowercase to Small Capitals lookup 1 subtable" Tau.c2sc
EndChar

StartChar: upsilon
Encoding: 965 965 203
Width: 1073
GlyphClass: 2
Flags: W
LayerCount: 2
Fore
SplineSet
222 1082 m 1,0,-1
 222 375 l 2,1,2
 224 208 224 208 296.5 121 c 128,-1,3
 369 34 369 34 502 34 c 0,4,5
 675 34 675 34 775.5 166 c 128,-1,6
 876 298 876 298 876 520 c 0,7,8
 876 807 876 807 764 1082 c 1,9,-1
 830 1082 l 1,10,11
 889 915 889 915 909 793 c 128,-1,12
 929 671 929 671 929 523 c 0,13,14
 929 276 929 276 816 128 c 128,-1,15
 703 -20 703 -20 504 -20 c 0,16,17
 339 -20 339 -20 253.5 84 c 128,-1,18
 168 188 168 188 168 387 c 2,19,-1
 168 1082 l 1,20,-1
 222 1082 l 1,0,-1
EndSplineSet
Substitution2: "'smcp' Lowercase to Small Capitals lookup 1 subtable" Upsilon.c2sc
EndChar

StartChar: phi
Encoding: 966 966 204
Width: 1365
GlyphClass: 1
Flags: W
LayerCount: 2
Fore
SplineSet
653 -20 m 1,0,1
 404 -11 404 -11 272 134 c 128,-1,2
 140 279 140 279 140 546 c 0,3,4
 140 716 140 716 210 860 c 128,-1,5
 280 1004 280 1004 403 1083 c 1,6,-1
 428 1039 l 1,7,8
 321 974 321 974 257 836 c 128,-1,9
 193 698 193 698 193 544 c 0,10,11
 193 301 193 301 311 172.5 c 128,-1,12
 429 44 429 44 653 34 c 1,13,-1
 653 894 l 2,14,15
 653 977 653 977 703.5 1029.5 c 128,-1,16
 754 1082 754 1082 827 1082 c 0,17,18
 942 1082 942 1082 1035 1014 c 128,-1,19
 1128 946 1128 946 1180.5 822.5 c 128,-1,20
 1233 699 1233 699 1233 546 c 0,21,22
 1233 389 1233 389 1168 260 c 128,-1,23
 1103 131 1103 131 984.5 58 c 128,-1,24
 866 -15 866 -15 707 -20 c 1,25,-1
 707 -479 l 1,26,-1
 653 -479 l 1,27,-1
 653 -20 l 1,0,1
707 33 m 1,28,29
 849 37 849 37 955.5 103 c 128,-1,30
 1062 169 1062 169 1121 285.5 c 128,-1,31
 1180 402 1180 402 1180 544 c 0,32,33
 1180 673 1180 673 1133.5 786 c 128,-1,34
 1087 899 1087 899 1006 963.5 c 128,-1,35
 925 1028 925 1028 827 1028 c 0,36,37
 777 1028 777 1028 742 990.5 c 128,-1,38
 707 953 707 953 707 892 c 2,39,-1
 707 33 l 1,28,29
EndSplineSet
Substitution2: "'smcp' Lowercase to Small Capitals lookup 1 subtable" Phi.c2sc
EndChar

StartChar: psi
Encoding: 968 968 205
Width: 1366
GlyphClass: 2
Flags: W
LayerCount: 2
Fore
SplineSet
707 1082 m 1,0,-1
 707 34 l 1,1,2
 940 39 940 39 1060 181 c 128,-1,3
 1180 323 1180 323 1180 588 c 0,4,5
 1180 840 1180 840 1028 1082 c 1,6,-1
 1095 1082 l 1,7,-1
 1144 988 l 2,8,9
 1234 812 1234 812 1234 590 c 0,10,11
 1234 300 1234 300 1098.5 143 c 128,-1,12
 963 -14 963 -14 707 -19 c 1,13,-1
 707 -415 l 1,14,-1
 653 -415 l 1,15,-1
 653 -19 l 1,16,17
 410 -10 410 -10 280 143 c 128,-1,18
 150 296 150 296 148 580 c 2,19,-1
 148 1082 l 1,20,-1
 202 1082 l 1,21,-1
 202 574 l 2,22,23
 205 320 205 320 321 182 c 128,-1,24
 437 44 437 44 653 35 c 1,25,-1
 653 1082 l 1,26,-1
 707 1082 l 1,0,-1
EndSplineSet
Substitution2: "'smcp' Lowercase to Small Capitals lookup 1 subtable" Psi.c2sc
EndChar

StartChar: omega
Encoding: 969 969 206
Width: 1690
GlyphClass: 2
Flags: W
LayerCount: 2
Fore
SplineSet
357 1082 m 1,0,1
 205 792 205 792 205 500 c 0,2,3
 205 291 205 291 289.5 162.5 c 128,-1,4
 374 34 374 34 519 34 c 0,5,6
 661 34 661 34 739 146.5 c 128,-1,7
 817 259 817 259 819 473 c 2,8,-1
 819 770 l 1,9,-1
 874 770 l 1,10,-1
 874 468 l 2,11,12
 877 259 877 259 953.5 146.5 c 128,-1,13
 1030 34 1030 34 1174 34 c 128,-1,14
 1318 34 1318 34 1403 162 c 128,-1,15
 1488 290 1488 290 1488 500 c 0,16,17
 1488 639 1488 639 1453 780 c 128,-1,18
 1418 921 1418 921 1336 1082 c 1,19,-1
 1402 1082 l 1,20,-1
 1450 974 l 2,21,22
 1541 765 1541 765 1541 503 c 0,23,24
 1541 265 1541 265 1442.5 122.5 c 128,-1,25
 1344 -20 1344 -20 1175 -20 c 0,26,27
 1047 -20 1047 -20 964 50 c 128,-1,28
 881 120 881 120 846 251 c 1,29,30
 811 120 811 120 728 50 c 128,-1,31
 645 -20 645 -20 517 -20 c 0,32,33
 346 -20 346 -20 249 124 c 128,-1,34
 152 268 152 268 152 503 c 0,35,36
 152 762 152 762 242 973 c 1,37,-1
 291 1082 l 1,38,-1
 357 1082 l 1,0,1
EndSplineSet
Substitution2: "'smcp' Lowercase to Small Capitals lookup 1 subtable" uni03A9.c2sc
EndChar

StartChar: theta1
Encoding: 977 977 207
Width: 1165
GlyphClass: 1
Flags: W
LayerCount: 2
Fore
SplineSet
1137 720 m 1,0,1
 1110 709 1110 709 1054 698 c 128,-1,2
 998 687 998 687 950 685 c 1,3,-1
 950 407 l 2,4,5
 947 194 947 194 847.5 87 c 128,-1,6
 748 -20 748 -20 547 -20 c 0,7,8
 363 -20 363 -20 256 91.5 c 128,-1,9
 149 203 149 203 146 410 c 2,10,-1
 146 746 l 1,11,-1
 200 748 l 1,12,-1
 200 413 l 2,13,14
 202 227 202 227 292.5 130.5 c 128,-1,15
 383 34 383 34 547 34 c 0,16,17
 728 34 728 34 810 123.5 c 128,-1,18
 892 213 892 213 896 401 c 1,19,-1
 896 686 l 1,20,21
 648 695 648 695 511 819.5 c 128,-1,22
 374 944 374 944 374 1161 c 2,23,-1
 374 1178 l 2,24,25
 374 1317 374 1317 449.5 1407 c 128,-1,26
 525 1497 525 1497 641 1497 c 0,27,28
 788 1497 788 1497 869 1387.5 c 128,-1,29
 950 1278 950 1278 950 1074 c 2,30,-1
 950 739 l 1,31,32
 1049 743 1049 743 1126 772 c 1,33,-1
 1137 720 l 1,0,1
428 1154 m 2,34,35
 428 960 428 960 548.5 854.5 c 128,-1,36
 669 749 669 749 896 740 c 1,37,-1
 896 1084 l 2,38,39
 895 1261 895 1261 833 1352 c 128,-1,40
 771 1443 771 1443 641 1443 c 0,41,42
 549 1443 549 1443 489.5 1373.5 c 128,-1,43
 430 1304 430 1304 428 1187 c 2,44,-1
 428 1154 l 2,34,35
EndSplineSet
EndChar

StartChar: Upsilon1
Encoding: 978 978 208
Width: 1106
GlyphClass: 2
Flags: W
LayerCount: 2
Fore
SplineSet
1075 1467 m 0,0,1
 1132 1467 1132 1467 1177 1439 c 1,2,-1
 1154 1398 l 1,3,4
 1117 1420 1117 1420 1071 1420 c 0,5,6
 1002 1420 1002 1420 956.5 1376 c 128,-1,7
 911 1332 911 1332 865 1235 c 2,8,-1
 590 617 l 1,9,-1
 590 0 l 1,10,-1
 535 0 l 1,11,-1
 535 623 l 1,12,-1
 264 1215 l 2,13,14
 213 1325 213 1325 166 1372.5 c 128,-1,15
 119 1420 119 1420 50 1420 c 0,16,17
 3 1420 3 1420 -34 1398 c 1,18,-1
 -57 1439 l 1,19,20
 -9 1467 -9 1467 46 1467 c 0,21,22
 134 1467 134 1467 192.5 1416 c 128,-1,23
 251 1365 251 1365 308 1239 c 2,24,-1
 507 796 l 1,25,-1
 560 669 l 1,26,-1
 614 796 l 1,27,-1
 812 1239 l 2,28,29
 871 1368 871 1368 929 1417.5 c 128,-1,30
 987 1467 987 1467 1075 1467 c 0,0,1
EndSplineSet
EndChar

StartChar: omega1
Encoding: 982 982 209
Width: 1612
GlyphClass: 2
Flags: W
LayerCount: 2
Fore
SplineSet
1584 1028 m 1,0,-1
 1386 1028 l 1,1,-1
 1425 936 l 1,2,3
 1500 743 1500 743 1500 503 c 128,-1,4
 1500 263 1500 263 1402 121.5 c 128,-1,5
 1304 -20 1304 -20 1135 -20 c 0,6,7
 1017 -20 1017 -20 931 44 c 128,-1,8
 845 108 845 108 806 249 c 1,9,10
 767 108 767 108 681 44 c 128,-1,11
 595 -20 595 -20 477 -20 c 0,12,13
 306 -20 306 -20 209 124 c 128,-1,14
 112 268 112 268 112 503 c 0,15,16
 112 740 112 740 188 936 c 1,17,-1
 226 1028 l 1,18,-1
 39 1028 l 1,19,-1
 39 1083 l 1,20,-1
 1584 1083 l 1,21,-1
 1584 1028 l 1,0,-1
1447 500 m 0,22,23
 1447 764 1447 764 1322 1028 c 1,24,-1
 290 1028 l 1,25,26
 165 764 165 764 165 500 c 0,27,28
 165 291 165 291 249.5 162.5 c 128,-1,29
 334 34 334 34 479 34 c 0,30,31
 623 34 623 34 699 146.5 c 128,-1,32
 775 259 775 259 778 468 c 2,33,-1
 778 772 l 1,34,-1
 834 772 l 1,35,-1
 833 453 l 1,36,37
 838 251 838 251 915 142.5 c 128,-1,38
 992 34 992 34 1133 34 c 0,39,40
 1277 34 1277 34 1362 162 c 128,-1,41
 1447 290 1447 290 1447 500 c 0,22,23
EndSplineSet
EndChar

StartChar: uni0402
Encoding: 1026 1026 210
Width: 1513
GlyphClass: 1
Flags: W
LayerCount: 2
Fore
SplineSet
1180 1402 m 1,0,-1
 570 1402 l 1,1,-1
 570 789 l 1,2,3
 652 829 652 829 756 854.5 c 128,-1,4
 860 880 860 880 941 880 c 0,5,6
 1177 880 1177 880 1299 761 c 128,-1,7
 1421 642 1421 642 1421 415 c 0,8,9
 1421 298 1421 298 1357.5 195 c 128,-1,10
 1294 92 1294 92 1192 40.5 c 128,-1,11
 1090 -11 1090 -11 961 -11 c 1,12,-1
 961 40 l 1,13,14
 1082 40 1082 40 1173 89 c 128,-1,15
 1264 138 1264 138 1315.5 225.5 c 128,-1,16
 1367 313 1367 313 1367 415 c 0,17,18
 1367 613 1367 613 1256.5 720 c 128,-1,19
 1146 827 1146 827 941 827 c 0,20,21
 769 827 769 827 570 735 c 1,22,-1
 570 0 l 1,23,-1
 516 0 l 1,24,-1
 516 1402 l 1,25,-1
 66 1402 l 1,26,-1
 66 1456 l 1,27,-1
 1180 1456 l 1,28,-1
 1180 1402 l 1,0,-1
EndSplineSet
Substitution2: "'c2sc' Capitals to Small Capitals lookup 0 subtable" uni0402.c2sc
Position2: "'cpsp' Capital Spacing lookup 0 subtable" dx=36 dy=0 dh=72 dv=0
EndChar

StartChar: uni0404
Encoding: 1028 1028 211
Width: 1325
GlyphClass: 2
Flags: W
LayerCount: 2
Fore
SplineSet
1190 446 m 1,0,1
 1169 221 1169 221 1035 100.5 c 128,-1,2
 901 -20 901 -20 671 -20 c 0,3,4
 516 -20 516 -20 396.5 58.5 c 128,-1,5
 277 137 277 137 211 281.5 c 128,-1,6
 145 426 145 426 144 612 c 2,7,-1
 144 837 l 2,8,9
 144 1023 144 1023 209 1169.5 c 128,-1,10
 274 1316 274 1316 394.5 1396 c 128,-1,11
 515 1476 515 1476 671 1476 c 0,12,13
 899 1476 899 1476 1034 1356 c 128,-1,14
 1169 1236 1169 1236 1190 1012 c 1,15,-1
 1136 1012 l 1,16,17
 1113 1213 1113 1213 996 1317.5 c 128,-1,18
 879 1422 879 1422 671 1422 c 0,19,20
 459 1422 459 1422 328.5 1262 c 128,-1,21
 198 1102 198 1102 198 833 c 2,22,-1
 198 766 l 1,23,-1
 842 766 l 1,24,-1
 842 712 l 1,25,-1
 198 712 l 1,26,-1
 198 619 l 2,27,28
 198 447 198 447 256 314.5 c 128,-1,29
 314 182 314 182 422.5 108 c 128,-1,30
 531 34 531 34 671 34 c 0,31,32
 880 34 880 34 997.5 137 c 128,-1,33
 1115 240 1115 240 1136 446 c 1,34,-1
 1190 446 l 1,0,1
EndSplineSet
Substitution2: "'c2sc' Capitals to Small Capitals lookup 0 subtable" uni0404.c2sc
Position2: "'cpsp' Capital Spacing lookup 0 subtable" dx=36 dy=0 dh=72 dv=0
EndChar

StartChar: uni0409
Encoding: 1033 1033 212
Width: 2129
GlyphClass: 1
Flags: W
LayerCount: 2
Fore
SplineSet
1153 808 m 1,0,-1
 1537 808 l 1,1,2
 1749 804 1749 804 1871.5 696.5 c 128,-1,3
 1994 589 1994 589 1994 404 c 0,4,5
 1994 220 1994 220 1869.5 110.5 c 128,-1,6
 1745 1 1745 1 1525 0 c 2,7,-1
 1099 0 l 1,8,-1
 1099 1402 l 1,9,-1
 490 1402 l 1,10,-1
 446 734 l 2,11,12
 422 407 422 407 384 266 c 128,-1,13
 346 125 346 125 279.5 64 c 128,-1,14
 213 3 213 3 98 0 c 2,15,-1
 54 0 l 1,16,-1
 54 54 l 1,17,-1
 102 54 l 2,18,19
 202 57 202 57 255.5 117.5 c 128,-1,20
 309 178 309 178 341 321.5 c 128,-1,21
 373 465 373 465 393 747 c 2,22,-1
 440 1456 l 1,23,-1
 1153 1456 l 1,24,-1
 1153 808 l 1,0,-1
1153 754 m 1,25,-1
 1153 54 l 1,26,-1
 1522 54 l 2,27,28
 1717 54 1717 54 1828.5 149 c 128,-1,29
 1940 244 1940 244 1940 406 c 0,30,31
 1940 561 1940 561 1830 656.5 c 128,-1,32
 1720 752 1720 752 1531 754 c 2,33,-1
 1153 754 l 1,25,-1
EndSplineSet
Substitution2: "'c2sc' Capitals to Small Capitals lookup 0 subtable" uni0409.c2sc
Position2: "'cpsp' Capital Spacing lookup 0 subtable" dx=36 dy=0 dh=72 dv=0
EndChar

StartChar: uni040A
Encoding: 1034 1034 213
Width: 2209
GlyphClass: 1
Flags: W
LayerCount: 2
Fore
SplineSet
249 748 m 1,0,-1
 1179 748 l 1,1,-1
 1179 1456 l 1,2,-1
 1233 1456 l 1,3,-1
 1233 810 l 1,4,-1
 1617 810 l 1,5,6
 1829 806 1829 806 1951.5 698.5 c 128,-1,7
 2074 591 2074 591 2074 405 c 0,8,9
 2074 221 2074 221 1949 110.5 c 128,-1,10
 1824 0 1824 0 1600 0 c 2,11,-1
 1179 0 l 1,12,-1
 1179 694 l 1,13,-1
 249 694 l 1,14,-1
 249 0 l 1,15,-1
 195 0 l 1,16,-1
 195 1456 l 1,17,-1
 249 1456 l 1,18,-1
 249 748 l 1,0,-1
1233 756 m 1,19,-1
 1233 53 l 1,20,-1
 1602 53 l 2,21,22
 1795 53 1795 53 1907.5 148 c 128,-1,23
 2020 243 2020 243 2020 407 c 0,24,25
 2020 563 2020 563 1910.5 657.5 c 128,-1,26
 1801 752 1801 752 1619 756 c 1,27,-1
 1233 756 l 1,19,-1
EndSplineSet
Substitution2: "'c2sc' Capitals to Small Capitals lookup 0 subtable" uni040A.c2sc
Position2: "'cpsp' Capital Spacing lookup 0 subtable" dx=36 dy=0 dh=72 dv=0
EndChar

StartChar: uni040B
Encoding: 1035 1035 214
Width: 1629
GlyphClass: 1
Flags: W
LayerCount: 2
Fore
SplineSet
1160 1402 m 1,0,-1
 570 1402 l 1,1,-1
 570 755 l 1,2,3
 803 818 803 818 979 818 c 0,4,5
 1226 818 1226 818 1341 710.5 c 128,-1,6
 1456 603 1456 603 1458 380 c 2,7,-1
 1458 0 l 1,8,-1
 1404 0 l 1,9,-1
 1404 384 l 2,10,11
 1401 577 1401 577 1297.5 670.5 c 128,-1,12
 1194 764 1194 764 979 764 c 0,13,14
 786 764 786 764 570 701 c 1,15,-1
 570 0 l 1,16,-1
 516 0 l 1,17,-1
 516 1402 l 1,18,-1
 46 1402 l 1,19,-1
 46 1456 l 1,20,-1
 1160 1456 l 1,21,-1
 1160 1402 l 1,0,-1
EndSplineSet
Substitution2: "'c2sc' Capitals to Small Capitals lookup 0 subtable" uni040B.c2sc
Position2: "'cpsp' Capital Spacing lookup 0 subtable" dx=36 dy=0 dh=72 dv=0
EndChar

StartChar: uni040F
Encoding: 1039 1039 215
Width: 1428
GlyphClass: 1
Flags: W
LayerCount: 2
Fore
SplineSet
195 1456 m 1,0,-1
 249 1456 l 1,1,-1
 249 54 l 1,2,-1
 1179 54 l 1,3,-1
 1179 1456 l 1,4,-1
 1233 1456 l 1,5,-1
 1233 0 l 1,6,-1
 745 0 l 1,7,-1
 745 -349 l 1,8,-1
 691 -349 l 1,9,-1
 691 0 l 1,10,-1
 195 0 l 1,11,-1
 195 1456 l 1,0,-1
EndSplineSet
Substitution2: "'c2sc' Capitals to Small Capitals lookup 0 subtable" uni040F.c2sc
Position2: "'cpsp' Capital Spacing lookup 0 subtable" dx=36 dy=0 dh=72 dv=0
EndChar

StartChar: uni0411
Encoding: 1041 1041 216
Width: 1280
GlyphClass: 1
Flags: W
LayerCount: 2
Fore
SplineSet
1055 1402 m 1,0,-1
 247 1402 l 1,1,-1
 247 788 l 1,2,-1
 628 788 l 2,3,4
 841 785 841 785 964 681.5 c 128,-1,5
 1087 578 1087 578 1087 394 c 0,6,7
 1087 212 1087 212 963.5 106.5 c 128,-1,8
 840 1 840 1 620 0 c 2,9,-1
 193 0 l 1,10,-1
 193 1456 l 1,11,-1
 1055 1456 l 1,12,-1
 1055 1402 l 1,0,-1
247 734 m 1,13,-1
 247 54 l 1,14,-1
 616 54 l 2,15,16
 814 54 814 54 923 145.5 c 128,-1,17
 1032 237 1032 237 1032 396 c 0,18,19
 1032 548 1032 548 924.5 640 c 128,-1,20
 817 732 817 732 625 734 c 2,21,-1
 247 734 l 1,13,-1
EndSplineSet
Substitution2: "'c2sc' Capitals to Small Capitals lookup 0 subtable" uni0411.c2sc
Position2: "'cpsp' Capital Spacing lookup 0 subtable" dx=36 dy=0 dh=72 dv=0
EndChar

StartChar: uni0414
Encoding: 1044 1044 217
Width: 1425
GlyphClass: 1
Flags: W
LayerCount: 2
Fore
SplineSet
1232 54 m 1,0,-1
 1352 54 l 1,1,-1
 1352 -349 l 1,2,-1
 1297 -349 l 1,3,-1
 1297 0 l 1,4,-1
 146 0 l 1,5,-1
 146 -349 l 1,6,-1
 92 -349 l 1,7,-1
 92 54 l 1,8,-1
 168 54 l 1,9,10
 242 123 242 123 311.5 271.5 c 128,-1,11
 381 420 381 420 421.5 611.5 c 128,-1,12
 462 803 462 803 471 994 c 2,13,-1
 492 1456 l 1,14,-1
 1232 1456 l 1,15,-1
 1232 54 l 1,0,-1
237 54 m 1,16,-1
 1178 54 l 1,17,-1
 1178 1402 l 1,18,-1
 543 1402 l 1,19,-1
 525 992 l 2,20,21
 510 718 510 718 437 467 c 128,-1,22
 364 216 364 216 255 76 c 1,23,-1
 237 54 l 1,16,-1
EndSplineSet
Substitution2: "'c2sc' Capitals to Small Capitals lookup 0 subtable" uni0414.c2sc
Position2: "'cpsp' Capital Spacing lookup 0 subtable" dx=36 dy=0 dh=72 dv=0
EndChar

StartChar: uni0416
Encoding: 1046 1046 218
Width: 1745
GlyphClass: 2
Flags: W
LayerCount: 2
Fore
SplineSet
1066 720 m 1,0,-1
 895 720 l 1,1,-1
 895 0 l 1,2,-1
 841 0 l 1,3,-1
 841 720 l 1,4,-1
 668 720 l 1,5,-1
 91 0 l 1,6,-1
 19 0 l 1,7,-1
 611 737 l 1,8,-1
 54 1456 l 1,9,-1
 125 1456 l 1,10,-1
 654 774 l 1,11,-1
 841 774 l 1,12,-1
 841 1456 l 1,13,-1
 895 1456 l 1,14,-1
 895 774 l 1,15,-1
 1081 774 l 1,16,-1
 1610 1456 l 1,17,-1
 1680 1456 l 1,18,-1
 1123 737 l 1,19,-1
 1716 0 l 1,20,-1
 1644 0 l 1,21,-1
 1066 720 l 1,0,-1
EndSplineSet
Substitution2: "'c2sc' Capitals to Small Capitals lookup 0 subtable" uni0416.c2sc
Position2: "'cpsp' Capital Spacing lookup 0 subtable" dx=36 dy=0 dh=72 dv=0
EndChar

StartChar: uni0417
Encoding: 1047 1047 219
Width: 1221
GlyphClass: 2
Flags: W
LayerCount: 2
Fore
SplineSet
1042 1087 m 0,0,1
 1042 1248 1042 1248 927 1335 c 128,-1,2
 812 1422 812 1422 603 1422 c 0,3,4
 420 1422 420 1422 297.5 1326 c 128,-1,5
 175 1230 175 1230 175 1075 c 1,6,-1
 121 1075 l 1,7,8
 121 1191 121 1191 183.5 1282 c 128,-1,9
 246 1373 246 1373 358.5 1424.5 c 128,-1,10
 471 1476 471 1476 603 1476 c 0,11,12
 838 1476 838 1476 967 1372.5 c 128,-1,13
 1096 1269 1096 1269 1096 1083 c 0,14,15
 1096 962 1096 962 1017.5 872 c 128,-1,16
 939 782 939 782 805 745 c 1,17,18
 1119 679 1119 679 1119 386 c 0,19,20
 1119 200 1119 200 978 89.5 c 128,-1,21
 837 -21 837 -21 603 -21 c 0,22,23
 460 -21 460 -21 343 34 c 128,-1,24
 226 89 226 89 163 184 c 128,-1,25
 100 279 100 279 100 404 c 1,26,-1
 155 404 l 1,27,28
 155 243 155 243 279.5 138 c 128,-1,29
 404 33 404 33 603 33 c 0,30,31
 822 33 822 33 943.5 125 c 128,-1,32
 1065 217 1065 217 1065 382 c 0,33,34
 1065 549 1065 549 955 631 c 128,-1,35
 845 713 845 713 611 715 c 2,36,-1
 414 715 l 1,37,-1
 414 771 l 1,38,-1
 605 771 l 2,39,40
 820 772 820 772 931 851 c 128,-1,41
 1042 930 1042 930 1042 1087 c 0,0,1
EndSplineSet
Substitution2: "'c2sc' Capitals to Small Capitals lookup 0 subtable" uni0417.c2sc
Position2: "'cpsp' Capital Spacing lookup 0 subtable" dx=36 dy=0 dh=72 dv=0
EndChar

StartChar: uni0418
Encoding: 1048 1048 220
Width: 1449
GlyphClass: 2
Flags: W
LayerCount: 2
Fore
SplineSet
1195 1456 m 1,0,-1
 1249 1456 l 1,1,-1
 1249 0 l 1,2,-1
 1195 0 l 1,3,-1
 1195 1364 l 1,4,-1
 254 0 l 1,5,-1
 200 0 l 1,6,-1
 200 1456 l 1,7,-1
 254 1456 l 1,8,-1
 254 95 l 1,9,-1
 1195 1456 l 1,0,-1
EndSplineSet
Substitution2: "'c2sc' Capitals to Small Capitals lookup 0 subtable" uni0418.c2sc
Position2: "'cpsp' Capital Spacing lookup 0 subtable" dx=36 dy=0 dh=72 dv=0
EndChar

StartChar: uni041B
Encoding: 1051 1051 221
Width: 1428
GlyphClass: 2
Flags: W
LayerCount: 2
Fore
SplineSet
1233 1456 m 1,0,-1
 1233 0 l 1,1,-1
 1179 0 l 1,2,-1
 1179 1402 l 1,3,-1
 470 1402 l 1,4,-1
 426 734 l 2,5,6
 402 407 402 407 364 266 c 128,-1,7
 326 125 326 125 259.5 64 c 128,-1,8
 193 3 193 3 78 0 c 2,9,-1
 34 0 l 1,10,-1
 34 54 l 1,11,-1
 82 54 l 2,12,13
 182 57 182 57 235.5 117.5 c 128,-1,14
 289 178 289 178 321 321.5 c 128,-1,15
 353 465 353 465 373 747 c 2,16,-1
 420 1456 l 1,17,-1
 1233 1456 l 1,0,-1
EndSplineSet
Substitution2: "'c2sc' Capitals to Small Capitals lookup 0 subtable" uni041B.c2sc
Position2: "'cpsp' Capital Spacing lookup 0 subtable" dx=36 dy=0 dh=72 dv=0
EndChar

StartChar: uni0423
Encoding: 1059 1059 222
Width: 1283
GlyphClass: 2
Flags: W
LayerCount: 2
Fore
SplineSet
668 451 m 1,0,-1
 1165 1456 l 1,1,-1
 1231 1456 l 1,2,-1
 633 259 l 1,3,-1
 597 191 l 1,4,5
 480 -21 480 -21 279 -21 c 0,6,7
 222 -21 222 -21 192 -8 c 1,8,-1
 207 43 l 1,9,10
 235 33 235 33 284 33 c 0,11,12
 371 33 371 33 439.5 85.5 c 128,-1,13
 508 138 508 138 570 260 c 2,14,-1
 638 393 l 1,15,-1
 33 1456 l 1,16,-1
 100 1456 l 1,17,-1
 668 451 l 1,0,-1
EndSplineSet
Substitution2: "'c2sc' Capitals to Small Capitals lookup 0 subtable" uni0423.c2sc
Position2: "'cpsp' Capital Spacing lookup 0 subtable" dx=36 dy=0 dh=72 dv=0
EndChar

StartChar: uni0424
Encoding: 1060 1060 223
Width: 1462
GlyphClass: 1
Flags: W
LayerCount: 2
Fore
SplineSet
757 1306 m 1,0,-1
 792 1306 l 2,1,2
 966 1305 966 1305 1103 1232 c 128,-1,3
 1240 1159 1240 1159 1316 1028.5 c 128,-1,4
 1392 898 1392 898 1392 739 c 0,5,6
 1392 579 1392 579 1315.5 447.5 c 128,-1,7
 1239 316 1239 316 1100.5 242.5 c 128,-1,8
 962 169 962 169 786 169 c 2,9,-1
 757 169 l 1,10,-1
 757 -60 l 1,11,-1
 702 -60 l 1,12,-1
 702 169 l 1,13,-1
 670 169 l 2,14,15
 495 170 495 170 358 243 c 128,-1,16
 221 316 221 316 145.5 446 c 128,-1,17
 70 576 70 576 70 737 c 0,18,19
 70 895 70 895 143.5 1024.5 c 128,-1,20
 217 1154 217 1154 353 1228.5 c 128,-1,21
 489 1303 489 1303 660 1306 c 2,22,-1
 702 1306 l 1,23,-1
 702 1517 l 1,24,-1
 757 1517 l 1,25,-1
 757 1306 l 1,0,-1
757 1252 m 1,26,-1
 757 223 l 1,27,-1
 787 223 l 2,28,29
 948 223 948 223 1073 287.5 c 128,-1,30
 1198 352 1198 352 1267.5 471 c 128,-1,31
 1337 590 1337 590 1337 739 c 0,32,33
 1337 884 1337 884 1269.5 1001.5 c 128,-1,34
 1202 1119 1202 1119 1077.5 1185 c 128,-1,35
 953 1251 953 1251 794 1252 c 2,36,-1
 757 1252 l 1,26,-1
677 1252 m 2,37,38
 514 1252 514 1252 388 1186 c 128,-1,39
 262 1120 262 1120 193.5 1001.5 c 128,-1,40
 125 883 125 883 125 737 c 0,41,42
 125 590 125 590 192.5 472.5 c 128,-1,43
 260 355 260 355 383 290 c 128,-1,44
 506 225 506 225 666 223 c 2,45,-1
 702 223 l 1,46,-1
 702 1252 l 1,47,-1
 677 1252 l 2,37,38
EndSplineSet
Substitution2: "'c2sc' Capitals to Small Capitals lookup 0 subtable" uni0424.c2sc
Position2: "'cpsp' Capital Spacing lookup 0 subtable" dx=36 dy=0 dh=72 dv=0
EndChar

StartChar: uni0426
Encoding: 1062 1062 224
Width: 1426
GlyphClass: 1
Flags: W
LayerCount: 2
Fore
SplineSet
184 1456 m 1,0,-1
 238 1456 l 1,1,-1
 238 54 l 1,2,-1
 1168 54 l 1,3,-1
 1168 1456 l 1,4,-1
 1222 1456 l 1,5,-1
 1222 54 l 1,6,-1
 1355 54 l 1,7,-1
 1355 -351 l 1,8,-1
 1301 -351 l 1,9,-1
 1301 0 l 1,10,-1
 184 0 l 1,11,-1
 184 1456 l 1,0,-1
EndSplineSet
Substitution2: "'c2sc' Capitals to Small Capitals lookup 0 subtable" uni0426.c2sc
Position2: "'cpsp' Capital Spacing lookup 0 subtable" dx=36 dy=0 dh=72 dv=0
EndChar

StartChar: uni0427
Encoding: 1063 1063 225
Width: 1325
GlyphClass: 2
Flags: W
LayerCount: 2
Fore
SplineSet
1130 1456 m 1,0,-1
 1130 0 l 1,1,-1
 1076 0 l 1,2,-1
 1076 719 l 1,3,4
 855 658 855 658 674 658 c 0,5,6
 427 658 427 658 311.5 765.5 c 128,-1,7
 196 873 196 873 195 1100 c 2,8,-1
 195 1456 l 1,9,-1
 249 1456 l 1,10,-1
 249 1092 l 2,11,12
 252 899 252 899 355.5 805.5 c 128,-1,13
 459 712 459 712 674 712 c 0,14,15
 867 712 867 712 1076 772 c 1,16,-1
 1076 1456 l 1,17,-1
 1130 1456 l 1,0,-1
EndSplineSet
Substitution2: "'c2sc' Capitals to Small Capitals lookup 0 subtable" uni0427.c2sc
Position2: "'cpsp' Capital Spacing lookup 0 subtable" dx=36 dy=0 dh=72 dv=0
EndChar

StartChar: uni0428
Encoding: 1064 1064 226
Width: 1866
GlyphClass: 1
Flags: W
LayerCount: 2
Fore
SplineSet
243 1456 m 1,0,-1
 243 54 l 1,1,-1
 906 54 l 1,2,-1
 906 1456 l 1,3,-1
 961 1456 l 1,4,-1
 961 54 l 1,5,-1
 1624 54 l 1,6,-1
 1624 1456 l 1,7,-1
 1678 1456 l 1,8,-1
 1678 0 l 1,9,-1
 188 0 l 1,10,-1
 188 1456 l 1,11,-1
 243 1456 l 1,0,-1
EndSplineSet
Substitution2: "'c2sc' Capitals to Small Capitals lookup 0 subtable" uni0428.c2sc
Position2: "'cpsp' Capital Spacing lookup 0 subtable" dx=36 dy=0 dh=72 dv=0
EndChar

StartChar: uni0429
Encoding: 1065 1065 227
Width: 1877
GlyphClass: 1
Flags: W
LayerCount: 2
Fore
SplineSet
243 1456 m 1,0,-1
 243 54 l 1,1,-1
 906 54 l 1,2,-1
 906 1456 l 1,3,-1
 961 1456 l 1,4,-1
 961 54 l 1,5,-1
 1624 54 l 1,6,-1
 1624 1456 l 1,7,-1
 1678 1456 l 1,8,-1
 1678 54 l 1,9,-1
 1807 54 l 1,10,-1
 1807 -351 l 1,11,-1
 1753 -351 l 1,12,-1
 1753 0 l 1,13,-1
 188 0 l 1,14,-1
 188 1456 l 1,15,-1
 243 1456 l 1,0,-1
EndSplineSet
Substitution2: "'c2sc' Capitals to Small Capitals lookup 0 subtable" uni0429.c2sc
Position2: "'cpsp' Capital Spacing lookup 0 subtable" dx=36 dy=0 dh=72 dv=0
EndChar

StartChar: uni042A
Encoding: 1066 1066 228
Width: 1617
GlyphClass: 1
Flags: W
LayerCount: 2
Fore
SplineSet
-37 1456 m 1,0,-1
 584 1456 l 1,1,-1
 584 788 l 1,2,-1
 965 788 l 2,3,4
 1178 785 1178 785 1301 681.5 c 128,-1,5
 1424 578 1424 578 1424 394 c 0,6,7
 1424 212 1424 212 1300.5 106.5 c 128,-1,8
 1177 1 1177 1 957 0 c 2,9,-1
 530 0 l 1,10,-1
 530 1402 l 1,11,-1
 -37 1402 l 1,12,-1
 -37 1456 l 1,0,-1
584 734 m 1,13,-1
 584 54 l 1,14,-1
 953 54 l 2,15,16
 1151 54 1151 54 1260 145.5 c 128,-1,17
 1369 237 1369 237 1369 396 c 0,18,19
 1369 548 1369 548 1261.5 640 c 128,-1,20
 1154 732 1154 732 962 734 c 2,21,-1
 584 734 l 1,13,-1
EndSplineSet
Substitution2: "'c2sc' Capitals to Small Capitals lookup 0 subtable" uni042A.c2sc
Position2: "'cpsp' Capital Spacing lookup 0 subtable" dx=36 dy=0 dh=72 dv=0
EndChar

StartChar: uni042B
Encoding: 1067 1067 229
Width: 1648
GlyphClass: 2
Flags: W
LayerCount: 2
Fore
SplineSet
247 788 m 1,0,-1
 628 788 l 2,1,2
 841 785 841 785 964 681.5 c 128,-1,3
 1087 578 1087 578 1087 394 c 0,4,5
 1087 212 1087 212 963.5 106.5 c 128,-1,6
 840 1 840 1 620 0 c 2,7,-1
 193 0 l 1,8,-1
 193 1456 l 1,9,-1
 247 1456 l 1,10,-1
 247 788 l 1,0,-1
247 734 m 1,11,-1
 247 54 l 1,12,-1
 616 54 l 2,13,14
 814 54 814 54 923 145.5 c 128,-1,15
 1032 237 1032 237 1032 396 c 0,16,17
 1032 548 1032 548 924.5 640 c 128,-1,18
 817 732 817 732 625 734 c 2,19,-1
 247 734 l 1,11,-1
1447 0 m 1,20,-1
 1393 0 l 1,21,-1
 1393 1456 l 1,22,-1
 1447 1456 l 1,23,-1
 1447 0 l 1,20,-1
EndSplineSet
Substitution2: "'c2sc' Capitals to Small Capitals lookup 0 subtable" uni042B.c2sc
Position2: "'cpsp' Capital Spacing lookup 0 subtable" dx=36 dy=0 dh=72 dv=0
EndChar

StartChar: uni042C
Encoding: 1068 1068 230
Width: 1223
GlyphClass: 1
Flags: W
LayerCount: 2
Fore
SplineSet
247 788 m 1,0,-1
 628 788 l 2,1,2
 841 785 841 785 964 681.5 c 128,-1,3
 1087 578 1087 578 1087 394 c 0,4,5
 1087 212 1087 212 963.5 106.5 c 128,-1,6
 840 1 840 1 620 0 c 2,7,-1
 193 0 l 1,8,-1
 193 1456 l 1,9,-1
 247 1456 l 1,10,-1
 247 788 l 1,0,-1
247 734 m 1,11,-1
 247 54 l 1,12,-1
 616 54 l 2,13,14
 814 54 814 54 923 145.5 c 128,-1,15
 1032 237 1032 237 1032 396 c 0,16,17
 1032 548 1032 548 924.5 640 c 128,-1,18
 817 732 817 732 625 734 c 2,19,-1
 247 734 l 1,11,-1
EndSplineSet
Substitution2: "'c2sc' Capitals to Small Capitals lookup 0 subtable" uni042C.c2sc
Position2: "'cpsp' Capital Spacing lookup 0 subtable" dx=36 dy=0 dh=72 dv=0
EndChar

StartChar: uni042D
Encoding: 1069 1069 231
Width: 1325
GlyphClass: 2
Flags: W
LayerCount: 2
Fore
SplineSet
189 446 m 1,0,1
 210 240 210 240 327.5 137 c 128,-1,2
 445 34 445 34 654 34 c 0,3,4
 864 34 864 34 995.5 193.5 c 128,-1,5
 1127 353 1127 353 1127 627 c 2,6,-1
 1127 710 l 1,7,-1
 485 710 l 1,8,-1
 485 764 l 1,9,-1
 1127 764 l 1,10,-1
 1127 839 l 2,11,12
 1127 1102 1127 1102 996.5 1262 c 128,-1,13
 866 1422 866 1422 654 1422 c 0,14,15
 446 1422 446 1422 329 1317.5 c 128,-1,16
 212 1213 212 1213 189 1012 c 1,17,-1
 135 1012 l 1,18,19
 156 1236 156 1236 291 1356 c 128,-1,20
 426 1476 426 1476 654 1476 c 0,21,22
 809 1476 809 1476 928.5 1397.5 c 128,-1,23
 1048 1319 1048 1319 1113.5 1175.5 c 128,-1,24
 1179 1032 1179 1032 1181 848 c 2,25,-1
 1181 619 l 2,26,27
 1181 431 1181 431 1115.5 285 c 128,-1,28
 1050 139 1050 139 929.5 59.5 c 128,-1,29
 809 -20 809 -20 654 -20 c 0,30,31
 423 -20 423 -20 289.5 101 c 128,-1,32
 156 222 156 222 135 446 c 1,33,-1
 189 446 l 1,0,1
EndSplineSet
Substitution2: "'c2sc' Capitals to Small Capitals lookup 0 subtable" uni042D.c2sc
Position2: "'cpsp' Capital Spacing lookup 0 subtable" dx=36 dy=0 dh=72 dv=0
EndChar

StartChar: uni042E
Encoding: 1070 1070 232
Width: 1896
GlyphClass: 2
Flags: W
LayerCount: 2
Fore
SplineSet
1715 619 m 2,0,1
 1715 430 1715 430 1647.5 284.5 c 128,-1,2
 1580 139 1580 139 1455 59.5 c 128,-1,3
 1330 -20 1330 -20 1167 -20 c 0,4,5
 921 -20 921 -20 769 155 c 128,-1,6
 617 330 617 330 617 627 c 2,7,-1
 617 733 l 1,8,-1
 290 733 l 1,9,-1
 290 0 l 1,10,-1
 236 0 l 1,11,-1
 236 1456 l 1,12,-1
 290 1456 l 1,13,-1
 290 787 l 1,14,-1
 617 787 l 1,15,-1
 617 828 l 2,16,17
 617 1127 617 1127 768 1301.5 c 128,-1,18
 919 1476 919 1476 1165 1476 c 0,19,20
 1328 1476 1328 1476 1453.5 1396.5 c 128,-1,21
 1579 1317 1579 1317 1647 1170.5 c 128,-1,22
 1715 1024 1715 1024 1715 837 c 2,23,-1
 1715 619 l 2,0,1
1661 839 m 2,24,25
 1661 1103 1661 1103 1527 1262.5 c 128,-1,26
 1393 1422 1393 1422 1165 1422 c 0,27,28
 940 1422 940 1422 806 1263.5 c 128,-1,29
 672 1105 672 1105 672 832 c 2,30,-1
 672 619 l 2,31,32
 672 445 672 445 732.5 311.5 c 128,-1,33
 793 178 793 178 905 106 c 128,-1,34
 1017 34 1017 34 1167 34 c 0,35,36
 1395 34 1395 34 1528 193 c 128,-1,37
 1661 352 1661 352 1661 627 c 2,38,-1
 1661 839 l 2,24,25
EndSplineSet
Substitution2: "'c2sc' Capitals to Small Capitals lookup 0 subtable" uni042E.c2sc
Position2: "'cpsp' Capital Spacing lookup 0 subtable" dx=36 dy=0 dh=72 dv=0
EndChar

StartChar: uni042F
Encoding: 1071 1071 233
Width: 1200
GlyphClass: 2
Flags: W
LayerCount: 2
Fore
SplineSet
993 0 m 1,0,-1
 993 619 l 1,1,-1
 491 619 l 1,2,-1
 157 0 l 1,3,-1
 95 0 l 1,4,-1
 442 632 l 1,5,-1
 437 637 l 1,6,7
 300 678 300 678 224 778 c 128,-1,8
 148 878 148 878 148 1018 c 0,9,10
 148 1225 148 1225 273.5 1340.5 c 128,-1,11
 399 1456 399 1456 626 1456 c 2,12,-1
 1048 1456 l 1,13,-1
 1048 0 l 1,14,-1
 993 0 l 1,0,-1
202 1020 m 0,15,16
 202 862 202 862 300.5 768 c 128,-1,17
 399 674 399 674 562 674 c 2,18,-1
 993 674 l 1,19,-1
 993 1402 l 1,20,-1
 622 1402 l 2,21,22
 421 1402 421 1402 311.5 1304 c 128,-1,23
 202 1206 202 1206 202 1020 c 0,15,16
EndSplineSet
Substitution2: "'c2sc' Capitals to Small Capitals lookup 0 subtable" uni042F.c2sc
Position2: "'cpsp' Capital Spacing lookup 0 subtable" dx=36 dy=0 dh=72 dv=0
EndChar

StartChar: uni0431
Encoding: 1073 1073 234
Width: 1122
GlyphClass: 1
Flags: W
LayerCount: 2
Fore
SplineSet
570 1002 m 0,0,1
 780 1002 780 1002 912.5 868.5 c 128,-1,2
 1045 735 1045 735 1045 513 c 2,3,-1
 1045 480 l 2,4,5
 1045 336 1045 336 985 221 c 128,-1,6
 925 106 925 106 816.5 43 c 128,-1,7
 708 -20 708 -20 572 -20 c 0,8,9
 435 -20 435 -20 325.5 44 c 128,-1,10
 216 108 216 108 156.5 222 c 128,-1,11
 97 336 97 336 97 480 c 2,12,-1
 97 592 l 2,13,14
 97 918 97 918 225.5 1123 c 128,-1,15
 354 1328 354 1328 582 1360 c 0,16,17
 740 1382 740 1382 811.5 1427 c 128,-1,18
 883 1472 883 1472 883 1553 c 1,19,-1
 937 1553 l 1,20,21
 937 1448 937 1448 849.5 1386 c 128,-1,22
 762 1324 762 1324 594 1306.5 c 128,-1,23
 426 1289 426 1289 314 1153 c 128,-1,24
 202 1017 202 1017 165 786 c 1,25,26
 225 887 225 887 329 944.5 c 128,-1,27
 433 1002 433 1002 570 1002 c 0,0,1
570 948 m 0,28,29
 385 948 385 948 268 825.5 c 128,-1,30
 151 703 151 703 151 513 c 2,31,-1
 151 480 l 2,32,33
 151 356 151 356 204.5 253 c 128,-1,34
 258 150 258 150 353.5 92 c 128,-1,35
 449 34 449 34 572 34 c 0,36,37
 756 34 756 34 873 161.5 c 128,-1,38
 990 289 990 289 990 490 c 2,39,-1
 990 522 l 2,40,41
 990 639 990 639 937 737.5 c 128,-1,42
 884 836 884 836 788 892 c 128,-1,43
 692 948 692 948 570 948 c 0,28,29
EndSplineSet
Substitution2: "'smcp' Lowercase to Small Capitals lookup 1 subtable" uni0411.c2sc
EndChar

StartChar: uni0432
Encoding: 1074 1074 235
Width: 1121
GlyphClass: 2
Flags: W
LayerCount: 2
Fore
SplineSet
181 0 m 1,0,-1
 181 1082 l 1,1,-1
 553 1082 l 2,2,3
 750 1082 750 1082 854.5 1010.5 c 128,-1,4
 959 939 959 939 959 802 c 0,5,6
 959 712 959 712 903.5 645 c 128,-1,7
 848 578 848 578 745 555 c 1,8,-1
 746 555 l 1,9,10
 856 543 856 543 931 469 c 128,-1,11
 1006 395 1006 395 1006 293 c 0,12,13
 1006 154 1006 154 903.5 77 c 128,-1,14
 801 0 801 0 617 0 c 2,15,-1
 181 0 l 1,0,-1
235 521 m 1,16,-1
 235 54 l 1,17,-1
 622 54 l 2,18,19
 777 54 777 54 865 116 c 128,-1,20
 953 178 953 178 953 292 c 0,21,22
 953 394 953 394 863.5 457.5 c 128,-1,23
 774 521 774 521 619 521 c 2,24,-1
 235 521 l 1,16,-1
235 575 m 1,25,-1
 573 575 l 2,26,27
 737 575 737 575 821 633 c 128,-1,28
 905 691 905 691 905 805 c 0,29,30
 905 921 905 921 815 974 c 128,-1,31
 725 1027 725 1027 553 1027 c 2,32,-1
 235 1027 l 1,33,-1
 235 575 l 1,25,-1
EndSplineSet
Substitution2: "'smcp' Lowercase to Small Capitals lookup 1 subtable" uni0412.c2sc
EndChar

StartChar: uni0433
Encoding: 1075 1075 236
Width: 867
GlyphClass: 2
Flags: W
LayerCount: 2
Fore
SplineSet
822 1027 m 1,0,-1
 226 1027 l 1,1,-1
 226 0 l 1,2,-1
 172 0 l 1,3,-1
 172 1082 l 1,4,-1
 822 1082 l 1,5,-1
 822 1027 l 1,0,-1
EndSplineSet
Substitution2: "'smcp' Lowercase to Small Capitals lookup 1 subtable" uni0413.c2sc
EndChar

StartChar: uni0434
Encoding: 1076 1076 237
Width: 1112
GlyphClass: 2
Flags: W
LayerCount: 2
Fore
SplineSet
131 54 m 1,0,-1
 169 105 l 2,1,2
 316 306 316 306 340 688 c 2,3,-1
 361 1082 l 1,4,-1
 942 1082 l 1,5,-1
 942 54 l 1,6,-1
 1028 54 l 1,7,-1
 1028 -318 l 1,8,-1
 974 -318 l 1,9,-1
 974 0 l 1,10,-1
 103 0 l 1,11,-1
 103 -318 l 1,12,-1
 59 -318 l 1,13,-1
 59 54 l 1,14,-1
 131 54 l 1,0,-1
197 54 m 1,15,-1
 888 54 l 1,16,-1
 888 1028 l 1,17,-1
 412 1028 l 1,18,-1
 393 670 l 1,19,20
 365 263 365 263 197 54 c 1,15,-1
EndSplineSet
Substitution2: "'smcp' Lowercase to Small Capitals lookup 1 subtable" uni0414.c2sc
EndChar

StartChar: uni0436
Encoding: 1078 1078 238
Width: 1574
GlyphClass: 2
Flags: W
LayerCount: 2
Fore
SplineSet
961 528 m 1,0,-1
 805 528 l 1,1,-1
 805 0 l 1,2,-1
 751 0 l 1,3,-1
 751 528 l 1,4,-1
 596 528 l 1,5,-1
 98 0 l 1,6,-1
 27 0 l 1,7,-1
 538 552 l 1,8,-1
 90 1082 l 1,9,-1
 157 1082 l 1,10,-1
 587 582 l 1,11,-1
 751 582 l 1,12,-1
 751 1082 l 1,13,-1
 805 1082 l 1,14,-1
 805 582 l 1,15,-1
 972 582 l 1,16,-1
 1401 1082 l 1,17,-1
 1470 1082 l 1,18,-1
 1019 552 l 1,19,-1
 1532 0 l 1,20,-1
 1461 0 l 1,21,-1
 961 528 l 1,0,-1
EndSplineSet
Substitution2: "'smcp' Lowercase to Small Capitals lookup 1 subtable" uni0416.c2sc
EndChar

StartChar: uni0437
Encoding: 1079 1079 239
Width: 1035
GlyphClass: 2
Flags: W
LayerCount: 2
Fore
SplineSet
846 805 m 0,0,1
 846 920 846 920 761.5 984 c 128,-1,2
 677 1048 677 1048 515 1048 c 0,3,4
 375 1048 375 1048 278.5 977 c 128,-1,5
 182 906 182 906 182 799 c 1,6,-1
 127 799 l 1,7,8
 127 930 127 930 240.5 1016 c 128,-1,9
 354 1102 354 1102 515 1102 c 0,10,11
 699 1102 699 1102 800 1022.5 c 128,-1,12
 901 943 901 943 901 802 c 0,13,14
 901 717 901 717 846 651 c 128,-1,15
 791 585 791 585 691 554 c 1,16,17
 920 502 920 502 920 290 c 0,18,19
 920 148 920 148 810.5 64.5 c 128,-1,20
 701 -19 701 -19 516 -19 c 0,21,22
 408 -19 408 -19 313 21 c 128,-1,23
 218 61 218 61 163.5 133 c 128,-1,24
 109 205 109 205 109 301 c 1,25,-1
 164 301 l 1,26,27
 164 189 164 189 264 112.5 c 128,-1,28
 364 36 364 36 516 36 c 0,29,30
 688 36 688 36 776.5 103.5 c 128,-1,31
 865 171 865 171 865 287 c 0,32,33
 865 412 865 412 778.5 468 c 128,-1,34
 692 524 692 524 519 525 c 2,35,-1
 368 525 l 1,36,-1
 368 580 l 1,37,-1
 530 580 l 1,38,39
 846 585 846 585 846 805 c 0,0,1
EndSplineSet
Substitution2: "'smcp' Lowercase to Small Capitals lookup 1 subtable" uni0417.c2sc
EndChar

StartChar: uni0438
Encoding: 1080 1080 240
Width: 1121
GlyphClass: 2
Flags: W
LayerCount: 2
Fore
SplineSet
895 1082 m 1,0,-1
 950 1082 l 1,1,-1
 950 0 l 1,2,-1
 895 0 l 1,3,-1
 895 986 l 1,4,-1
 226 0 l 1,5,-1
 172 0 l 1,6,-1
 172 1082 l 1,7,-1
 226 1082 l 1,8,-1
 226 96 l 1,9,-1
 895 1082 l 1,0,-1
EndSplineSet
Substitution2: "'smcp' Lowercase to Small Capitals lookup 1 subtable" uni0418.c2sc
EndChar

StartChar: uni043A
Encoding: 1082 1082 241
Width: 1016
GlyphClass: 2
Flags: W
LayerCount: 2
Fore
SplineSet
424 529 m 1,0,-1
 226 529 l 1,1,-1
 226 0 l 1,2,-1
 171 0 l 1,3,-1
 171 1082 l 1,4,-1
 226 1082 l 1,5,-1
 226 582 l 1,6,-1
 434 582 l 1,7,-1
 863 1082 l 1,8,-1
 941 1082 l 1,9,-1
 481 552 l 1,10,-1
 1004 0 l 1,11,-1
 923 0 l 1,12,-1
 424 529 l 1,0,-1
EndSplineSet
Substitution2: "'smcp' Lowercase to Small Capitals lookup 1 subtable" uni041A.c2sc
EndChar

StartChar: uni043B
Encoding: 1083 1083 242
Width: 1122
GlyphClass: 2
Flags: W
LayerCount: 2
Fore
SplineSet
950 1082 m 1,0,-1
 950 0 l 1,1,-1
 895 0 l 1,2,-1
 895 1027 l 1,3,-1
 377 1027 l 1,4,-1
 356 521 l 1,5,6
 340 232 340 232 278.5 117 c 128,-1,7
 217 2 217 2 82 0 c 2,8,-1
 44 0 l 1,9,-1
 44 53 l 1,10,-1
 89 53 l 1,11,12
 191 57 191 57 238.5 160 c 128,-1,13
 286 263 286 263 301 504 c 1,14,-1
 325 1082 l 1,15,-1
 950 1082 l 1,0,-1
EndSplineSet
Substitution2: "'smcp' Lowercase to Small Capitals lookup 1 subtable" uni041B.c2sc
EndChar

StartChar: uni043C
Encoding: 1084 1084 243
Width: 1476
GlyphClass: 2
Flags: W
LayerCount: 2
Fore
SplineSet
747 82 m 1,0,-1
 1239 1082 l 1,1,-1
 1304 1082 l 1,2,-1
 1304 0 l 1,3,-1
 1249 0 l 1,4,-1
 1249 978 l 1,5,-1
 768 0 l 1,6,-1
 726 0 l 1,7,-1
 235 1002 l 1,8,-1
 235 0 l 1,9,-1
 181 0 l 1,10,-1
 181 1082 l 1,11,-1
 255 1082 l 1,12,-1
 747 82 l 1,0,-1
EndSplineSet
Substitution2: "'smcp' Lowercase to Small Capitals lookup 1 subtable" uni041C.c2sc
EndChar

StartChar: uni043D
Encoding: 1085 1085 244
Width: 1121
GlyphClass: 2
Flags: W
LayerCount: 2
Fore
SplineSet
950 0 m 1,0,-1
 895 0 l 1,1,-1
 895 529 l 1,2,-1
 226 529 l 1,3,-1
 226 0 l 1,4,-1
 172 0 l 1,5,-1
 172 1082 l 1,6,-1
 226 1082 l 1,7,-1
 226 583 l 1,8,-1
 895 583 l 1,9,-1
 895 1082 l 1,10,-1
 950 1082 l 1,11,-1
 950 0 l 1,0,-1
EndSplineSet
Substitution2: "'smcp' Lowercase to Small Capitals lookup 1 subtable" uni041D.c2sc
EndChar

StartChar: uni043F
Encoding: 1087 1087 245
Width: 1121
GlyphClass: 2
Flags: W
LayerCount: 2
Fore
SplineSet
950 0 m 1,0,-1
 895 0 l 1,1,-1
 895 1027 l 1,2,-1
 226 1027 l 1,3,-1
 226 0 l 1,4,-1
 172 0 l 1,5,-1
 172 1082 l 1,6,-1
 950 1082 l 1,7,-1
 950 0 l 1,0,-1
EndSplineSet
Substitution2: "'smcp' Lowercase to Small Capitals lookup 1 subtable" uni041F.c2sc
EndChar

StartChar: uni0442
Encoding: 1090 1090 246
Width: 962
GlyphClass: 2
Flags: W
LayerCount: 2
Fore
SplineSet
922 1027 m 1,0,-1
 497 1027 l 1,1,-1
 497 0 l 1,2,-1
 443 0 l 1,3,-1
 443 1027 l 1,4,-1
 40 1027 l 1,5,-1
 40 1082 l 1,6,-1
 922 1082 l 1,7,-1
 922 1027 l 1,0,-1
EndSplineSet
Substitution2: "'smcp' Lowercase to Small Capitals lookup 1 subtable" uni0422.c2sc
EndChar

StartChar: uni0444
Encoding: 1092 1092 247
Width: 1484
GlyphClass: 2
Flags: W
LayerCount: 2
Fore
SplineSet
122 542 m 1,0,1
 122 799 122 799 225 950.5 c 128,-1,2
 328 1102 328 1102 510 1102 c 0,3,4
 634 1102 634 1102 716 1035 c 1,5,-1
 716 1536 l 1,6,-1
 770 1536 l 1,7,-1
 770 1036 l 1,8,9
 849 1102 849 1102 974 1102 c 0,10,11
 1153 1102 1153 1102 1256 954.5 c 128,-1,12
 1359 807 1359 807 1362 555 c 2,13,-1
 1362 521 l 2,14,15
 1362 269 1362 269 1258.5 124 c 128,-1,16
 1155 -21 1155 -21 976 -21 c 0,17,18
 854 -21 854 -21 770 41 c 1,19,-1
 770 -416 l 1,20,-1
 716 -416 l 1,21,-1
 716 41 l 1,22,23
 630 -21 630 -21 508 -21 c 0,24,25
 338 -21 338 -21 235 111.5 c 128,-1,26
 132 244 132 244 123 479 c 1,27,-1
 122 542 l 1,0,1
178 521 m 0,28,29
 178 288 178 288 264.5 160.5 c 128,-1,30
 351 33 351 33 507 33 c 0,31,32
 617 33 617 33 695 87 c 2,33,-1
 716 102 l 1,34,-1
 716 963 l 1,35,36
 659 1048 659 1048 509 1048 c 0,37,38
 355 1048 355 1048 266.5 914 c 128,-1,39
 178 780 178 780 178 521 c 0,28,29
1308 542 m 0,40,41
 1308 775 1308 775 1220.5 911.5 c 128,-1,42
 1133 1048 1133 1048 975 1048 c 0,43,44
 825 1048 825 1048 770 965 c 1,45,-1
 770 101 l 1,46,47
 855 33 855 33 977 33 c 0,48,49
 1136 33 1136 33 1222 162 c 128,-1,50
 1308 291 1308 291 1308 542 c 0,40,41
EndSplineSet
Substitution2: "'smcp' Lowercase to Small Capitals lookup 1 subtable" uni0424.c2sc
EndChar

StartChar: uni0446
Encoding: 1094 1094 248
Width: 1120
GlyphClass: 2
Flags: W
LayerCount: 2
Fore
SplineSet
172 1082 m 1,0,-1
 226 1082 l 1,1,-1
 226 54 l 1,2,-1
 895 54 l 1,3,-1
 895 1082 l 1,4,-1
 950 1082 l 1,5,-1
 950 54 l 1,6,-1
 1041 54 l 1,7,-1
 1041 -321 l 1,8,-1
 987 -321 l 1,9,-1
 987 0 l 1,10,-1
 172 0 l 1,11,-1
 172 1082 l 1,0,-1
EndSplineSet
Substitution2: "'smcp' Lowercase to Small Capitals lookup 1 subtable" uni0426.c2sc
EndChar

StartChar: uni0447
Encoding: 1095 1095 249
Width: 1067
GlyphClass: 2
Flags: W
LayerCount: 2
Fore
SplineSet
895 0 m 1,0,-1
 841 0 l 1,1,-1
 841 522 l 1,2,3
 769 487 769 487 678.5 464.5 c 128,-1,4
 588 442 588 442 526 442 c 0,5,6
 364 442 364 442 280 480.5 c 128,-1,7
 196 519 196 519 156.5 606.5 c 128,-1,8
 117 694 117 694 117 846 c 2,9,-1
 117 1082 l 1,10,-1
 171 1082 l 1,11,-1
 171 846 l 2,12,13
 171 713 171 713 205 637.5 c 128,-1,14
 239 562 239 562 312.5 529 c 128,-1,15
 386 496 386 496 526 496 c 1,16,17
 606 500 606 500 697.5 522.5 c 128,-1,18
 789 545 789 545 841 573 c 1,19,-1
 841 1082 l 1,20,-1
 895 1082 l 1,21,-1
 895 0 l 1,0,-1
EndSplineSet
Substitution2: "'smcp' Lowercase to Small Capitals lookup 1 subtable" uni0427.c2sc
EndChar

StartChar: uni0448
Encoding: 1096 1096 250
Width: 1594
GlyphClass: 2
Flags: W
LayerCount: 2
Fore
SplineSet
226 1082 m 1,0,-1
 226 54 l 1,1,-1
 793 54 l 1,2,-1
 793 1082 l 1,3,-1
 848 1082 l 1,4,-1
 848 54 l 1,5,-1
 1406 54 l 1,6,-1
 1406 1082 l 1,7,-1
 1460 1082 l 1,8,-1
 1460 0 l 1,9,-1
 172 0 l 1,10,-1
 172 1082 l 1,11,-1
 226 1082 l 1,0,-1
EndSplineSet
Substitution2: "'smcp' Lowercase to Small Capitals lookup 1 subtable" uni0428.c2sc
EndChar

StartChar: uni0449
Encoding: 1097 1097 251
Width: 1592
GlyphClass: 2
Flags: W
LayerCount: 2
Fore
SplineSet
226 1082 m 1,0,-1
 226 54 l 1,1,-1
 793 54 l 1,2,-1
 793 1082 l 1,3,-1
 848 1082 l 1,4,-1
 848 54 l 1,5,-1
 1406 54 l 1,6,-1
 1406 1082 l 1,7,-1
 1460 1082 l 1,8,-1
 1460 54 l 1,9,-1
 1568 54 l 1,10,-1
 1568 -321 l 1,11,-1
 1514 -321 l 1,12,-1
 1514 0 l 1,13,-1
 172 0 l 1,14,-1
 172 1082 l 1,15,-1
 226 1082 l 1,0,-1
EndSplineSet
Substitution2: "'smcp' Lowercase to Small Capitals lookup 1 subtable" uni0429.c2sc
EndChar

StartChar: uni044A
Encoding: 1098 1098 252
Width: 1309
GlyphClass: 1
Flags: W
LayerCount: 2
Fore
SplineSet
40 1082 m 1,0,-1
 463 1082 l 1,1,-1
 463 670 l 1,2,-1
 818 670 l 2,3,4
 991 667 991 667 1093 576.5 c 128,-1,5
 1195 486 1195 486 1195 335 c 0,6,7
 1195 185 1195 185 1094 94 c 128,-1,8
 993 3 993 3 818 0 c 2,9,-1
 409 0 l 1,10,-1
 409 1028 l 1,11,-1
 40 1028 l 1,12,-1
 40 1082 l 1,0,-1
463 616 m 1,13,-1
 463 54 l 1,14,-1
 808 54 l 2,15,16
 964 54 964 54 1052.5 130.5 c 128,-1,17
 1141 207 1141 207 1141 337 c 0,18,19
 1141 461 1141 461 1054.5 537.5 c 128,-1,20
 968 614 968 614 816 616 c 2,21,-1
 463 616 l 1,13,-1
EndSplineSet
Substitution2: "'smcp' Lowercase to Small Capitals lookup 1 subtable" uni042A.c2sc
EndChar

StartChar: uni044B
Encoding: 1099 1099 253
Width: 1486
GlyphClass: 2
Flags: W
LayerCount: 2
Fore
SplineSet
235 670 m 1,0,-1
 590 670 l 2,1,2
 763 667 763 667 865 576.5 c 128,-1,3
 967 486 967 486 967 335 c 0,4,5
 967 185 967 185 866 94 c 128,-1,6
 765 3 765 3 590 0 c 2,7,-1
 181 0 l 1,8,-1
 181 1082 l 1,9,-1
 235 1082 l 1,10,-1
 235 670 l 1,0,-1
235 616 m 1,11,-1
 235 54 l 1,12,-1
 580 54 l 2,13,14
 736 54 736 54 824.5 130.5 c 128,-1,15
 913 207 913 207 913 337 c 0,16,17
 913 461 913 461 826.5 537.5 c 128,-1,18
 740 614 740 614 588 616 c 2,19,-1
 235 616 l 1,11,-1
1315 0 m 1,20,-1
 1261 0 l 1,21,-1
 1261 1082 l 1,22,-1
 1315 1082 l 1,23,-1
 1315 0 l 1,20,-1
EndSplineSet
Substitution2: "'smcp' Lowercase to Small Capitals lookup 1 subtable" uni042B.c2sc
EndChar

StartChar: uni044C
Encoding: 1100 1100 254
Width: 1080
GlyphClass: 1
Flags: W
LayerCount: 2
Fore
SplineSet
235 670 m 1,0,-1
 590 670 l 2,1,2
 763 667 763 667 865 576.5 c 128,-1,3
 967 486 967 486 967 335 c 0,4,5
 967 185 967 185 866 94 c 128,-1,6
 765 3 765 3 590 0 c 2,7,-1
 181 0 l 1,8,-1
 181 1082 l 1,9,-1
 235 1082 l 1,10,-1
 235 670 l 1,0,-1
235 616 m 1,11,-1
 235 54 l 1,12,-1
 580 54 l 2,13,14
 736 54 736 54 824.5 130.5 c 128,-1,15
 913 207 913 207 913 337 c 0,16,17
 913 461 913 461 826.5 537.5 c 128,-1,18
 740 614 740 614 588 616 c 2,19,-1
 235 616 l 1,11,-1
EndSplineSet
Substitution2: "'smcp' Lowercase to Small Capitals lookup 1 subtable" uni042C.c2sc
EndChar

